%TF.GenerationSoftware,KiCad,Pcbnew,9.0.7*%
%TF.CreationDate,2026-04-25T22:25:53+02:00*%
%TF.ProjectId,M-FC,4d2d4643-2e6b-4696-9361-645f70636258,1.0.0*%
%TF.SameCoordinates,Original*%
%TF.FileFunction,Paste,Bot*%
%TF.FilePolarity,Positive*%
%FSLAX46Y46*%
G04 Gerber Fmt 4.6, Leading zero omitted, Abs format (unit mm)*
G04 Created by KiCad (PCBNEW 9.0.7) date 2026-04-25 22:25:53*
%MOMM*%
%LPD*%
G01*
G04 APERTURE LIST*
G04 Aperture macros list*
%AMRoundRect*
0 Rectangle with rounded corners*
0 $1 Rounding radius*
0 $2 $3 $4 $5 $6 $7 $8 $9 X,Y pos of 4 corners*
0 Add a 4 corners polygon primitive as box body*
4,1,4,$2,$3,$4,$5,$6,$7,$8,$9,$2,$3,0*
0 Add four circle primitives for the rounded corners*
1,1,$1+$1,$2,$3*
1,1,$1+$1,$4,$5*
1,1,$1+$1,$6,$7*
1,1,$1+$1,$8,$9*
0 Add four rect primitives between the rounded corners*
20,1,$1+$1,$2,$3,$4,$5,0*
20,1,$1+$1,$4,$5,$6,$7,0*
20,1,$1+$1,$6,$7,$8,$9,0*
20,1,$1+$1,$8,$9,$2,$3,0*%
G04 Aperture macros list end*
%ADD10RoundRect,0.135000X0.185000X-0.135000X0.185000X0.135000X-0.185000X0.135000X-0.185000X-0.135000X0*%
%ADD11R,1.200000X1.800000*%
%ADD12R,0.600000X1.550000*%
%ADD13RoundRect,0.140000X-0.170000X0.140000X-0.170000X-0.140000X0.170000X-0.140000X0.170000X0.140000X0*%
%ADD14RoundRect,0.135000X-0.185000X0.135000X-0.185000X-0.135000X0.185000X-0.135000X0.185000X0.135000X0*%
%ADD15R,1.700000X0.500000*%
%ADD16R,2.500000X1.200000*%
%ADD17RoundRect,0.250000X0.250000X0.475000X-0.250000X0.475000X-0.250000X-0.475000X0.250000X-0.475000X0*%
%ADD18R,0.690000X0.385000*%
%ADD19R,0.690000X1.035000*%
%ADD20R,1.800000X1.200000*%
%ADD21R,1.550000X0.600000*%
G04 APERTURE END LIST*
D10*
%TO.C,R11*%
X148410000Y-103115000D03*
X148410000Y-102095000D03*
%TD*%
%TO.C,R17*%
X151900000Y-99085000D03*
X151900000Y-98065000D03*
%TD*%
D11*
%TO.C,J4*%
X159110000Y-120375000D03*
X153510000Y-120375000D03*
D12*
X157810000Y-116500000D03*
X156810000Y-116500000D03*
X155810000Y-116500000D03*
X154810000Y-116500000D03*
%TD*%
D13*
%TO.C,C20*%
X146990000Y-93775000D03*
X146990000Y-94735000D03*
%TD*%
%TO.C,C42*%
X149215000Y-93800000D03*
X149215000Y-94760000D03*
%TD*%
D10*
%TO.C,R13*%
X154715000Y-102140000D03*
X154715000Y-101120000D03*
%TD*%
D14*
%TO.C,R10*%
X148365000Y-100195000D03*
X148365000Y-101215000D03*
%TD*%
D13*
%TO.C,C19*%
X148105000Y-93790000D03*
X148105000Y-94750000D03*
%TD*%
D15*
%TO.C,J8*%
X137265000Y-105842500D03*
X137265000Y-104842500D03*
X137265000Y-103842500D03*
X137265000Y-102842500D03*
X137265000Y-101842500D03*
X137265000Y-100842500D03*
D16*
X133865000Y-99742500D03*
X133865000Y-106942500D03*
%TD*%
D13*
%TO.C,C41*%
X156190000Y-93525000D03*
X156190000Y-94485000D03*
%TD*%
D11*
%TO.C,J1*%
X150230000Y-120390000D03*
X145630000Y-120390000D03*
D12*
X148930000Y-116515000D03*
X147930000Y-116515000D03*
X146930000Y-116515000D03*
%TD*%
D17*
%TO.C,FB1*%
X152590000Y-93705000D03*
X150690000Y-93705000D03*
%TD*%
D11*
%TO.C,J5*%
X141470000Y-81267500D03*
X146070000Y-81267500D03*
D12*
X142770000Y-85142500D03*
X143770000Y-85142500D03*
X144770000Y-85142500D03*
%TD*%
D18*
%TO.C,D1*%
X162090000Y-119423500D03*
D19*
X162090000Y-118511500D03*
%TD*%
D13*
%TO.C,C44*%
X155080000Y-93530000D03*
X155080000Y-94490000D03*
%TD*%
D14*
%TO.C,R12*%
X154690000Y-98895000D03*
X154690000Y-99915000D03*
%TD*%
D20*
%TO.C,J2*%
X168717500Y-95585000D03*
X168717500Y-101185000D03*
D21*
X164842500Y-96885000D03*
X164842500Y-97885000D03*
X164842500Y-98885000D03*
X164842500Y-99885000D03*
%TD*%
D13*
%TO.C,C43*%
X153990000Y-93525000D03*
X153990000Y-94485000D03*
%TD*%
%TO.C,C36*%
X150850000Y-98085000D03*
X150850000Y-99045000D03*
%TD*%
M02*
