%TF.GenerationSoftware,KiCad,Pcbnew,9.0.7*%
%TF.CreationDate,2026-04-25T22:25:53+02:00*%
%TF.ProjectId,M-FC,4d2d4643-2e6b-4696-9361-645f70636258,1.0.0*%
%TF.SameCoordinates,Original*%
%TF.FileFunction,Legend,Bot*%
%TF.FilePolarity,Positive*%
%FSLAX46Y46*%
G04 Gerber Fmt 4.6, Leading zero omitted, Abs format (unit mm)*
G04 Created by KiCad (PCBNEW 9.0.7) date 2026-04-25 22:25:53*
%MOMM*%
%LPD*%
G01*
G04 APERTURE LIST*
%ADD10C,0.150000*%
%ADD11C,0.120000*%
%ADD12C,0.254000*%
%ADD13C,0.200000*%
G04 APERTURE END LIST*
D10*
X162639411Y-81802438D02*
X162734649Y-81754819D01*
X162734649Y-81754819D02*
X162877506Y-81754819D01*
X162877506Y-81754819D02*
X163020363Y-81802438D01*
X163020363Y-81802438D02*
X163115601Y-81897676D01*
X163115601Y-81897676D02*
X163163220Y-81992914D01*
X163163220Y-81992914D02*
X163210839Y-82183390D01*
X163210839Y-82183390D02*
X163210839Y-82326247D01*
X163210839Y-82326247D02*
X163163220Y-82516723D01*
X163163220Y-82516723D02*
X163115601Y-82611961D01*
X163115601Y-82611961D02*
X163020363Y-82707200D01*
X163020363Y-82707200D02*
X162877506Y-82754819D01*
X162877506Y-82754819D02*
X162782268Y-82754819D01*
X162782268Y-82754819D02*
X162639411Y-82707200D01*
X162639411Y-82707200D02*
X162591792Y-82659580D01*
X162591792Y-82659580D02*
X162591792Y-82326247D01*
X162591792Y-82326247D02*
X162782268Y-82326247D01*
X162163220Y-82754819D02*
X162163220Y-81754819D01*
X162163220Y-81754819D02*
X161591792Y-82754819D01*
X161591792Y-82754819D02*
X161591792Y-81754819D01*
X161115601Y-82754819D02*
X161115601Y-81754819D01*
X161115601Y-81754819D02*
X160877506Y-81754819D01*
X160877506Y-81754819D02*
X160734649Y-81802438D01*
X160734649Y-81802438D02*
X160639411Y-81897676D01*
X160639411Y-81897676D02*
X160591792Y-81992914D01*
X160591792Y-81992914D02*
X160544173Y-82183390D01*
X160544173Y-82183390D02*
X160544173Y-82326247D01*
X160544173Y-82326247D02*
X160591792Y-82516723D01*
X160591792Y-82516723D02*
X160639411Y-82611961D01*
X160639411Y-82611961D02*
X160734649Y-82707200D01*
X160734649Y-82707200D02*
X160877506Y-82754819D01*
X160877506Y-82754819D02*
X161115601Y-82754819D01*
X144953220Y-91164875D02*
X144953220Y-90164875D01*
X144953220Y-90164875D02*
X144619887Y-90879160D01*
X144619887Y-90879160D02*
X144286554Y-90164875D01*
X144286554Y-90164875D02*
X144286554Y-91164875D01*
X143810363Y-90783922D02*
X143048459Y-90783922D01*
X142238935Y-90641065D02*
X142572268Y-90641065D01*
X142572268Y-91164875D02*
X142572268Y-90164875D01*
X142572268Y-90164875D02*
X142096078Y-90164875D01*
X141143697Y-91069636D02*
X141191316Y-91117256D01*
X141191316Y-91117256D02*
X141334173Y-91164875D01*
X141334173Y-91164875D02*
X141429411Y-91164875D01*
X141429411Y-91164875D02*
X141572268Y-91117256D01*
X141572268Y-91117256D02*
X141667506Y-91022017D01*
X141667506Y-91022017D02*
X141715125Y-90926779D01*
X141715125Y-90926779D02*
X141762744Y-90736303D01*
X141762744Y-90736303D02*
X141762744Y-90593446D01*
X141762744Y-90593446D02*
X141715125Y-90402970D01*
X141715125Y-90402970D02*
X141667506Y-90307732D01*
X141667506Y-90307732D02*
X141572268Y-90212494D01*
X141572268Y-90212494D02*
X141429411Y-90164875D01*
X141429411Y-90164875D02*
X141334173Y-90164875D01*
X141334173Y-90164875D02*
X141191316Y-90212494D01*
X141191316Y-90212494D02*
X141143697Y-90260113D01*
X139381792Y-91164875D02*
X139715125Y-90688684D01*
X139953220Y-91164875D02*
X139953220Y-90164875D01*
X139953220Y-90164875D02*
X139572268Y-90164875D01*
X139572268Y-90164875D02*
X139477030Y-90212494D01*
X139477030Y-90212494D02*
X139429411Y-90260113D01*
X139429411Y-90260113D02*
X139381792Y-90355351D01*
X139381792Y-90355351D02*
X139381792Y-90498208D01*
X139381792Y-90498208D02*
X139429411Y-90593446D01*
X139429411Y-90593446D02*
X139477030Y-90641065D01*
X139477030Y-90641065D02*
X139572268Y-90688684D01*
X139572268Y-90688684D02*
X139953220Y-90688684D01*
X138953220Y-90641065D02*
X138619887Y-90641065D01*
X138477030Y-91164875D02*
X138953220Y-91164875D01*
X138953220Y-91164875D02*
X138953220Y-90164875D01*
X138953220Y-90164875D02*
X138477030Y-90164875D01*
X138191315Y-90164875D02*
X137857982Y-91164875D01*
X137857982Y-91164875D02*
X137524649Y-90164875D01*
X137191315Y-90783922D02*
X136429411Y-90783922D01*
X136000839Y-90879160D02*
X135524649Y-90879160D01*
X136096077Y-91164875D02*
X135762744Y-90164875D01*
X135762744Y-90164875D02*
X135429411Y-91164875D01*
X144953220Y-92774819D02*
X144953220Y-91774819D01*
X144477030Y-92774819D02*
X144477030Y-91774819D01*
X144477030Y-91774819D02*
X143905602Y-92774819D01*
X143905602Y-92774819D02*
X143905602Y-91774819D01*
X143429411Y-92679580D02*
X143381792Y-92727200D01*
X143381792Y-92727200D02*
X143429411Y-92774819D01*
X143429411Y-92774819D02*
X143477030Y-92727200D01*
X143477030Y-92727200D02*
X143429411Y-92679580D01*
X143429411Y-92679580D02*
X143429411Y-92774819D01*
X143429411Y-92155771D02*
X143381792Y-92203390D01*
X143381792Y-92203390D02*
X143429411Y-92251009D01*
X143429411Y-92251009D02*
X143477030Y-92203390D01*
X143477030Y-92203390D02*
X143429411Y-92155771D01*
X143429411Y-92155771D02*
X143429411Y-92251009D01*
X141715126Y-91774819D02*
X142191316Y-91774819D01*
X142191316Y-91774819D02*
X142238935Y-92251009D01*
X142238935Y-92251009D02*
X142191316Y-92203390D01*
X142191316Y-92203390D02*
X142096078Y-92155771D01*
X142096078Y-92155771D02*
X141857983Y-92155771D01*
X141857983Y-92155771D02*
X141762745Y-92203390D01*
X141762745Y-92203390D02*
X141715126Y-92251009D01*
X141715126Y-92251009D02*
X141667507Y-92346247D01*
X141667507Y-92346247D02*
X141667507Y-92584342D01*
X141667507Y-92584342D02*
X141715126Y-92679580D01*
X141715126Y-92679580D02*
X141762745Y-92727200D01*
X141762745Y-92727200D02*
X141857983Y-92774819D01*
X141857983Y-92774819D02*
X142096078Y-92774819D01*
X142096078Y-92774819D02*
X142191316Y-92727200D01*
X142191316Y-92727200D02*
X142238935Y-92679580D01*
X141381792Y-91774819D02*
X141048459Y-92774819D01*
X141048459Y-92774819D02*
X140715126Y-91774819D01*
X152603220Y-104804819D02*
X152603220Y-103804819D01*
X152603220Y-103804819D02*
X152222268Y-103804819D01*
X152222268Y-103804819D02*
X152127030Y-103852438D01*
X152127030Y-103852438D02*
X152079411Y-103900057D01*
X152079411Y-103900057D02*
X152031792Y-103995295D01*
X152031792Y-103995295D02*
X152031792Y-104138152D01*
X152031792Y-104138152D02*
X152079411Y-104233390D01*
X152079411Y-104233390D02*
X152127030Y-104281009D01*
X152127030Y-104281009D02*
X152222268Y-104328628D01*
X152222268Y-104328628D02*
X152603220Y-104328628D01*
X151698458Y-103804819D02*
X151460363Y-104804819D01*
X151460363Y-104804819D02*
X151269887Y-104090533D01*
X151269887Y-104090533D02*
X151079411Y-104804819D01*
X151079411Y-104804819D02*
X150841316Y-103804819D01*
X150460363Y-104804819D02*
X150460363Y-103804819D01*
X150460363Y-103804819D02*
X150127030Y-104519104D01*
X150127030Y-104519104D02*
X149793697Y-103804819D01*
X149793697Y-103804819D02*
X149793697Y-104804819D01*
X149555602Y-104900057D02*
X148793697Y-104900057D01*
X148650839Y-103804819D02*
X148031792Y-103804819D01*
X148031792Y-103804819D02*
X148365125Y-104185771D01*
X148365125Y-104185771D02*
X148222268Y-104185771D01*
X148222268Y-104185771D02*
X148127030Y-104233390D01*
X148127030Y-104233390D02*
X148079411Y-104281009D01*
X148079411Y-104281009D02*
X148031792Y-104376247D01*
X148031792Y-104376247D02*
X148031792Y-104614342D01*
X148031792Y-104614342D02*
X148079411Y-104709580D01*
X148079411Y-104709580D02*
X148127030Y-104757200D01*
X148127030Y-104757200D02*
X148222268Y-104804819D01*
X148222268Y-104804819D02*
X148507982Y-104804819D01*
X148507982Y-104804819D02*
X148603220Y-104757200D01*
X148603220Y-104757200D02*
X148650839Y-104709580D01*
X158470839Y-97607200D02*
X158327982Y-97654819D01*
X158327982Y-97654819D02*
X158089887Y-97654819D01*
X158089887Y-97654819D02*
X157994649Y-97607200D01*
X157994649Y-97607200D02*
X157947030Y-97559580D01*
X157947030Y-97559580D02*
X157899411Y-97464342D01*
X157899411Y-97464342D02*
X157899411Y-97369104D01*
X157899411Y-97369104D02*
X157947030Y-97273866D01*
X157947030Y-97273866D02*
X157994649Y-97226247D01*
X157994649Y-97226247D02*
X158089887Y-97178628D01*
X158089887Y-97178628D02*
X158280363Y-97131009D01*
X158280363Y-97131009D02*
X158375601Y-97083390D01*
X158375601Y-97083390D02*
X158423220Y-97035771D01*
X158423220Y-97035771D02*
X158470839Y-96940533D01*
X158470839Y-96940533D02*
X158470839Y-96845295D01*
X158470839Y-96845295D02*
X158423220Y-96750057D01*
X158423220Y-96750057D02*
X158375601Y-96702438D01*
X158375601Y-96702438D02*
X158280363Y-96654819D01*
X158280363Y-96654819D02*
X158042268Y-96654819D01*
X158042268Y-96654819D02*
X157899411Y-96702438D01*
X157470839Y-97654819D02*
X157470839Y-96654819D01*
X157470839Y-96654819D02*
X157232744Y-96654819D01*
X157232744Y-96654819D02*
X157089887Y-96702438D01*
X157089887Y-96702438D02*
X156994649Y-96797676D01*
X156994649Y-96797676D02*
X156947030Y-96892914D01*
X156947030Y-96892914D02*
X156899411Y-97083390D01*
X156899411Y-97083390D02*
X156899411Y-97226247D01*
X156899411Y-97226247D02*
X156947030Y-97416723D01*
X156947030Y-97416723D02*
X156994649Y-97511961D01*
X156994649Y-97511961D02*
X157089887Y-97607200D01*
X157089887Y-97607200D02*
X157232744Y-97654819D01*
X157232744Y-97654819D02*
X157470839Y-97654819D01*
X156518458Y-97369104D02*
X156042268Y-97369104D01*
X156613696Y-97654819D02*
X156280363Y-96654819D01*
X156280363Y-96654819D02*
X155947030Y-97654819D01*
X133861792Y-95174819D02*
X134195125Y-94698628D01*
X134433220Y-95174819D02*
X134433220Y-94174819D01*
X134433220Y-94174819D02*
X134052268Y-94174819D01*
X134052268Y-94174819D02*
X133957030Y-94222438D01*
X133957030Y-94222438D02*
X133909411Y-94270057D01*
X133909411Y-94270057D02*
X133861792Y-94365295D01*
X133861792Y-94365295D02*
X133861792Y-94508152D01*
X133861792Y-94508152D02*
X133909411Y-94603390D01*
X133909411Y-94603390D02*
X133957030Y-94651009D01*
X133957030Y-94651009D02*
X134052268Y-94698628D01*
X134052268Y-94698628D02*
X134433220Y-94698628D01*
X133528458Y-94174819D02*
X132861792Y-95174819D01*
X132861792Y-94174819D02*
X133528458Y-95174819D01*
X134496077Y-96804819D02*
X133924649Y-96804819D01*
X134210363Y-97804819D02*
X134210363Y-96804819D01*
X133686553Y-96804819D02*
X133019887Y-97804819D01*
X133019887Y-96804819D02*
X133686553Y-97804819D01*
X139622561Y-104844411D02*
X139670180Y-104939649D01*
X139670180Y-104939649D02*
X139670180Y-105082506D01*
X139670180Y-105082506D02*
X139622561Y-105225363D01*
X139622561Y-105225363D02*
X139527323Y-105320601D01*
X139527323Y-105320601D02*
X139432085Y-105368220D01*
X139432085Y-105368220D02*
X139241609Y-105415839D01*
X139241609Y-105415839D02*
X139098752Y-105415839D01*
X139098752Y-105415839D02*
X138908276Y-105368220D01*
X138908276Y-105368220D02*
X138813038Y-105320601D01*
X138813038Y-105320601D02*
X138717800Y-105225363D01*
X138717800Y-105225363D02*
X138670180Y-105082506D01*
X138670180Y-105082506D02*
X138670180Y-104987268D01*
X138670180Y-104987268D02*
X138717800Y-104844411D01*
X138717800Y-104844411D02*
X138765419Y-104796792D01*
X138765419Y-104796792D02*
X139098752Y-104796792D01*
X139098752Y-104796792D02*
X139098752Y-104987268D01*
X138670180Y-104368220D02*
X139670180Y-104368220D01*
X139670180Y-104368220D02*
X139670180Y-103987268D01*
X139670180Y-103987268D02*
X139622561Y-103892030D01*
X139622561Y-103892030D02*
X139574942Y-103844411D01*
X139574942Y-103844411D02*
X139479704Y-103796792D01*
X139479704Y-103796792D02*
X139336847Y-103796792D01*
X139336847Y-103796792D02*
X139241609Y-103844411D01*
X139241609Y-103844411D02*
X139193990Y-103892030D01*
X139193990Y-103892030D02*
X139146371Y-103987268D01*
X139146371Y-103987268D02*
X139146371Y-104368220D01*
X138717800Y-103415839D02*
X138670180Y-103272982D01*
X138670180Y-103272982D02*
X138670180Y-103034887D01*
X138670180Y-103034887D02*
X138717800Y-102939649D01*
X138717800Y-102939649D02*
X138765419Y-102892030D01*
X138765419Y-102892030D02*
X138860657Y-102844411D01*
X138860657Y-102844411D02*
X138955895Y-102844411D01*
X138955895Y-102844411D02*
X139051133Y-102892030D01*
X139051133Y-102892030D02*
X139098752Y-102939649D01*
X139098752Y-102939649D02*
X139146371Y-103034887D01*
X139146371Y-103034887D02*
X139193990Y-103225363D01*
X139193990Y-103225363D02*
X139241609Y-103320601D01*
X139241609Y-103320601D02*
X139289228Y-103368220D01*
X139289228Y-103368220D02*
X139384466Y-103415839D01*
X139384466Y-103415839D02*
X139479704Y-103415839D01*
X139479704Y-103415839D02*
X139574942Y-103368220D01*
X139574942Y-103368220D02*
X139622561Y-103320601D01*
X139622561Y-103320601D02*
X139670180Y-103225363D01*
X139670180Y-103225363D02*
X139670180Y-102987268D01*
X139670180Y-102987268D02*
X139622561Y-102844411D01*
X169229411Y-92122438D02*
X169324649Y-92074819D01*
X169324649Y-92074819D02*
X169467506Y-92074819D01*
X169467506Y-92074819D02*
X169610363Y-92122438D01*
X169610363Y-92122438D02*
X169705601Y-92217676D01*
X169705601Y-92217676D02*
X169753220Y-92312914D01*
X169753220Y-92312914D02*
X169800839Y-92503390D01*
X169800839Y-92503390D02*
X169800839Y-92646247D01*
X169800839Y-92646247D02*
X169753220Y-92836723D01*
X169753220Y-92836723D02*
X169705601Y-92931961D01*
X169705601Y-92931961D02*
X169610363Y-93027200D01*
X169610363Y-93027200D02*
X169467506Y-93074819D01*
X169467506Y-93074819D02*
X169372268Y-93074819D01*
X169372268Y-93074819D02*
X169229411Y-93027200D01*
X169229411Y-93027200D02*
X169181792Y-92979580D01*
X169181792Y-92979580D02*
X169181792Y-92646247D01*
X169181792Y-92646247D02*
X169372268Y-92646247D01*
X168753220Y-93074819D02*
X168753220Y-92074819D01*
X168753220Y-92074819D02*
X168181792Y-93074819D01*
X168181792Y-93074819D02*
X168181792Y-92074819D01*
X167705601Y-93074819D02*
X167705601Y-92074819D01*
X167705601Y-92074819D02*
X167467506Y-92074819D01*
X167467506Y-92074819D02*
X167324649Y-92122438D01*
X167324649Y-92122438D02*
X167229411Y-92217676D01*
X167229411Y-92217676D02*
X167181792Y-92312914D01*
X167181792Y-92312914D02*
X167134173Y-92503390D01*
X167134173Y-92503390D02*
X167134173Y-92646247D01*
X167134173Y-92646247D02*
X167181792Y-92836723D01*
X167181792Y-92836723D02*
X167229411Y-92931961D01*
X167229411Y-92931961D02*
X167324649Y-93027200D01*
X167324649Y-93027200D02*
X167467506Y-93074819D01*
X167467506Y-93074819D02*
X167705601Y-93074819D01*
X163059819Y-98163207D02*
X162583628Y-97829874D01*
X163059819Y-97591779D02*
X162059819Y-97591779D01*
X162059819Y-97591779D02*
X162059819Y-97972731D01*
X162059819Y-97972731D02*
X162107438Y-98067969D01*
X162107438Y-98067969D02*
X162155057Y-98115588D01*
X162155057Y-98115588D02*
X162250295Y-98163207D01*
X162250295Y-98163207D02*
X162393152Y-98163207D01*
X162393152Y-98163207D02*
X162488390Y-98115588D01*
X162488390Y-98115588D02*
X162536009Y-98067969D01*
X162536009Y-98067969D02*
X162583628Y-97972731D01*
X162583628Y-97972731D02*
X162583628Y-97591779D01*
X162059819Y-98496541D02*
X163059819Y-99163207D01*
X162059819Y-99163207D02*
X163059819Y-98496541D01*
X161030839Y-102307200D02*
X160887982Y-102354819D01*
X160887982Y-102354819D02*
X160649887Y-102354819D01*
X160649887Y-102354819D02*
X160554649Y-102307200D01*
X160554649Y-102307200D02*
X160507030Y-102259580D01*
X160507030Y-102259580D02*
X160459411Y-102164342D01*
X160459411Y-102164342D02*
X160459411Y-102069104D01*
X160459411Y-102069104D02*
X160507030Y-101973866D01*
X160507030Y-101973866D02*
X160554649Y-101926247D01*
X160554649Y-101926247D02*
X160649887Y-101878628D01*
X160649887Y-101878628D02*
X160840363Y-101831009D01*
X160840363Y-101831009D02*
X160935601Y-101783390D01*
X160935601Y-101783390D02*
X160983220Y-101735771D01*
X160983220Y-101735771D02*
X161030839Y-101640533D01*
X161030839Y-101640533D02*
X161030839Y-101545295D01*
X161030839Y-101545295D02*
X160983220Y-101450057D01*
X160983220Y-101450057D02*
X160935601Y-101402438D01*
X160935601Y-101402438D02*
X160840363Y-101354819D01*
X160840363Y-101354819D02*
X160602268Y-101354819D01*
X160602268Y-101354819D02*
X160459411Y-101402438D01*
X159459411Y-102259580D02*
X159507030Y-102307200D01*
X159507030Y-102307200D02*
X159649887Y-102354819D01*
X159649887Y-102354819D02*
X159745125Y-102354819D01*
X159745125Y-102354819D02*
X159887982Y-102307200D01*
X159887982Y-102307200D02*
X159983220Y-102211961D01*
X159983220Y-102211961D02*
X160030839Y-102116723D01*
X160030839Y-102116723D02*
X160078458Y-101926247D01*
X160078458Y-101926247D02*
X160078458Y-101783390D01*
X160078458Y-101783390D02*
X160030839Y-101592914D01*
X160030839Y-101592914D02*
X159983220Y-101497676D01*
X159983220Y-101497676D02*
X159887982Y-101402438D01*
X159887982Y-101402438D02*
X159745125Y-101354819D01*
X159745125Y-101354819D02*
X159649887Y-101354819D01*
X159649887Y-101354819D02*
X159507030Y-101402438D01*
X159507030Y-101402438D02*
X159459411Y-101450057D01*
X158554649Y-102354819D02*
X159030839Y-102354819D01*
X159030839Y-102354819D02*
X159030839Y-101354819D01*
X140778220Y-111799819D02*
X140778220Y-110799819D01*
X140778220Y-110799819D02*
X140397268Y-110799819D01*
X140397268Y-110799819D02*
X140302030Y-110847438D01*
X140302030Y-110847438D02*
X140254411Y-110895057D01*
X140254411Y-110895057D02*
X140206792Y-110990295D01*
X140206792Y-110990295D02*
X140206792Y-111133152D01*
X140206792Y-111133152D02*
X140254411Y-111228390D01*
X140254411Y-111228390D02*
X140302030Y-111276009D01*
X140302030Y-111276009D02*
X140397268Y-111323628D01*
X140397268Y-111323628D02*
X140778220Y-111323628D01*
X139873458Y-110799819D02*
X139635363Y-111799819D01*
X139635363Y-111799819D02*
X139444887Y-111085533D01*
X139444887Y-111085533D02*
X139254411Y-111799819D01*
X139254411Y-111799819D02*
X139016316Y-110799819D01*
X138635363Y-111799819D02*
X138635363Y-110799819D01*
X138635363Y-110799819D02*
X138302030Y-111514104D01*
X138302030Y-111514104D02*
X137968697Y-110799819D01*
X137968697Y-110799819D02*
X137968697Y-111799819D01*
X137730602Y-111895057D02*
X136968697Y-111895057D01*
X136778220Y-110895057D02*
X136730601Y-110847438D01*
X136730601Y-110847438D02*
X136635363Y-110799819D01*
X136635363Y-110799819D02*
X136397268Y-110799819D01*
X136397268Y-110799819D02*
X136302030Y-110847438D01*
X136302030Y-110847438D02*
X136254411Y-110895057D01*
X136254411Y-110895057D02*
X136206792Y-110990295D01*
X136206792Y-110990295D02*
X136206792Y-111085533D01*
X136206792Y-111085533D02*
X136254411Y-111228390D01*
X136254411Y-111228390D02*
X136825839Y-111799819D01*
X136825839Y-111799819D02*
X136206792Y-111799819D01*
X144377030Y-87824819D02*
X144853220Y-87824819D01*
X144853220Y-87824819D02*
X144853220Y-86824819D01*
X144043696Y-87301009D02*
X143710363Y-87301009D01*
X143567506Y-87824819D02*
X144043696Y-87824819D01*
X144043696Y-87824819D02*
X144043696Y-86824819D01*
X144043696Y-86824819D02*
X143567506Y-86824819D01*
X143138934Y-87824819D02*
X143138934Y-86824819D01*
X143138934Y-86824819D02*
X142900839Y-86824819D01*
X142900839Y-86824819D02*
X142757982Y-86872438D01*
X142757982Y-86872438D02*
X142662744Y-86967676D01*
X142662744Y-86967676D02*
X142615125Y-87062914D01*
X142615125Y-87062914D02*
X142567506Y-87253390D01*
X142567506Y-87253390D02*
X142567506Y-87396247D01*
X142567506Y-87396247D02*
X142615125Y-87586723D01*
X142615125Y-87586723D02*
X142662744Y-87681961D01*
X142662744Y-87681961D02*
X142757982Y-87777200D01*
X142757982Y-87777200D02*
X142900839Y-87824819D01*
X142900839Y-87824819D02*
X143138934Y-87824819D01*
X160303220Y-110424819D02*
X160303220Y-109424819D01*
X160303220Y-109424819D02*
X159922268Y-109424819D01*
X159922268Y-109424819D02*
X159827030Y-109472438D01*
X159827030Y-109472438D02*
X159779411Y-109520057D01*
X159779411Y-109520057D02*
X159731792Y-109615295D01*
X159731792Y-109615295D02*
X159731792Y-109758152D01*
X159731792Y-109758152D02*
X159779411Y-109853390D01*
X159779411Y-109853390D02*
X159827030Y-109901009D01*
X159827030Y-109901009D02*
X159922268Y-109948628D01*
X159922268Y-109948628D02*
X160303220Y-109948628D01*
X159398458Y-109424819D02*
X159160363Y-110424819D01*
X159160363Y-110424819D02*
X158969887Y-109710533D01*
X158969887Y-109710533D02*
X158779411Y-110424819D01*
X158779411Y-110424819D02*
X158541316Y-109424819D01*
X158160363Y-110424819D02*
X158160363Y-109424819D01*
X158160363Y-109424819D02*
X157827030Y-110139104D01*
X157827030Y-110139104D02*
X157493697Y-109424819D01*
X157493697Y-109424819D02*
X157493697Y-110424819D01*
X157255602Y-110520057D02*
X156493697Y-110520057D01*
X155731792Y-110424819D02*
X156303220Y-110424819D01*
X156017506Y-110424819D02*
X156017506Y-109424819D01*
X156017506Y-109424819D02*
X156112744Y-109567676D01*
X156112744Y-109567676D02*
X156207982Y-109662914D01*
X156207982Y-109662914D02*
X156303220Y-109710533D01*
X160046077Y-113974819D02*
X159712744Y-114974819D01*
X159712744Y-114974819D02*
X159379411Y-113974819D01*
X159046077Y-114974819D02*
X159046077Y-113974819D01*
X158569887Y-114974819D02*
X158569887Y-113974819D01*
X158569887Y-113974819D02*
X158331792Y-113974819D01*
X158331792Y-113974819D02*
X158188935Y-114022438D01*
X158188935Y-114022438D02*
X158093697Y-114117676D01*
X158093697Y-114117676D02*
X158046078Y-114212914D01*
X158046078Y-114212914D02*
X157998459Y-114403390D01*
X157998459Y-114403390D02*
X157998459Y-114546247D01*
X157998459Y-114546247D02*
X158046078Y-114736723D01*
X158046078Y-114736723D02*
X158093697Y-114831961D01*
X158093697Y-114831961D02*
X158188935Y-114927200D01*
X158188935Y-114927200D02*
X158331792Y-114974819D01*
X158331792Y-114974819D02*
X158569887Y-114974819D01*
X157427030Y-114974819D02*
X157522268Y-114927200D01*
X157522268Y-114927200D02*
X157569887Y-114879580D01*
X157569887Y-114879580D02*
X157617506Y-114784342D01*
X157617506Y-114784342D02*
X157617506Y-114498628D01*
X157617506Y-114498628D02*
X157569887Y-114403390D01*
X157569887Y-114403390D02*
X157522268Y-114355771D01*
X157522268Y-114355771D02*
X157427030Y-114308152D01*
X157427030Y-114308152D02*
X157284173Y-114308152D01*
X157284173Y-114308152D02*
X157188935Y-114355771D01*
X157188935Y-114355771D02*
X157141316Y-114403390D01*
X157141316Y-114403390D02*
X157093697Y-114498628D01*
X157093697Y-114498628D02*
X157093697Y-114784342D01*
X157093697Y-114784342D02*
X157141316Y-114879580D01*
X157141316Y-114879580D02*
X157188935Y-114927200D01*
X157188935Y-114927200D02*
X157284173Y-114974819D01*
X157284173Y-114974819D02*
X157427030Y-114974819D01*
X156236554Y-114308152D02*
X156236554Y-114974819D01*
X156665125Y-114308152D02*
X156665125Y-114831961D01*
X156665125Y-114831961D02*
X156617506Y-114927200D01*
X156617506Y-114927200D02*
X156522268Y-114974819D01*
X156522268Y-114974819D02*
X156379411Y-114974819D01*
X156379411Y-114974819D02*
X156284173Y-114927200D01*
X156284173Y-114927200D02*
X156236554Y-114879580D01*
X155903220Y-114308152D02*
X155522268Y-114308152D01*
X155760363Y-113974819D02*
X155760363Y-114831961D01*
X155760363Y-114831961D02*
X155712744Y-114927200D01*
X155712744Y-114927200D02*
X155617506Y-114974819D01*
X155617506Y-114974819D02*
X155522268Y-114974819D01*
X149296077Y-113974819D02*
X148962744Y-114974819D01*
X148962744Y-114974819D02*
X148629411Y-113974819D01*
X148296077Y-114974819D02*
X148296077Y-113974819D01*
X147819887Y-114974819D02*
X147819887Y-113974819D01*
X147819887Y-113974819D02*
X147581792Y-113974819D01*
X147581792Y-113974819D02*
X147438935Y-114022438D01*
X147438935Y-114022438D02*
X147343697Y-114117676D01*
X147343697Y-114117676D02*
X147296078Y-114212914D01*
X147296078Y-114212914D02*
X147248459Y-114403390D01*
X147248459Y-114403390D02*
X147248459Y-114546247D01*
X147248459Y-114546247D02*
X147296078Y-114736723D01*
X147296078Y-114736723D02*
X147343697Y-114831961D01*
X147343697Y-114831961D02*
X147438935Y-114927200D01*
X147438935Y-114927200D02*
X147581792Y-114974819D01*
X147581792Y-114974819D02*
X147819887Y-114974819D01*
X146819887Y-114974819D02*
X146819887Y-114308152D01*
X146819887Y-113974819D02*
X146867506Y-114022438D01*
X146867506Y-114022438D02*
X146819887Y-114070057D01*
X146819887Y-114070057D02*
X146772268Y-114022438D01*
X146772268Y-114022438D02*
X146819887Y-113974819D01*
X146819887Y-113974819D02*
X146819887Y-114070057D01*
X146343697Y-114308152D02*
X146343697Y-114974819D01*
X146343697Y-114403390D02*
X146296078Y-114355771D01*
X146296078Y-114355771D02*
X146200840Y-114308152D01*
X146200840Y-114308152D02*
X146057983Y-114308152D01*
X146057983Y-114308152D02*
X145962745Y-114355771D01*
X145962745Y-114355771D02*
X145915126Y-114451009D01*
X145915126Y-114451009D02*
X145915126Y-114974819D01*
X142754411Y-106622438D02*
X142849649Y-106574819D01*
X142849649Y-106574819D02*
X142992506Y-106574819D01*
X142992506Y-106574819D02*
X143135363Y-106622438D01*
X143135363Y-106622438D02*
X143230601Y-106717676D01*
X143230601Y-106717676D02*
X143278220Y-106812914D01*
X143278220Y-106812914D02*
X143325839Y-107003390D01*
X143325839Y-107003390D02*
X143325839Y-107146247D01*
X143325839Y-107146247D02*
X143278220Y-107336723D01*
X143278220Y-107336723D02*
X143230601Y-107431961D01*
X143230601Y-107431961D02*
X143135363Y-107527200D01*
X143135363Y-107527200D02*
X142992506Y-107574819D01*
X142992506Y-107574819D02*
X142897268Y-107574819D01*
X142897268Y-107574819D02*
X142754411Y-107527200D01*
X142754411Y-107527200D02*
X142706792Y-107479580D01*
X142706792Y-107479580D02*
X142706792Y-107146247D01*
X142706792Y-107146247D02*
X142897268Y-107146247D01*
X142278220Y-107574819D02*
X142278220Y-106574819D01*
X142278220Y-106574819D02*
X141706792Y-107574819D01*
X141706792Y-107574819D02*
X141706792Y-106574819D01*
X141230601Y-107574819D02*
X141230601Y-106574819D01*
X141230601Y-106574819D02*
X140992506Y-106574819D01*
X140992506Y-106574819D02*
X140849649Y-106622438D01*
X140849649Y-106622438D02*
X140754411Y-106717676D01*
X140754411Y-106717676D02*
X140706792Y-106812914D01*
X140706792Y-106812914D02*
X140659173Y-107003390D01*
X140659173Y-107003390D02*
X140659173Y-107146247D01*
X140659173Y-107146247D02*
X140706792Y-107336723D01*
X140706792Y-107336723D02*
X140754411Y-107431961D01*
X140754411Y-107431961D02*
X140849649Y-107527200D01*
X140849649Y-107527200D02*
X140992506Y-107574819D01*
X140992506Y-107574819D02*
X141230601Y-107574819D01*
X162077030Y-88634819D02*
X162553220Y-88634819D01*
X162553220Y-88634819D02*
X162600839Y-89111009D01*
X162600839Y-89111009D02*
X162553220Y-89063390D01*
X162553220Y-89063390D02*
X162457982Y-89015771D01*
X162457982Y-89015771D02*
X162219887Y-89015771D01*
X162219887Y-89015771D02*
X162124649Y-89063390D01*
X162124649Y-89063390D02*
X162077030Y-89111009D01*
X162077030Y-89111009D02*
X162029411Y-89206247D01*
X162029411Y-89206247D02*
X162029411Y-89444342D01*
X162029411Y-89444342D02*
X162077030Y-89539580D01*
X162077030Y-89539580D02*
X162124649Y-89587200D01*
X162124649Y-89587200D02*
X162219887Y-89634819D01*
X162219887Y-89634819D02*
X162457982Y-89634819D01*
X162457982Y-89634819D02*
X162553220Y-89587200D01*
X162553220Y-89587200D02*
X162600839Y-89539580D01*
X161743696Y-88634819D02*
X161410363Y-89634819D01*
X161410363Y-89634819D02*
X161077030Y-88634819D01*
X164007030Y-90194819D02*
X164483220Y-90194819D01*
X164483220Y-90194819D02*
X164530839Y-90671009D01*
X164530839Y-90671009D02*
X164483220Y-90623390D01*
X164483220Y-90623390D02*
X164387982Y-90575771D01*
X164387982Y-90575771D02*
X164149887Y-90575771D01*
X164149887Y-90575771D02*
X164054649Y-90623390D01*
X164054649Y-90623390D02*
X164007030Y-90671009D01*
X164007030Y-90671009D02*
X163959411Y-90766247D01*
X163959411Y-90766247D02*
X163959411Y-91004342D01*
X163959411Y-91004342D02*
X164007030Y-91099580D01*
X164007030Y-91099580D02*
X164054649Y-91147200D01*
X164054649Y-91147200D02*
X164149887Y-91194819D01*
X164149887Y-91194819D02*
X164387982Y-91194819D01*
X164387982Y-91194819D02*
X164483220Y-91147200D01*
X164483220Y-91147200D02*
X164530839Y-91099580D01*
X163673696Y-90194819D02*
X163340363Y-91194819D01*
X163340363Y-91194819D02*
X163007030Y-90194819D01*
X139927030Y-114249819D02*
X140403220Y-114249819D01*
X140403220Y-114249819D02*
X140450839Y-114726009D01*
X140450839Y-114726009D02*
X140403220Y-114678390D01*
X140403220Y-114678390D02*
X140307982Y-114630771D01*
X140307982Y-114630771D02*
X140069887Y-114630771D01*
X140069887Y-114630771D02*
X139974649Y-114678390D01*
X139974649Y-114678390D02*
X139927030Y-114726009D01*
X139927030Y-114726009D02*
X139879411Y-114821247D01*
X139879411Y-114821247D02*
X139879411Y-115059342D01*
X139879411Y-115059342D02*
X139927030Y-115154580D01*
X139927030Y-115154580D02*
X139974649Y-115202200D01*
X139974649Y-115202200D02*
X140069887Y-115249819D01*
X140069887Y-115249819D02*
X140307982Y-115249819D01*
X140307982Y-115249819D02*
X140403220Y-115202200D01*
X140403220Y-115202200D02*
X140450839Y-115154580D01*
X139593696Y-114249819D02*
X139260363Y-115249819D01*
X139260363Y-115249819D02*
X138927030Y-114249819D01*
X141879411Y-118672438D02*
X141974649Y-118624819D01*
X141974649Y-118624819D02*
X142117506Y-118624819D01*
X142117506Y-118624819D02*
X142260363Y-118672438D01*
X142260363Y-118672438D02*
X142355601Y-118767676D01*
X142355601Y-118767676D02*
X142403220Y-118862914D01*
X142403220Y-118862914D02*
X142450839Y-119053390D01*
X142450839Y-119053390D02*
X142450839Y-119196247D01*
X142450839Y-119196247D02*
X142403220Y-119386723D01*
X142403220Y-119386723D02*
X142355601Y-119481961D01*
X142355601Y-119481961D02*
X142260363Y-119577200D01*
X142260363Y-119577200D02*
X142117506Y-119624819D01*
X142117506Y-119624819D02*
X142022268Y-119624819D01*
X142022268Y-119624819D02*
X141879411Y-119577200D01*
X141879411Y-119577200D02*
X141831792Y-119529580D01*
X141831792Y-119529580D02*
X141831792Y-119196247D01*
X141831792Y-119196247D02*
X142022268Y-119196247D01*
X141403220Y-119624819D02*
X141403220Y-118624819D01*
X141403220Y-118624819D02*
X140831792Y-119624819D01*
X140831792Y-119624819D02*
X140831792Y-118624819D01*
X140355601Y-119624819D02*
X140355601Y-118624819D01*
X140355601Y-118624819D02*
X140117506Y-118624819D01*
X140117506Y-118624819D02*
X139974649Y-118672438D01*
X139974649Y-118672438D02*
X139879411Y-118767676D01*
X139879411Y-118767676D02*
X139831792Y-118862914D01*
X139831792Y-118862914D02*
X139784173Y-119053390D01*
X139784173Y-119053390D02*
X139784173Y-119196247D01*
X139784173Y-119196247D02*
X139831792Y-119386723D01*
X139831792Y-119386723D02*
X139879411Y-119481961D01*
X139879411Y-119481961D02*
X139974649Y-119577200D01*
X139974649Y-119577200D02*
X140117506Y-119624819D01*
X140117506Y-119624819D02*
X140355601Y-119624819D01*
X155123333Y-86709819D02*
X155599523Y-86709819D01*
X155599523Y-86709819D02*
X155647142Y-87186009D01*
X155647142Y-87186009D02*
X155599523Y-87138390D01*
X155599523Y-87138390D02*
X155504285Y-87090771D01*
X155504285Y-87090771D02*
X155266190Y-87090771D01*
X155266190Y-87090771D02*
X155170952Y-87138390D01*
X155170952Y-87138390D02*
X155123333Y-87186009D01*
X155123333Y-87186009D02*
X155075714Y-87281247D01*
X155075714Y-87281247D02*
X155075714Y-87519342D01*
X155075714Y-87519342D02*
X155123333Y-87614580D01*
X155123333Y-87614580D02*
X155170952Y-87662200D01*
X155170952Y-87662200D02*
X155266190Y-87709819D01*
X155266190Y-87709819D02*
X155504285Y-87709819D01*
X155504285Y-87709819D02*
X155599523Y-87662200D01*
X155599523Y-87662200D02*
X155647142Y-87614580D01*
X154789999Y-86709819D02*
X154456666Y-87709819D01*
X154456666Y-87709819D02*
X154123333Y-86709819D01*
X154028095Y-87805057D02*
X153266190Y-87805057D01*
X153028094Y-87709819D02*
X153028094Y-86709819D01*
X152551904Y-87709819D02*
X152551904Y-86709819D01*
X152551904Y-86709819D02*
X151980476Y-87709819D01*
X151980476Y-87709819D02*
X151980476Y-86709819D01*
X160233333Y-115539819D02*
X160233333Y-116254104D01*
X160233333Y-116254104D02*
X160280952Y-116396961D01*
X160280952Y-116396961D02*
X160376190Y-116492200D01*
X160376190Y-116492200D02*
X160519047Y-116539819D01*
X160519047Y-116539819D02*
X160614285Y-116539819D01*
X159328571Y-115873152D02*
X159328571Y-116539819D01*
X159566666Y-115492200D02*
X159804761Y-116206485D01*
X159804761Y-116206485D02*
X159185714Y-116206485D01*
X138553333Y-97609819D02*
X138553333Y-98324104D01*
X138553333Y-98324104D02*
X138600952Y-98466961D01*
X138600952Y-98466961D02*
X138696190Y-98562200D01*
X138696190Y-98562200D02*
X138839047Y-98609819D01*
X138839047Y-98609819D02*
X138934285Y-98609819D01*
X137934285Y-98038390D02*
X138029523Y-97990771D01*
X138029523Y-97990771D02*
X138077142Y-97943152D01*
X138077142Y-97943152D02*
X138124761Y-97847914D01*
X138124761Y-97847914D02*
X138124761Y-97800295D01*
X138124761Y-97800295D02*
X138077142Y-97705057D01*
X138077142Y-97705057D02*
X138029523Y-97657438D01*
X138029523Y-97657438D02*
X137934285Y-97609819D01*
X137934285Y-97609819D02*
X137743809Y-97609819D01*
X137743809Y-97609819D02*
X137648571Y-97657438D01*
X137648571Y-97657438D02*
X137600952Y-97705057D01*
X137600952Y-97705057D02*
X137553333Y-97800295D01*
X137553333Y-97800295D02*
X137553333Y-97847914D01*
X137553333Y-97847914D02*
X137600952Y-97943152D01*
X137600952Y-97943152D02*
X137648571Y-97990771D01*
X137648571Y-97990771D02*
X137743809Y-98038390D01*
X137743809Y-98038390D02*
X137934285Y-98038390D01*
X137934285Y-98038390D02*
X138029523Y-98086009D01*
X138029523Y-98086009D02*
X138077142Y-98133628D01*
X138077142Y-98133628D02*
X138124761Y-98228866D01*
X138124761Y-98228866D02*
X138124761Y-98419342D01*
X138124761Y-98419342D02*
X138077142Y-98514580D01*
X138077142Y-98514580D02*
X138029523Y-98562200D01*
X138029523Y-98562200D02*
X137934285Y-98609819D01*
X137934285Y-98609819D02*
X137743809Y-98609819D01*
X137743809Y-98609819D02*
X137648571Y-98562200D01*
X137648571Y-98562200D02*
X137600952Y-98514580D01*
X137600952Y-98514580D02*
X137553333Y-98419342D01*
X137553333Y-98419342D02*
X137553333Y-98228866D01*
X137553333Y-98228866D02*
X137600952Y-98133628D01*
X137600952Y-98133628D02*
X137648571Y-98086009D01*
X137648571Y-98086009D02*
X137743809Y-98038390D01*
X145713333Y-115509819D02*
X145713333Y-116224104D01*
X145713333Y-116224104D02*
X145760952Y-116366961D01*
X145760952Y-116366961D02*
X145856190Y-116462200D01*
X145856190Y-116462200D02*
X145999047Y-116509819D01*
X145999047Y-116509819D02*
X146094285Y-116509819D01*
X144713333Y-116509819D02*
X145284761Y-116509819D01*
X144999047Y-116509819D02*
X144999047Y-115509819D01*
X144999047Y-115509819D02*
X145094285Y-115652676D01*
X145094285Y-115652676D02*
X145189523Y-115747914D01*
X145189523Y-115747914D02*
X145284761Y-115795533D01*
X152473333Y-91956009D02*
X152806666Y-91956009D01*
X152806666Y-92479819D02*
X152806666Y-91479819D01*
X152806666Y-91479819D02*
X152330476Y-91479819D01*
X151616190Y-91956009D02*
X151473333Y-92003628D01*
X151473333Y-92003628D02*
X151425714Y-92051247D01*
X151425714Y-92051247D02*
X151378095Y-92146485D01*
X151378095Y-92146485D02*
X151378095Y-92289342D01*
X151378095Y-92289342D02*
X151425714Y-92384580D01*
X151425714Y-92384580D02*
X151473333Y-92432200D01*
X151473333Y-92432200D02*
X151568571Y-92479819D01*
X151568571Y-92479819D02*
X151949523Y-92479819D01*
X151949523Y-92479819D02*
X151949523Y-91479819D01*
X151949523Y-91479819D02*
X151616190Y-91479819D01*
X151616190Y-91479819D02*
X151520952Y-91527438D01*
X151520952Y-91527438D02*
X151473333Y-91575057D01*
X151473333Y-91575057D02*
X151425714Y-91670295D01*
X151425714Y-91670295D02*
X151425714Y-91765533D01*
X151425714Y-91765533D02*
X151473333Y-91860771D01*
X151473333Y-91860771D02*
X151520952Y-91908390D01*
X151520952Y-91908390D02*
X151616190Y-91956009D01*
X151616190Y-91956009D02*
X151949523Y-91956009D01*
X150425714Y-92479819D02*
X150997142Y-92479819D01*
X150711428Y-92479819D02*
X150711428Y-91479819D01*
X150711428Y-91479819D02*
X150806666Y-91622676D01*
X150806666Y-91622676D02*
X150901904Y-91717914D01*
X150901904Y-91717914D02*
X150997142Y-91765533D01*
X141473333Y-85289819D02*
X141473333Y-86004104D01*
X141473333Y-86004104D02*
X141520952Y-86146961D01*
X141520952Y-86146961D02*
X141616190Y-86242200D01*
X141616190Y-86242200D02*
X141759047Y-86289819D01*
X141759047Y-86289819D02*
X141854285Y-86289819D01*
X140520952Y-85289819D02*
X140997142Y-85289819D01*
X140997142Y-85289819D02*
X141044761Y-85766009D01*
X141044761Y-85766009D02*
X140997142Y-85718390D01*
X140997142Y-85718390D02*
X140901904Y-85670771D01*
X140901904Y-85670771D02*
X140663809Y-85670771D01*
X140663809Y-85670771D02*
X140568571Y-85718390D01*
X140568571Y-85718390D02*
X140520952Y-85766009D01*
X140520952Y-85766009D02*
X140473333Y-85861247D01*
X140473333Y-85861247D02*
X140473333Y-86099342D01*
X140473333Y-86099342D02*
X140520952Y-86194580D01*
X140520952Y-86194580D02*
X140568571Y-86242200D01*
X140568571Y-86242200D02*
X140663809Y-86289819D01*
X140663809Y-86289819D02*
X140901904Y-86289819D01*
X140901904Y-86289819D02*
X140997142Y-86242200D01*
X140997142Y-86242200D02*
X141044761Y-86194580D01*
X150301904Y-86757438D02*
X150397142Y-86709819D01*
X150397142Y-86709819D02*
X150539999Y-86709819D01*
X150539999Y-86709819D02*
X150682856Y-86757438D01*
X150682856Y-86757438D02*
X150778094Y-86852676D01*
X150778094Y-86852676D02*
X150825713Y-86947914D01*
X150825713Y-86947914D02*
X150873332Y-87138390D01*
X150873332Y-87138390D02*
X150873332Y-87281247D01*
X150873332Y-87281247D02*
X150825713Y-87471723D01*
X150825713Y-87471723D02*
X150778094Y-87566961D01*
X150778094Y-87566961D02*
X150682856Y-87662200D01*
X150682856Y-87662200D02*
X150539999Y-87709819D01*
X150539999Y-87709819D02*
X150444761Y-87709819D01*
X150444761Y-87709819D02*
X150301904Y-87662200D01*
X150301904Y-87662200D02*
X150254285Y-87614580D01*
X150254285Y-87614580D02*
X150254285Y-87281247D01*
X150254285Y-87281247D02*
X150444761Y-87281247D01*
X149825713Y-87709819D02*
X149825713Y-86709819D01*
X149825713Y-86709819D02*
X149254285Y-87709819D01*
X149254285Y-87709819D02*
X149254285Y-86709819D01*
X148778094Y-87709819D02*
X148778094Y-86709819D01*
X148778094Y-86709819D02*
X148539999Y-86709819D01*
X148539999Y-86709819D02*
X148397142Y-86757438D01*
X148397142Y-86757438D02*
X148301904Y-86852676D01*
X148301904Y-86852676D02*
X148254285Y-86947914D01*
X148254285Y-86947914D02*
X148206666Y-87138390D01*
X148206666Y-87138390D02*
X148206666Y-87281247D01*
X148206666Y-87281247D02*
X148254285Y-87471723D01*
X148254285Y-87471723D02*
X148301904Y-87566961D01*
X148301904Y-87566961D02*
X148397142Y-87662200D01*
X148397142Y-87662200D02*
X148539999Y-87709819D01*
X148539999Y-87709819D02*
X148778094Y-87709819D01*
X169673333Y-103599819D02*
X169673333Y-104314104D01*
X169673333Y-104314104D02*
X169720952Y-104456961D01*
X169720952Y-104456961D02*
X169816190Y-104552200D01*
X169816190Y-104552200D02*
X169959047Y-104599819D01*
X169959047Y-104599819D02*
X170054285Y-104599819D01*
X169244761Y-103695057D02*
X169197142Y-103647438D01*
X169197142Y-103647438D02*
X169101904Y-103599819D01*
X169101904Y-103599819D02*
X168863809Y-103599819D01*
X168863809Y-103599819D02*
X168768571Y-103647438D01*
X168768571Y-103647438D02*
X168720952Y-103695057D01*
X168720952Y-103695057D02*
X168673333Y-103790295D01*
X168673333Y-103790295D02*
X168673333Y-103885533D01*
X168673333Y-103885533D02*
X168720952Y-104028390D01*
X168720952Y-104028390D02*
X169292380Y-104599819D01*
X169292380Y-104599819D02*
X168673333Y-104599819D01*
D11*
%TO.C,R11*%
X148030000Y-102758641D02*
X148030000Y-102451359D01*
X148790000Y-102758641D02*
X148790000Y-102451359D01*
%TO.C,PAD5*%
X152540000Y-84305000D02*
X152540000Y-86205000D01*
X152540000Y-86205000D02*
X154440000Y-86205000D01*
X154440000Y-84305000D02*
X152540000Y-84305000D01*
X154440000Y-86205000D02*
X154440000Y-84305000D01*
%TO.C,R17*%
X151520000Y-98728641D02*
X151520000Y-98421359D01*
X152280000Y-98728641D02*
X152280000Y-98421359D01*
%TO.C,J4*%
X153310000Y-116825000D02*
X154210000Y-116825000D01*
X153310000Y-117325000D02*
X153310000Y-117325000D01*
X153310000Y-117325000D02*
X153810000Y-117325000D01*
X153310000Y-118025000D02*
X153310000Y-118025000D01*
X153310000Y-118025000D02*
X153810000Y-118025000D01*
X153310000Y-119175000D02*
X153310000Y-116825000D01*
X153810000Y-116825000D02*
X153810000Y-116825000D01*
X153810000Y-116825000D02*
X153810000Y-118025000D01*
X153810000Y-117325000D02*
X153310000Y-117325000D01*
X153810000Y-117325000D02*
X153810000Y-117325000D01*
X153810000Y-118025000D02*
X153310000Y-118025000D01*
X153810000Y-118025000D02*
X153810000Y-116825000D01*
X153810000Y-118025000D02*
X153810000Y-118025000D01*
X153810000Y-118025000D02*
X153810000Y-118025000D01*
X158210000Y-121075000D02*
X154410000Y-121075000D01*
X158810000Y-116825000D02*
X158810000Y-116825000D01*
X158810000Y-116825000D02*
X158810000Y-118025000D01*
X158810000Y-117325000D02*
X158810000Y-117325000D01*
X158810000Y-117325000D02*
X159310000Y-117325000D01*
X158810000Y-118025000D02*
X158810000Y-116825000D01*
X158810000Y-118025000D02*
X158810000Y-118025000D01*
X158810000Y-118025000D02*
X158810000Y-118025000D01*
X158810000Y-118025000D02*
X159310000Y-118025000D01*
X159310000Y-116825000D02*
X158410000Y-116825000D01*
X159310000Y-117325000D02*
X158810000Y-117325000D01*
X159310000Y-117325000D02*
X159310000Y-117325000D01*
X159310000Y-118025000D02*
X158810000Y-118025000D01*
X159310000Y-118025000D02*
X159310000Y-118025000D01*
X159310000Y-119175000D02*
X159310000Y-116825000D01*
%TO.C,PAD13*%
X156340000Y-100655000D02*
X156340000Y-102555000D01*
X156340000Y-102555000D02*
X158240000Y-102555000D01*
X158240000Y-100655000D02*
X156340000Y-100655000D01*
X158240000Y-102555000D02*
X158240000Y-100655000D01*
%TO.C,PAD16*%
X141240000Y-110430000D02*
X141240000Y-112330000D01*
X141240000Y-112330000D02*
X143140000Y-112330000D01*
X143140000Y-110430000D02*
X141240000Y-110430000D01*
X143140000Y-112330000D02*
X143140000Y-110430000D01*
%TO.C,PAD14*%
X156365000Y-98130000D02*
X156365000Y-100030000D01*
X156365000Y-100030000D02*
X158265000Y-100030000D01*
X158265000Y-98130000D02*
X156365000Y-98130000D01*
X158265000Y-100030000D02*
X158265000Y-98130000D01*
%TO.C,C20*%
X146630000Y-94147164D02*
X146630000Y-94362836D01*
X147350000Y-94147164D02*
X147350000Y-94362836D01*
%TO.C,PAD15*%
X158140000Y-107185000D02*
X158140000Y-109085000D01*
X158140000Y-109085000D02*
X160040000Y-109085000D01*
X160040000Y-107185000D02*
X158140000Y-107185000D01*
X160040000Y-109085000D02*
X160040000Y-107185000D01*
%TO.C,PAD10*%
X160980000Y-83750000D02*
X160980000Y-85650000D01*
X160980000Y-85650000D02*
X162880000Y-85650000D01*
X162880000Y-83750000D02*
X160980000Y-83750000D01*
X162880000Y-85650000D02*
X162880000Y-83750000D01*
%TO.C,C42*%
X148855000Y-94172164D02*
X148855000Y-94387836D01*
X149575000Y-94172164D02*
X149575000Y-94387836D01*
%TO.C,R13*%
X154335000Y-101783641D02*
X154335000Y-101476359D01*
X155095000Y-101783641D02*
X155095000Y-101476359D01*
%TO.C,PAD2*%
X164910000Y-89745000D02*
X164910000Y-91645000D01*
X164910000Y-91645000D02*
X166810000Y-91645000D01*
X166810000Y-89745000D02*
X164910000Y-89745000D01*
X166810000Y-91645000D02*
X166810000Y-89745000D01*
%TO.C,R10*%
X147985000Y-100551359D02*
X147985000Y-100858641D01*
X148745000Y-100551359D02*
X148745000Y-100858641D01*
%TO.C,PAD6*%
X141240000Y-107905000D02*
X141240000Y-109805000D01*
X141240000Y-109805000D02*
X143140000Y-109805000D01*
X143140000Y-107905000D02*
X141240000Y-107905000D01*
X143140000Y-109805000D02*
X143140000Y-107905000D01*
%TO.C,C19*%
X147745000Y-94162164D02*
X147745000Y-94377836D01*
X148465000Y-94162164D02*
X148465000Y-94377836D01*
D12*
%TO.C,J8*%
X132771000Y-100573500D02*
X132771000Y-106111500D01*
X137216000Y-99119500D02*
X135345000Y-99119500D01*
X137216000Y-100361500D02*
X137216000Y-99119500D01*
X137216000Y-107565500D02*
X135345000Y-107565500D01*
X137216000Y-107565500D02*
X137216000Y-106323500D01*
X137851000Y-106676500D02*
G75*
G02*
X137597000Y-106676500I-127000J0D01*
G01*
X137597000Y-106676500D02*
G75*
G02*
X137851000Y-106676500I127000J0D01*
G01*
D11*
%TO.C,C41*%
X155830000Y-93897164D02*
X155830000Y-94112836D01*
X156550000Y-93897164D02*
X156550000Y-94112836D01*
%TO.C,J1*%
X145430000Y-116840000D02*
X146330000Y-116840000D01*
X145430000Y-117340000D02*
X145430000Y-117340000D01*
X145430000Y-117340000D02*
X145930000Y-117340000D01*
X145430000Y-118040000D02*
X145430000Y-118040000D01*
X145430000Y-118040000D02*
X145930000Y-118040000D01*
X145430000Y-119190000D02*
X145430000Y-116840000D01*
X145930000Y-116840000D02*
X145930000Y-116840000D01*
X145930000Y-116840000D02*
X145930000Y-118040000D01*
X145930000Y-117340000D02*
X145430000Y-117340000D01*
X145930000Y-117340000D02*
X145930000Y-117340000D01*
X145930000Y-118040000D02*
X145430000Y-118040000D01*
X145930000Y-118040000D02*
X145930000Y-116840000D01*
X145930000Y-118040000D02*
X145930000Y-118040000D01*
X145930000Y-118040000D02*
X145930000Y-118040000D01*
X149330000Y-121090000D02*
X146530000Y-121090000D01*
X149930000Y-116840000D02*
X149930000Y-116840000D01*
X149930000Y-116840000D02*
X149930000Y-118040000D01*
X149930000Y-117340000D02*
X149930000Y-117340000D01*
X149930000Y-117340000D02*
X150430000Y-117340000D01*
X149930000Y-118040000D02*
X149930000Y-116840000D01*
X149930000Y-118040000D02*
X149930000Y-118040000D01*
X149930000Y-118040000D02*
X149930000Y-118040000D01*
X149930000Y-118040000D02*
X150430000Y-118040000D01*
X150430000Y-116840000D02*
X149530000Y-116840000D01*
X150430000Y-117340000D02*
X149930000Y-117340000D01*
X150430000Y-117340000D02*
X150430000Y-117340000D01*
X150430000Y-118040000D02*
X149930000Y-118040000D01*
X150430000Y-118040000D02*
X150430000Y-118040000D01*
X150430000Y-119190000D02*
X150430000Y-116840000D01*
%TO.C,FB1*%
X151901252Y-92970000D02*
X151378748Y-92970000D01*
X151901252Y-94440000D02*
X151378748Y-94440000D01*
%TO.C,PAD11*%
X134990000Y-93755000D02*
X134990000Y-95655000D01*
X134990000Y-95655000D02*
X136890000Y-95655000D01*
X136890000Y-93755000D02*
X134990000Y-93755000D01*
X136890000Y-95655000D02*
X136890000Y-93755000D01*
%TO.C,PAD1*%
X160965000Y-86255000D02*
X160965000Y-88155000D01*
X160965000Y-88155000D02*
X162865000Y-88155000D01*
X162865000Y-86255000D02*
X160965000Y-86255000D01*
X162865000Y-88155000D02*
X162865000Y-86255000D01*
%TO.C,PAD9*%
X141240000Y-116405000D02*
X141240000Y-118305000D01*
X141240000Y-118305000D02*
X143140000Y-118305000D01*
X143140000Y-116405000D02*
X141240000Y-116405000D01*
X143140000Y-118305000D02*
X143140000Y-116405000D01*
%TO.C,PAD4*%
X141240000Y-113835000D02*
X141240000Y-115735000D01*
X141240000Y-115735000D02*
X143140000Y-115735000D01*
X143140000Y-113835000D02*
X141240000Y-113835000D01*
X143140000Y-115735000D02*
X143140000Y-113835000D01*
%TO.C,J5*%
X141270000Y-82467500D02*
X141270000Y-84817500D01*
X141270000Y-83617500D02*
X141270000Y-83617500D01*
X141270000Y-83617500D02*
X141770000Y-83617500D01*
X141270000Y-84317500D02*
X141270000Y-84317500D01*
X141270000Y-84317500D02*
X141770000Y-84317500D01*
X141270000Y-84817500D02*
X142170000Y-84817500D01*
X141770000Y-83617500D02*
X141270000Y-83617500D01*
X141770000Y-83617500D02*
X141770000Y-83617500D01*
X141770000Y-83617500D02*
X141770000Y-83617500D01*
X141770000Y-83617500D02*
X141770000Y-84817500D01*
X141770000Y-84317500D02*
X141270000Y-84317500D01*
X141770000Y-84317500D02*
X141770000Y-84317500D01*
X141770000Y-84817500D02*
X141770000Y-83617500D01*
X141770000Y-84817500D02*
X141770000Y-84817500D01*
X142370000Y-80567500D02*
X145170000Y-80567500D01*
X145770000Y-83617500D02*
X145770000Y-83617500D01*
X145770000Y-83617500D02*
X145770000Y-83617500D01*
X145770000Y-83617500D02*
X145770000Y-84817500D01*
X145770000Y-83617500D02*
X146270000Y-83617500D01*
X145770000Y-84317500D02*
X145770000Y-84317500D01*
X145770000Y-84317500D02*
X146270000Y-84317500D01*
X145770000Y-84817500D02*
X145770000Y-83617500D01*
X145770000Y-84817500D02*
X145770000Y-84817500D01*
X146270000Y-82467500D02*
X146270000Y-84817500D01*
X146270000Y-83617500D02*
X145770000Y-83617500D01*
X146270000Y-83617500D02*
X146270000Y-83617500D01*
X146270000Y-84317500D02*
X145770000Y-84317500D01*
X146270000Y-84317500D02*
X146270000Y-84317500D01*
X146270000Y-84817500D02*
X145370000Y-84817500D01*
D13*
%TO.C,D1*%
X162190000Y-120105000D02*
G75*
G02*
X161990000Y-120105000I-100000J0D01*
G01*
X161990000Y-120105000D02*
G75*
G02*
X162190000Y-120105000I100000J0D01*
G01*
D11*
%TO.C,PAD8*%
X148640000Y-84305000D02*
X148640000Y-86205000D01*
X148640000Y-86205000D02*
X150540000Y-86205000D01*
X150540000Y-84305000D02*
X148640000Y-84305000D01*
X150540000Y-86205000D02*
X150540000Y-84305000D01*
%TO.C,PAD7*%
X167415000Y-89755000D02*
X167415000Y-91655000D01*
X167415000Y-91655000D02*
X169315000Y-91655000D01*
X169315000Y-89755000D02*
X167415000Y-89755000D01*
X169315000Y-91655000D02*
X169315000Y-89755000D01*
%TO.C,C44*%
X154720000Y-93902164D02*
X154720000Y-94117836D01*
X155440000Y-93902164D02*
X155440000Y-94117836D01*
%TO.C,R12*%
X154310000Y-99251359D02*
X154310000Y-99558641D01*
X155070000Y-99251359D02*
X155070000Y-99558641D01*
%TO.C,PAD12*%
X134990000Y-96255000D02*
X134990000Y-98155000D01*
X134990000Y-98155000D02*
X136890000Y-98155000D01*
X136890000Y-96255000D02*
X134990000Y-96255000D01*
X136890000Y-98155000D02*
X136890000Y-96255000D01*
%TO.C,J2*%
X165167500Y-95385000D02*
X165167500Y-96285000D01*
X165167500Y-95885000D02*
X165167500Y-95885000D01*
X165167500Y-95885000D02*
X166367500Y-95885000D01*
X165167500Y-100885000D02*
X165167500Y-100885000D01*
X165167500Y-100885000D02*
X166367500Y-100885000D01*
X165167500Y-101385000D02*
X165167500Y-100485000D01*
X165667500Y-95385000D02*
X165667500Y-95385000D01*
X165667500Y-95385000D02*
X165667500Y-95885000D01*
X165667500Y-95885000D02*
X165667500Y-95385000D01*
X165667500Y-95885000D02*
X165667500Y-95885000D01*
X165667500Y-100885000D02*
X165667500Y-100885000D01*
X165667500Y-100885000D02*
X165667500Y-101385000D01*
X165667500Y-101385000D02*
X165667500Y-100885000D01*
X165667500Y-101385000D02*
X165667500Y-101385000D01*
X166367500Y-95385000D02*
X166367500Y-95385000D01*
X166367500Y-95385000D02*
X166367500Y-95885000D01*
X166367500Y-95885000D02*
X165167500Y-95885000D01*
X166367500Y-95885000D02*
X166367500Y-95385000D01*
X166367500Y-95885000D02*
X166367500Y-95885000D01*
X166367500Y-95885000D02*
X166367500Y-95885000D01*
X166367500Y-100885000D02*
X165167500Y-100885000D01*
X166367500Y-100885000D02*
X166367500Y-100885000D01*
X166367500Y-100885000D02*
X166367500Y-100885000D01*
X166367500Y-100885000D02*
X166367500Y-101385000D01*
X166367500Y-101385000D02*
X166367500Y-100885000D01*
X166367500Y-101385000D02*
X166367500Y-101385000D01*
X167517500Y-95385000D02*
X165167500Y-95385000D01*
X167517500Y-101385000D02*
X165167500Y-101385000D01*
X169417500Y-96485000D02*
X169417500Y-100285000D01*
%TO.C,PAD3*%
X150600000Y-101285000D02*
X150600000Y-103185000D01*
X150600000Y-103185000D02*
X152500000Y-103185000D01*
X152500000Y-101285000D02*
X150600000Y-101285000D01*
X152500000Y-103185000D02*
X152500000Y-101285000D01*
%TO.C,C43*%
X153630000Y-93897164D02*
X153630000Y-94112836D01*
X154350000Y-93897164D02*
X154350000Y-94112836D01*
%TO.C,C36*%
X150490000Y-98457164D02*
X150490000Y-98672836D01*
X151210000Y-98457164D02*
X151210000Y-98672836D01*
%TD*%
M02*
