M48
; DRILL file {KiCad 9.0.7} date 2026-04-25T22:25:57+0200
; FORMAT={-:-/ absolute / metric / decimal}
; #@! TF.CreationDate,2026-04-25T22:25:57+02:00
; #@! TF.GenerationSoftware,Kicad,Pcbnew,9.0.7
; #@! TF.FileFunction,Plated,1,4,PTH
FMAT,2
METRIC
; #@! TA.AperFunction,Plated,PTH,ViaDrill
T1C0.300
; #@! TA.AperFunction,Plated,PTH,ComponentDrill
T2C0.650
%
G90
G05
T1
X133.44Y-91.825
X133.79Y-94.155
X135.84Y-101.83
X135.9Y-100.855
X137.11Y-109.045
X137.96Y-109.045
X138.06Y-90.615
X138.08Y-95.155
X138.08Y-98.935
X138.94Y-93.805
X138.94Y-94.365
X138.94Y-94.925
X139.53Y-89.845
X139.59Y-99.43
X139.74Y-93.855
X140.18Y-89.845
X140.33Y-82.505
X140.365Y-93.855
X140.69Y-108.855
X140.69Y-117.355
X141.24Y-104.775
X141.65Y-104.375
X142.1Y-93.665
X142.62Y-105.475
X142.93Y-90.995
X142.93Y-91.895
X142.96Y-81.615
X143.115Y-100.13
X143.29Y-105.455
X143.38Y-91.445
X143.44Y-119.68
X144.536Y-109.401
X144.63Y-120.555
X144.7Y-81.655
X145.08Y-95.735
X145.253Y-110.135
X145.26Y-105.795
X145.26Y-107.085
X145.436Y-108.501
X145.54Y-91.755
X146.06Y-84.435
X146.07Y-85.085
X146.07Y-85.735
X146.19Y-91.055
X146.52Y-99.725
X146.56Y-110.725
X146.62Y-98.48
X146.63Y-120.385
X146.64Y-97.58
X147.14Y-91.045
X147.469Y-100.225
X147.56Y-88.615
X147.59Y-120.385
X147.86Y-91.765
X148.12Y-110.085
X149.0Y-99.225
X149.15Y-103.125
X149.27Y-89.595
X149.29Y-82.86
X149.29Y-83.505
X149.32Y-108.28
X149.565Y-96.13
X149.588Y-99.992
X149.69Y-114.205
X149.7Y-114.765
X149.802Y-106.968
X149.87Y-82.86
X149.87Y-83.505
X150.015Y-95.68
X150.015Y-102.23
X150.04Y-110.755
X150.26Y-114.205
X150.26Y-114.755
X150.27Y-100.425
X150.5Y-92.225
X151.15Y-108.145
X151.43Y-119.105
X151.46Y-100.245
X151.65Y-91.585
X151.66Y-92.575
X151.8Y-110.805
X152.04Y-108.945
X152.22Y-82.815
X152.22Y-121.085
X152.4Y-100.215
X153.0Y-108.955
X153.41Y-109.485
X153.5Y-104.205
X153.641Y-98.214
X153.726Y-101.45
X153.79Y-100.101
X153.81Y-102.145
X154.18Y-95.635
X154.29Y-114.815
X154.31Y-114.245
X154.48Y-109.045
X154.49Y-103.13
X154.58Y-113.565
X154.72Y-97.48
X154.9Y-114.245
X154.9Y-114.825
X154.97Y-109.505
X155.09Y-95.625
X155.11Y-98.005
X155.74Y-86.105
X155.74Y-108.245
X155.765Y-84.83
X155.98Y-108.845
X156.075Y-105.06
X156.27Y-110.405
X157.08Y-82.005
X157.67Y-104.835
X157.74Y-93.28
X158.41Y-104.665
X158.56Y-110.945
X158.7Y-102.845
X158.7Y-116.505
X158.95Y-94.665
X159.23Y-99.635
X159.43Y-98.965
X159.52Y-110.925
X159.562Y-105.815
X159.62Y-95.305
X159.67Y-94.245
X159.8Y-96.285
X160.07Y-82.255
X160.07Y-100.755
X160.28Y-113.145
X160.29Y-112.555
X160.31Y-113.925
X160.5Y-96.295
X160.55Y-93.365
X161.27Y-93.375
X161.46Y-97.855
X161.59Y-116.015
X161.59Y-116.705
X161.76Y-90.315
X161.85Y-103.725
X161.92Y-100.815
X161.92Y-101.555
X161.94Y-83.205
X161.97Y-93.375
X162.07Y-120.735
X162.08Y-120.175
X162.09Y-109.955
X162.1Y-106.135
X162.28Y-91.005
X162.39Y-106.955
X162.54Y-116.055
X162.54Y-116.685
X163.19Y-107.755
X163.2Y-108.695
X163.28Y-113.515
X163.79Y-108.705
X163.87Y-106.135
X163.9Y-113.505
X164.0Y-82.275
X164.34Y-111.875
X164.78Y-105.325
X165.04Y-111.165
X165.39Y-93.805
X165.39Y-94.355
X165.39Y-102.405
X165.39Y-102.955
X166.0Y-111.175
X166.32Y-99.865
X166.33Y-98.895
X166.75Y-106.145
X168.14Y-107.855
X168.365Y-89.37
X168.49Y-108.805
T2
G00X163.24Y-94.055
M15
G01X164.34Y-94.055
M16
G05
G00X163.24Y-102.695
M15
G01X164.34Y-102.695
M16
G05
G00X167.54Y-94.055
M15
G01X168.34Y-94.055
M16
G05
G00X167.54Y-102.695
M15
G01X168.34Y-102.695
M16
G05
M30
