%TF.GenerationSoftware,KiCad,Pcbnew,9.0.7*%
%TF.CreationDate,2026-04-25T22:25:53+02:00*%
%TF.ProjectId,M-FC,4d2d4643-2e6b-4696-9361-645f70636258,1.0.0*%
%TF.SameCoordinates,Original*%
%TF.FileFunction,Paste,Top*%
%TF.FilePolarity,Positive*%
%FSLAX46Y46*%
G04 Gerber Fmt 4.6, Leading zero omitted, Abs format (unit mm)*
G04 Created by KiCad (PCBNEW 9.0.7) date 2026-04-25 22:25:53*
%MOMM*%
%LPD*%
G01*
G04 APERTURE LIST*
G04 Aperture macros list*
%AMRoundRect*
0 Rectangle with rounded corners*
0 $1 Rounding radius*
0 $2 $3 $4 $5 $6 $7 $8 $9 X,Y pos of 4 corners*
0 Add a 4 corners polygon primitive as box body*
4,1,4,$2,$3,$4,$5,$6,$7,$8,$9,$2,$3,0*
0 Add four circle primitives for the rounded corners*
1,1,$1+$1,$2,$3*
1,1,$1+$1,$4,$5*
1,1,$1+$1,$6,$7*
1,1,$1+$1,$8,$9*
0 Add four rect primitives between the rounded corners*
20,1,$1+$1,$2,$3,$4,$5,0*
20,1,$1+$1,$4,$5,$6,$7,0*
20,1,$1+$1,$6,$7,$8,$9,0*
20,1,$1+$1,$8,$9,$2,$3,0*%
G04 Aperture macros list end*
%ADD10C,0.010000*%
%ADD11C,0.175000*%
%ADD12R,1.800000X1.200000*%
%ADD13R,1.550000X0.600000*%
%ADD14RoundRect,0.140000X-0.170000X0.140000X-0.170000X-0.140000X0.170000X-0.140000X0.170000X0.140000X0*%
%ADD15RoundRect,0.140000X-0.140000X-0.170000X0.140000X-0.170000X0.140000X0.170000X-0.140000X0.170000X0*%
%ADD16RoundRect,0.040000X-0.120000X0.305000X-0.120000X-0.305000X0.120000X-0.305000X0.120000X0.305000X0*%
%ADD17RoundRect,0.218750X0.218750X0.256250X-0.218750X0.256250X-0.218750X-0.256250X0.218750X-0.256250X0*%
%ADD18RoundRect,0.140000X0.140000X0.170000X-0.140000X0.170000X-0.140000X-0.170000X0.140000X-0.170000X0*%
%ADD19RoundRect,0.040000X0.305000X0.120000X-0.305000X0.120000X-0.305000X-0.120000X0.305000X-0.120000X0*%
%ADD20RoundRect,0.135000X-0.185000X0.135000X-0.185000X-0.135000X0.185000X-0.135000X0.185000X0.135000X0*%
%ADD21R,0.900000X0.800000*%
%ADD22RoundRect,0.014000X0.361000X0.161000X-0.361000X0.161000X-0.361000X-0.161000X0.361000X-0.161000X0*%
%ADD23RoundRect,0.140000X0.170000X-0.140000X0.170000X0.140000X-0.170000X0.140000X-0.170000X-0.140000X0*%
%ADD24RoundRect,0.135000X-0.135000X-0.185000X0.135000X-0.185000X0.135000X0.185000X-0.135000X0.185000X0*%
%ADD25RoundRect,0.135000X0.135000X0.185000X-0.135000X0.185000X-0.135000X-0.185000X0.135000X-0.185000X0*%
%ADD26RoundRect,0.218750X0.256250X-0.218750X0.256250X0.218750X-0.256250X0.218750X-0.256250X-0.218750X0*%
%ADD27O,0.343000X1.731500*%
%ADD28R,6.700000X2.900000*%
%ADD29RoundRect,0.072500X0.732500X0.217500X-0.732500X0.217500X-0.732500X-0.217500X0.732500X-0.217500X0*%
%ADD30R,0.690000X0.385000*%
%ADD31R,0.690000X1.035000*%
%ADD32RoundRect,0.250000X-0.325000X-0.650000X0.325000X-0.650000X0.325000X0.650000X-0.325000X0.650000X0*%
%ADD33R,2.700000X1.500000*%
%ADD34R,1.470000X0.280000*%
%ADD35R,0.280000X1.470000*%
%ADD36RoundRect,0.135000X0.226274X0.035355X0.035355X0.226274X-0.226274X-0.035355X-0.035355X-0.226274X0*%
%ADD37RoundRect,0.075000X-0.175000X-0.275000X0.175000X-0.275000X0.175000X0.275000X-0.175000X0.275000X0*%
%ADD38R,0.800000X1.700000*%
%ADD39RoundRect,0.135000X0.185000X-0.135000X0.185000X0.135000X-0.185000X0.135000X-0.185000X-0.135000X0*%
%ADD40RoundRect,0.087500X-0.207500X-0.087500X0.207500X-0.087500X0.207500X0.087500X-0.207500X0.087500X0*%
%ADD41RoundRect,0.087500X-0.087500X-0.207500X0.087500X-0.207500X0.087500X0.207500X-0.087500X0.207500X0*%
%ADD42R,1.150000X0.600000*%
%ADD43R,1.150000X0.300000*%
G04 APERTURE END LIST*
D10*
%TO.C,U7*%
X162206000Y-113221000D02*
X161194000Y-113221000D01*
X161194000Y-112589000D01*
X162206000Y-112589000D01*
X162206000Y-113221000D01*
G36*
X162206000Y-113221000D02*
G01*
X161194000Y-113221000D01*
X161194000Y-112589000D01*
X162206000Y-112589000D01*
X162206000Y-113221000D01*
G37*
%TO.C,U6*%
X140276000Y-91771000D02*
X139644000Y-91771000D01*
X139644000Y-90759000D01*
X140276000Y-90759000D01*
X140276000Y-91771000D01*
G36*
X140276000Y-91771000D02*
G01*
X139644000Y-91771000D01*
X139644000Y-90759000D01*
X140276000Y-90759000D01*
X140276000Y-91771000D01*
G37*
D11*
%TO.C,U2*%
X164922500Y-107300000D02*
G75*
G02*
X164747500Y-107300000I-87500J0D01*
G01*
X164747500Y-107300000D02*
G75*
G02*
X164922500Y-107300000I87500J0D01*
G01*
X164922500Y-107950000D02*
G75*
G02*
X164747500Y-107950000I-87500J0D01*
G01*
X164747500Y-107950000D02*
G75*
G02*
X164922500Y-107950000I87500J0D01*
G01*
X164922500Y-108600000D02*
G75*
G02*
X164747500Y-108600000I-87500J0D01*
G01*
X164747500Y-108600000D02*
G75*
G02*
X164922500Y-108600000I87500J0D01*
G01*
X164922500Y-109250000D02*
G75*
G02*
X164747500Y-109250000I-87500J0D01*
G01*
X164747500Y-109250000D02*
G75*
G02*
X164922500Y-109250000I87500J0D01*
G01*
X166372500Y-107300000D02*
G75*
G02*
X166197500Y-107300000I-87500J0D01*
G01*
X166197500Y-107300000D02*
G75*
G02*
X166372500Y-107300000I87500J0D01*
G01*
X166372500Y-107950000D02*
G75*
G02*
X166197500Y-107950000I-87500J0D01*
G01*
X166197500Y-107950000D02*
G75*
G02*
X166372500Y-107950000I87500J0D01*
G01*
X166372500Y-108600000D02*
G75*
G02*
X166197500Y-108600000I-87500J0D01*
G01*
X166197500Y-108600000D02*
G75*
G02*
X166372500Y-108600000I87500J0D01*
G01*
X166372500Y-109250000D02*
G75*
G02*
X166197500Y-109250000I-87500J0D01*
G01*
X166197500Y-109250000D02*
G75*
G02*
X166372500Y-109250000I87500J0D01*
G01*
%TD*%
D12*
%TO.C,J3*%
X133702500Y-99785000D03*
X133702500Y-109385000D03*
D13*
X137577500Y-101085000D03*
X137577500Y-102085000D03*
X137577500Y-103085000D03*
X137577500Y-104085000D03*
X137577500Y-105085000D03*
X137577500Y-106085000D03*
X137577500Y-107085000D03*
X137577500Y-108085000D03*
%TD*%
D14*
%TO.C,C29*%
X158930000Y-95315000D03*
X158930000Y-96275000D03*
%TD*%
D15*
%TO.C,C9*%
X154580000Y-110405000D03*
X155540000Y-110405000D03*
%TD*%
D16*
%TO.C,U7*%
X162350000Y-111885000D03*
X161700000Y-111885000D03*
X161050000Y-111885000D03*
X161050000Y-113925000D03*
X161700000Y-113925000D03*
X162350000Y-113925000D03*
%TD*%
D17*
%TO.C,D18*%
X156027500Y-82005000D03*
X154452500Y-82005000D03*
%TD*%
D18*
%TO.C,C14*%
X159520000Y-110135000D03*
X158560000Y-110135000D03*
%TD*%
D19*
%TO.C,U6*%
X140980000Y-91915000D03*
X140980000Y-91265000D03*
X140980000Y-90615000D03*
X138940000Y-90615000D03*
X138940000Y-91265000D03*
X138940000Y-91915000D03*
%TD*%
D14*
%TO.C,C13*%
X162360000Y-107735000D03*
X162360000Y-108695000D03*
%TD*%
D15*
%TO.C,C33*%
X146140000Y-92795000D03*
X147100000Y-92795000D03*
%TD*%
%TO.C,C6*%
X148750000Y-121085000D03*
X149710000Y-121085000D03*
%TD*%
D20*
%TO.C,R16*%
X142970000Y-82515000D03*
X142970000Y-83535000D03*
%TD*%
D21*
%TO.C,Y1*%
X154580000Y-111655000D03*
X153180000Y-111655000D03*
X153180000Y-112755000D03*
X154580000Y-112755000D03*
%TD*%
D20*
%TO.C,R15*%
X141220000Y-82515000D03*
X141220000Y-83535000D03*
%TD*%
D22*
%TO.C,U9*%
X160120000Y-98345000D03*
X160120000Y-97845000D03*
X160120000Y-97345000D03*
X158740000Y-97345000D03*
X158740000Y-97845000D03*
X158740000Y-98345000D03*
%TD*%
D23*
%TO.C,C5*%
X167410000Y-108825000D03*
X167410000Y-107865000D03*
%TD*%
D24*
%TO.C,R4*%
X157680000Y-118475000D03*
X158700000Y-118475000D03*
%TD*%
D18*
%TO.C,C24*%
X162530000Y-115085000D03*
X161570000Y-115085000D03*
%TD*%
D15*
%TO.C,C4*%
X165050000Y-110395000D03*
X166010000Y-110395000D03*
%TD*%
D25*
%TO.C,R3*%
X165850000Y-106135000D03*
X164830000Y-106135000D03*
%TD*%
D18*
%TO.C,C35*%
X155010000Y-107165000D03*
X154050000Y-107165000D03*
%TD*%
D26*
%TO.C,D10*%
X144710000Y-86302500D03*
X144710000Y-84727500D03*
%TD*%
D24*
%TO.C,R21*%
X146070000Y-86535000D03*
X147090000Y-86535000D03*
%TD*%
D26*
%TO.C,D11*%
X141220000Y-86292500D03*
X141220000Y-84717500D03*
%TD*%
D27*
%TO.C,U1*%
X149891000Y-112368000D03*
X149241000Y-112368000D03*
X148591000Y-112368000D03*
X147941000Y-112368000D03*
X147291000Y-112368000D03*
X146641000Y-112368000D03*
X145991000Y-112368000D03*
X145341000Y-112368000D03*
X144691000Y-112368000D03*
X144041000Y-112368000D03*
X143391000Y-112368000D03*
X142741000Y-112368000D03*
X142091000Y-112368000D03*
X141441000Y-112368000D03*
X141441000Y-118100000D03*
X142091000Y-118100000D03*
X142741000Y-118100000D03*
X143391000Y-118100000D03*
X144041000Y-118100000D03*
X144691000Y-118100000D03*
X145341000Y-118100000D03*
X145991000Y-118100000D03*
X146641000Y-118100000D03*
X147291000Y-118100000D03*
X147941000Y-118100000D03*
X148591000Y-118100000D03*
X149241000Y-118100000D03*
X149891000Y-118100000D03*
D28*
X145666000Y-115234000D03*
%TD*%
D29*
%TO.C,U3*%
X157195000Y-88640000D03*
X157195000Y-87370000D03*
X157195000Y-86100000D03*
X157195000Y-84830000D03*
X149985000Y-84830000D03*
X149985000Y-86100000D03*
X149985000Y-87370000D03*
X149985000Y-88640000D03*
%TD*%
D14*
%TO.C,C12*%
X161360000Y-107745000D03*
X161360000Y-108705000D03*
%TD*%
D23*
%TO.C,C11*%
X148360000Y-89595000D03*
X148360000Y-88635000D03*
%TD*%
D15*
%TO.C,C22*%
X138940000Y-93080000D03*
X139900000Y-93080000D03*
%TD*%
D18*
%TO.C,C31*%
X153010000Y-107175000D03*
X152050000Y-107175000D03*
%TD*%
D30*
%TO.C,D2*%
X161150000Y-91323000D03*
D31*
X161150000Y-92235000D03*
%TD*%
D20*
%TO.C,R18*%
X135580000Y-92145000D03*
X135580000Y-93165000D03*
%TD*%
D24*
%TO.C,R23*%
X160160000Y-99635000D03*
X161180000Y-99635000D03*
%TD*%
D23*
%TO.C,C32*%
X143640000Y-104695000D03*
X143640000Y-103735000D03*
%TD*%
%TO.C,C27*%
X142610000Y-104695000D03*
X142610000Y-103735000D03*
%TD*%
D32*
%TO.C,C8*%
X153201000Y-118464000D03*
X156151000Y-118464000D03*
%TD*%
D23*
%TO.C,C10*%
X151800000Y-112685000D03*
X151800000Y-111725000D03*
%TD*%
D20*
%TO.C,R1*%
X151430000Y-120065000D03*
X151430000Y-121085000D03*
%TD*%
D18*
%TO.C,C26*%
X155010000Y-108235000D03*
X154050000Y-108235000D03*
%TD*%
D14*
%TO.C,C34*%
X157920000Y-95315000D03*
X157920000Y-96275000D03*
%TD*%
D25*
%TO.C,R2*%
X163830000Y-105325000D03*
X162810000Y-105325000D03*
%TD*%
D32*
%TO.C,C7*%
X153205000Y-115915000D03*
X156155000Y-115915000D03*
%TD*%
D15*
%TO.C,C28*%
X146160000Y-91775000D03*
X147120000Y-91775000D03*
%TD*%
D18*
%TO.C,C39*%
X139040000Y-97995000D03*
X138080000Y-97995000D03*
%TD*%
D24*
%TO.C,R25*%
X152220000Y-82005000D03*
X153240000Y-82005000D03*
%TD*%
D20*
%TO.C,R14*%
X144700000Y-82525000D03*
X144700000Y-83545000D03*
%TD*%
D33*
%TO.C,Y2*%
X141210000Y-96095000D03*
X141210000Y-97995000D03*
%TD*%
D25*
%TO.C,R9*%
X162070000Y-110735000D03*
X161050000Y-110735000D03*
%TD*%
D14*
%TO.C,C25*%
X163510000Y-111875000D03*
X163510000Y-112835000D03*
%TD*%
D15*
%TO.C,C3*%
X146630000Y-119635000D03*
X147590000Y-119635000D03*
%TD*%
D24*
%TO.C,R5*%
X152480000Y-92575000D03*
X153500000Y-92575000D03*
%TD*%
D18*
%TO.C,C2*%
X149090000Y-110775000D03*
X148130000Y-110775000D03*
%TD*%
D34*
%TO.C,U8*%
X145080000Y-96225000D03*
X145080000Y-96725000D03*
X145080000Y-97225000D03*
X145080000Y-97725000D03*
X145080000Y-98225000D03*
X145080000Y-98725000D03*
X145080000Y-99225000D03*
X145080000Y-99725000D03*
X145080000Y-100225000D03*
X145080000Y-100725000D03*
X145080000Y-101225000D03*
X145080000Y-101725000D03*
X145080000Y-102225000D03*
X145080000Y-102725000D03*
X145080000Y-103225000D03*
X145080000Y-103725000D03*
D35*
X147000000Y-105645000D03*
X147500000Y-105645000D03*
X148000000Y-105645000D03*
X148500000Y-105645000D03*
X149000000Y-105645000D03*
X149500000Y-105645000D03*
X150000000Y-105645000D03*
X150500000Y-105645000D03*
X151000000Y-105645000D03*
X151500000Y-105645000D03*
X152000000Y-105645000D03*
X152500000Y-105645000D03*
X153000000Y-105645000D03*
X153500000Y-105645000D03*
X154000000Y-105645000D03*
X154500000Y-105645000D03*
D34*
X156420000Y-103725000D03*
X156420000Y-103225000D03*
X156420000Y-102725000D03*
X156420000Y-102225000D03*
X156420000Y-101725000D03*
X156420000Y-101225000D03*
X156420000Y-100725000D03*
X156420000Y-100225000D03*
X156420000Y-99725000D03*
X156420000Y-99225000D03*
X156420000Y-98725000D03*
X156420000Y-98225000D03*
X156420000Y-97725000D03*
X156420000Y-97225000D03*
X156420000Y-96725000D03*
X156420000Y-96225000D03*
D35*
X154500000Y-94305000D03*
X154000000Y-94305000D03*
X153500000Y-94305000D03*
X153000000Y-94305000D03*
X152500000Y-94305000D03*
X152000000Y-94305000D03*
X151500000Y-94305000D03*
X151000000Y-94305000D03*
X150500000Y-94305000D03*
X150000000Y-94305000D03*
X149500000Y-94305000D03*
X149000000Y-94305000D03*
X148500000Y-94305000D03*
X148000000Y-94305000D03*
X147500000Y-94305000D03*
X147000000Y-94305000D03*
%TD*%
D36*
%TO.C,R24*%
X160920624Y-95505624D03*
X160199376Y-94784376D03*
%TD*%
D25*
%TO.C,R19*%
X135620000Y-94155000D03*
X134600000Y-94155000D03*
%TD*%
D37*
%TO.C,D14*%
X147650000Y-84435000D03*
X146900000Y-84435000D03*
%TD*%
D20*
%TO.C,R22*%
X160910000Y-100775000D03*
X160910000Y-101795000D03*
%TD*%
D15*
%TO.C,C1*%
X144276000Y-119634000D03*
X145236000Y-119634000D03*
%TD*%
D20*
%TO.C,R20*%
X160910000Y-102695000D03*
X160910000Y-103715000D03*
%TD*%
D38*
%TO.C,SW1*%
X147660000Y-82005000D03*
X151060000Y-82005000D03*
%TD*%
D26*
%TO.C,D12*%
X142970000Y-86292500D03*
X142970000Y-84717500D03*
%TD*%
D14*
%TO.C,C23*%
X142128333Y-91915000D03*
X142128333Y-92875000D03*
%TD*%
%TO.C,JP1*%
X135590000Y-95145000D03*
X135590000Y-96105000D03*
%TD*%
D15*
%TO.C,C40*%
X138080000Y-96095000D03*
X139040000Y-96095000D03*
%TD*%
D39*
%TO.C,R8*%
X142138333Y-90995000D03*
X142138333Y-89975000D03*
%TD*%
D23*
%TO.C,C38*%
X142340000Y-101110000D03*
X142340000Y-100150000D03*
%TD*%
D40*
%TO.C,U4*%
X157897500Y-107385000D03*
X157897500Y-107885000D03*
X157897500Y-108385000D03*
X157897500Y-108885000D03*
D41*
X158562500Y-109050000D03*
X159062500Y-109050000D03*
X159562500Y-109050000D03*
D40*
X160227500Y-108885000D03*
X160227500Y-108385000D03*
X160227500Y-107885000D03*
X160227500Y-107385000D03*
D41*
X159562500Y-107220000D03*
X159062500Y-107220000D03*
X158562500Y-107220000D03*
%TD*%
D23*
%TO.C,C37*%
X140390000Y-100410000D03*
X140390000Y-99450000D03*
%TD*%
D18*
%TO.C,C30*%
X153020000Y-108225000D03*
X152060000Y-108225000D03*
%TD*%
D42*
%TO.C,J13*%
X163215000Y-101575000D03*
X163215000Y-100775000D03*
D43*
X163215000Y-99625000D03*
X163215000Y-98625000D03*
X163215000Y-98125000D03*
X163215000Y-97125000D03*
D42*
X163215000Y-95975000D03*
X163215000Y-95175000D03*
D43*
X163215000Y-96625000D03*
X163215000Y-97625000D03*
X163215000Y-99125000D03*
X163215000Y-100125000D03*
%TD*%
M02*
