%TF.GenerationSoftware,KiCad,Pcbnew,9.0.7*%
%TF.CreationDate,2026-04-25T19:56:43+02:00*%
%TF.ProjectId,M-PDB,4d2d5044-422e-46b6-9963-61645f706362,rev?*%
%TF.SameCoordinates,Original*%
%TF.FileFunction,Paste,Top*%
%TF.FilePolarity,Positive*%
%FSLAX46Y46*%
G04 Gerber Fmt 4.6, Leading zero omitted, Abs format (unit mm)*
G04 Created by KiCad (PCBNEW 9.0.7) date 2026-04-25 19:56:43*
%MOMM*%
%LPD*%
G01*
G04 APERTURE LIST*
G04 Aperture macros list*
%AMRoundRect*
0 Rectangle with rounded corners*
0 $1 Rounding radius*
0 $2 $3 $4 $5 $6 $7 $8 $9 X,Y pos of 4 corners*
0 Add a 4 corners polygon primitive as box body*
4,1,4,$2,$3,$4,$5,$6,$7,$8,$9,$2,$3,0*
0 Add four circle primitives for the rounded corners*
1,1,$1+$1,$2,$3*
1,1,$1+$1,$4,$5*
1,1,$1+$1,$6,$7*
1,1,$1+$1,$8,$9*
0 Add four rect primitives between the rounded corners*
20,1,$1+$1,$2,$3,$4,$5,0*
20,1,$1+$1,$4,$5,$6,$7,0*
20,1,$1+$1,$6,$7,$8,$9,0*
20,1,$1+$1,$8,$9,$2,$3,0*%
G04 Aperture macros list end*
%ADD10RoundRect,0.250000X0.650000X-0.325000X0.650000X0.325000X-0.650000X0.325000X-0.650000X-0.325000X0*%
%ADD11RoundRect,0.250000X-0.650000X0.325000X-0.650000X-0.325000X0.650000X-0.325000X0.650000X0.325000X0*%
%ADD12RoundRect,0.250000X-0.325000X-0.650000X0.325000X-0.650000X0.325000X0.650000X-0.325000X0.650000X0*%
%ADD13R,3.200000X2.400000*%
%ADD14RoundRect,0.140000X-0.170000X0.140000X-0.170000X-0.140000X0.170000X-0.140000X0.170000X0.140000X0*%
%ADD15R,1.800000X1.200000*%
%ADD16R,1.550000X0.600000*%
%ADD17RoundRect,0.225000X2.025000X2.025000X-2.025000X2.025000X-2.025000X-2.025000X2.025000X-2.025000X0*%
%ADD18RoundRect,0.140000X0.170000X-0.140000X0.170000X0.140000X-0.170000X0.140000X-0.170000X-0.140000X0*%
%ADD19RoundRect,0.225000X-2.025000X2.025000X-2.025000X-2.025000X2.025000X-2.025000X2.025000X2.025000X0*%
%ADD20RoundRect,0.140000X-0.140000X-0.170000X0.140000X-0.170000X0.140000X0.170000X-0.140000X0.170000X0*%
%ADD21RoundRect,0.135000X-0.185000X0.135000X-0.185000X-0.135000X0.185000X-0.135000X0.185000X0.135000X0*%
%ADD22RoundRect,0.250000X2.250000X2.250000X-2.250000X2.250000X-2.250000X-2.250000X2.250000X-2.250000X0*%
%ADD23R,0.660000X0.320000*%
%ADD24RoundRect,0.140000X0.140000X0.170000X-0.140000X0.170000X-0.140000X-0.170000X0.140000X-0.170000X0*%
%ADD25RoundRect,0.135000X0.185000X-0.135000X0.185000X0.135000X-0.185000X0.135000X-0.185000X-0.135000X0*%
G04 APERTURE END LIST*
D10*
%TO.C,C2*%
X163880000Y-104440000D03*
X163880000Y-107390000D03*
%TD*%
%TO.C,C9*%
X174430000Y-106012500D03*
X174430000Y-103062500D03*
%TD*%
D11*
%TO.C,C7*%
X163922500Y-98037500D03*
X163922500Y-100987500D03*
%TD*%
D12*
%TO.C,C4*%
X159975000Y-95125000D03*
X162925000Y-95125000D03*
%TD*%
D13*
%TO.C,L1*%
X157937500Y-103712500D03*
X157937500Y-97712500D03*
%TD*%
D14*
%TO.C,C8*%
X165712500Y-98572500D03*
X165712500Y-99532500D03*
%TD*%
D15*
%TO.C,J1*%
X144862500Y-96400000D03*
X144862500Y-106000000D03*
D16*
X148737500Y-97700000D03*
X148737500Y-98700000D03*
X148737500Y-99700000D03*
X148737500Y-100700000D03*
X148737500Y-101700000D03*
X148737500Y-102700000D03*
X148737500Y-103700000D03*
X148737500Y-104700000D03*
%TD*%
D17*
%TO.C,PAD20*%
X171550000Y-82950000D03*
%TD*%
D18*
%TO.C,C3*%
X162170000Y-106865000D03*
X162170000Y-105905000D03*
%TD*%
D19*
%TO.C,PAD17*%
X171575000Y-119150000D03*
%TD*%
D20*
%TO.C,C10*%
X172602500Y-98072500D03*
X173562500Y-98072500D03*
%TD*%
D21*
%TO.C,R5*%
X170672500Y-95092500D03*
X170672500Y-96112500D03*
%TD*%
D22*
%TO.C,PAD15*%
X165350000Y-118900000D03*
%TD*%
D17*
%TO.C,PAD23*%
X152575000Y-82950000D03*
%TD*%
D23*
%TO.C,U2*%
X168067500Y-97572500D03*
X168067500Y-98072500D03*
X168067500Y-98572500D03*
X168067500Y-99072500D03*
X169537500Y-99072500D03*
X169537500Y-98572500D03*
X169537500Y-98072500D03*
X169537500Y-97572500D03*
%TD*%
D13*
%TO.C,L2*%
X169562500Y-101787500D03*
X169562500Y-107787500D03*
%TD*%
D21*
%TO.C,R3*%
X150790000Y-103705000D03*
X150790000Y-104725000D03*
%TD*%
D24*
%TO.C,C1*%
X155700000Y-106335000D03*
X154740000Y-106335000D03*
%TD*%
D21*
%TO.C,R4*%
X158050000Y-109385000D03*
X158050000Y-110405000D03*
%TD*%
D22*
%TO.C,PAD16*%
X158825000Y-118900000D03*
%TD*%
D17*
%TO.C,PAD24*%
X146075000Y-91850000D03*
%TD*%
%TO.C,PAD22*%
X152575000Y-119150000D03*
%TD*%
%TO.C,PAD21*%
X146075000Y-110400000D03*
%TD*%
%TO.C,PAD19*%
X178550000Y-91850000D03*
%TD*%
D20*
%TO.C,C6*%
X172602500Y-99082500D03*
X173562500Y-99082500D03*
%TD*%
D19*
%TO.C,PAD18*%
X178575000Y-110400000D03*
%TD*%
D21*
%TO.C,R1*%
X150800000Y-101640000D03*
X150800000Y-102660000D03*
%TD*%
D25*
%TO.C,R6*%
X169542500Y-96112500D03*
X169542500Y-95092500D03*
%TD*%
D23*
%TO.C,U1*%
X159515000Y-107865000D03*
X159515000Y-107365000D03*
X159515000Y-106865000D03*
X159515000Y-106365000D03*
X158045000Y-106365000D03*
X158045000Y-106865000D03*
X158045000Y-107365000D03*
X158045000Y-107865000D03*
%TD*%
D24*
%TO.C,C5*%
X155700000Y-107375000D03*
X154740000Y-107375000D03*
%TD*%
D25*
%TO.C,R2*%
X156880000Y-110405000D03*
X156880000Y-109385000D03*
%TD*%
M02*
