%TF.GenerationSoftware,KiCad,Pcbnew,9.0.7*%
%TF.CreationDate,2026-04-25T19:56:43+02:00*%
%TF.ProjectId,M-PDB,4d2d5044-422e-46b6-9963-61645f706362,rev?*%
%TF.SameCoordinates,Original*%
%TF.FileFunction,Copper,L3,Inr*%
%TF.FilePolarity,Positive*%
%FSLAX46Y46*%
G04 Gerber Fmt 4.6, Leading zero omitted, Abs format (unit mm)*
G04 Created by KiCad (PCBNEW 9.0.7) date 2026-04-25 19:56:43*
%MOMM*%
%LPD*%
G01*
G04 APERTURE LIST*
%TA.AperFunction,ViaPad*%
%ADD10C,0.700000*%
%TD*%
%TA.AperFunction,ViaPad*%
%ADD11C,0.500000*%
%TD*%
%TA.AperFunction,ViaPad*%
%ADD12C,0.600000*%
%TD*%
G04 APERTURE END LIST*
D10*
%TO.N,+VBAT*%
X145200000Y-110000000D03*
X152150000Y-84750000D03*
X166250000Y-118000000D03*
X153050000Y-81150000D03*
X176750000Y-93200000D03*
X165350000Y-118000000D03*
X163550000Y-118900000D03*
X167150000Y-118900000D03*
X144300000Y-110000000D03*
X151250000Y-83850000D03*
X173000000Y-117350000D03*
X147000000Y-110000000D03*
X179450000Y-90500000D03*
X147900000Y-110900000D03*
X180350000Y-90500000D03*
X153050000Y-83850000D03*
X171200000Y-119150000D03*
X180350000Y-93200000D03*
X170300000Y-118250000D03*
X170300000Y-120050000D03*
X164450000Y-120700000D03*
X177650000Y-91400000D03*
X147000000Y-111800000D03*
X177650000Y-90500000D03*
X151250000Y-82950000D03*
X151250000Y-82050000D03*
D11*
X162150000Y-98610000D03*
D10*
X147900000Y-109100000D03*
X172100000Y-120950000D03*
X146100000Y-111800000D03*
X179450000Y-93200000D03*
X151250000Y-84750000D03*
X145200000Y-111800000D03*
X172100000Y-120050000D03*
X151250000Y-81150000D03*
X180350000Y-91400000D03*
D11*
X150800000Y-100900000D03*
D10*
X147000000Y-109100000D03*
X165350000Y-119800000D03*
X146100000Y-110000000D03*
X166250000Y-117100000D03*
X153950000Y-81150000D03*
X171200000Y-118250000D03*
X177650000Y-92300000D03*
X166250000Y-118900000D03*
X167150000Y-120700000D03*
X153950000Y-82950000D03*
X178550000Y-90500000D03*
X170300000Y-119150000D03*
X164450000Y-119800000D03*
X170300000Y-120950000D03*
X172100000Y-117350000D03*
X153050000Y-82050000D03*
X144300000Y-111800000D03*
X144300000Y-110900000D03*
X176750000Y-91400000D03*
X145200000Y-110900000D03*
X173000000Y-119150000D03*
X165350000Y-117100000D03*
X178550000Y-93200000D03*
X153050000Y-84750000D03*
X144300000Y-109100000D03*
X167150000Y-117100000D03*
X153950000Y-83850000D03*
X173000000Y-120050000D03*
D11*
X162700000Y-98350000D03*
D10*
X147900000Y-111800000D03*
X167150000Y-119800000D03*
X176750000Y-92300000D03*
X172100000Y-118250000D03*
X145200000Y-109100000D03*
X172100000Y-119150000D03*
X171200000Y-120950000D03*
X163550000Y-120700000D03*
X173000000Y-118250000D03*
X152150000Y-82950000D03*
X166250000Y-119800000D03*
X178550000Y-91400000D03*
X153950000Y-84750000D03*
X147900000Y-110000000D03*
X152150000Y-83850000D03*
X177650000Y-93200000D03*
X165350000Y-118900000D03*
X163550000Y-119800000D03*
X164450000Y-117100000D03*
X152150000Y-81150000D03*
X153950000Y-82050000D03*
X153050000Y-82950000D03*
X171200000Y-117350000D03*
X165350000Y-120700000D03*
X152150000Y-82050000D03*
X179450000Y-91400000D03*
D11*
X162700000Y-98900000D03*
D10*
X170300000Y-117350000D03*
X164450000Y-118900000D03*
X163550000Y-118000000D03*
X167150000Y-118000000D03*
D11*
X165150000Y-106575000D03*
X165700000Y-106850000D03*
D10*
X173000000Y-120950000D03*
X179450000Y-92300000D03*
X147000000Y-110900000D03*
X166250000Y-120700000D03*
X180350000Y-92300000D03*
X163550000Y-117100000D03*
X176750000Y-90500000D03*
D11*
X165150000Y-107150000D03*
D10*
X164450000Y-118000000D03*
X178550000Y-92300000D03*
X146100000Y-109100000D03*
X146100000Y-110900000D03*
X171200000Y-120050000D03*
D11*
%TO.N,GND*%
X174700000Y-101790000D03*
D10*
X147000000Y-92300000D03*
D11*
X163620000Y-101280000D03*
D10*
X158825000Y-118000000D03*
X152150000Y-119150000D03*
X159725000Y-119800000D03*
X180400000Y-110850000D03*
X151250000Y-118250000D03*
X151250000Y-117350000D03*
X145200000Y-91400000D03*
X180400000Y-111750000D03*
X170250000Y-84750000D03*
X158825000Y-117100000D03*
D11*
X159525000Y-105775000D03*
X165730000Y-100770000D03*
D10*
X144300000Y-91400000D03*
X153950000Y-120950000D03*
X178600000Y-109050000D03*
X146100000Y-92300000D03*
D11*
X167370000Y-99560000D03*
X149225000Y-105475000D03*
D10*
X146100000Y-93200000D03*
X178600000Y-111750000D03*
X147000000Y-91400000D03*
X172950000Y-83850000D03*
X145200000Y-92300000D03*
X178600000Y-109950000D03*
X172950000Y-82950000D03*
X170250000Y-82950000D03*
X153950000Y-120050000D03*
X163200000Y-87800000D03*
X172050000Y-81150000D03*
X172050000Y-82950000D03*
D11*
X154740000Y-108040000D03*
D10*
X172050000Y-82050000D03*
X180400000Y-109050000D03*
X179500000Y-111750000D03*
X179500000Y-109050000D03*
D11*
X177750000Y-99200000D03*
X162160000Y-104680000D03*
D10*
X172050000Y-83850000D03*
X152150000Y-120950000D03*
X144300000Y-92300000D03*
D11*
X152550000Y-87500000D03*
D10*
X177700000Y-110850000D03*
X145200000Y-90500000D03*
X172950000Y-81150000D03*
X147000000Y-93200000D03*
X176800000Y-109050000D03*
X157925000Y-119800000D03*
D11*
X169540000Y-94360000D03*
X150790000Y-105460000D03*
D10*
X176800000Y-109950000D03*
D11*
X174120000Y-101800000D03*
D10*
X158825000Y-120700000D03*
X171150000Y-81150000D03*
X160625000Y-120700000D03*
X171150000Y-82950000D03*
X163200000Y-87000000D03*
X157025000Y-119800000D03*
X147000000Y-90500000D03*
X144300000Y-90500000D03*
D11*
X166800000Y-99560000D03*
X164010000Y-95390000D03*
D10*
X171150000Y-82050000D03*
X151250000Y-120950000D03*
X180400000Y-109950000D03*
X157025000Y-118900000D03*
D11*
X177700000Y-96250000D03*
D10*
X158825000Y-118900000D03*
X172950000Y-84750000D03*
X152150000Y-117350000D03*
D11*
X171600000Y-87350000D03*
D10*
X177700000Y-109050000D03*
X164000000Y-87800000D03*
X147900000Y-91400000D03*
X178600000Y-110850000D03*
D11*
X164250000Y-101270000D03*
D10*
X159725000Y-118900000D03*
X177700000Y-109950000D03*
X171150000Y-84750000D03*
X160625000Y-118900000D03*
D11*
X163570000Y-103210000D03*
D10*
X170250000Y-82050000D03*
X144300000Y-93200000D03*
X170250000Y-81150000D03*
D11*
X177750000Y-99850000D03*
D10*
X157925000Y-117100000D03*
X146100000Y-91400000D03*
X170250000Y-83850000D03*
D11*
X168950000Y-113000000D03*
D10*
X147900000Y-90500000D03*
X157025000Y-118000000D03*
X176800000Y-111750000D03*
X147900000Y-92300000D03*
X160625000Y-119800000D03*
D11*
X164200000Y-103200000D03*
X149225000Y-106025000D03*
D10*
X157025000Y-120700000D03*
X153950000Y-118250000D03*
D11*
X165720000Y-100140000D03*
X160675000Y-105775000D03*
D10*
X153050000Y-118250000D03*
D11*
X160100000Y-105775000D03*
X158900000Y-110400000D03*
D10*
X160625000Y-117100000D03*
D11*
X156800000Y-113000000D03*
D10*
X153950000Y-119150000D03*
X152150000Y-120050000D03*
X159725000Y-118000000D03*
X177700000Y-111750000D03*
X153950000Y-117350000D03*
X160625000Y-118000000D03*
X157925000Y-118000000D03*
X153050000Y-120050000D03*
X176800000Y-110850000D03*
X159725000Y-120700000D03*
D11*
X164000000Y-94760000D03*
D10*
X146100000Y-90500000D03*
X179500000Y-109950000D03*
D11*
X167950000Y-99570000D03*
D10*
X157025000Y-117100000D03*
X151250000Y-119150000D03*
X172950000Y-82050000D03*
X153050000Y-120950000D03*
X157925000Y-120700000D03*
D11*
X174292500Y-98072500D03*
D10*
X171150000Y-83850000D03*
X152150000Y-118250000D03*
X164000000Y-87000000D03*
X159725000Y-117100000D03*
X153050000Y-119150000D03*
X172050000Y-84750000D03*
X157925000Y-118900000D03*
X147900000Y-93200000D03*
X158825000Y-119800000D03*
X151250000Y-120050000D03*
D11*
X177700000Y-96900000D03*
X162170000Y-105310000D03*
D10*
X179500000Y-110850000D03*
X153050000Y-117350000D03*
X145200000Y-93200000D03*
D12*
%TO.N,M1*%
X157110384Y-91889616D03*
X162600000Y-91600000D03*
%TD*%
%TA.AperFunction,Conductor*%
%TO.N,GND*%
G36*
X178066330Y-80231973D02*
G01*
X178406478Y-80249798D01*
X178419386Y-80251155D01*
X178487264Y-80261905D01*
X178752603Y-80303930D01*
X178765271Y-80306622D01*
X179091166Y-80393945D01*
X179103493Y-80397950D01*
X179418469Y-80518858D01*
X179430305Y-80524127D01*
X179730927Y-80677301D01*
X179742141Y-80683777D01*
X180023900Y-80866753D01*
X180025083Y-80867521D01*
X180035584Y-80875150D01*
X180297765Y-81087461D01*
X180307411Y-81096146D01*
X180545970Y-81334707D01*
X180554654Y-81344353D01*
X180766955Y-81606525D01*
X180774584Y-81617025D01*
X180958326Y-81899965D01*
X180964816Y-81911206D01*
X181117974Y-82211800D01*
X181123253Y-82223657D01*
X181244151Y-82538611D01*
X181248162Y-82550956D01*
X181335477Y-82876832D01*
X181338173Y-82889513D01*
X181390375Y-83219119D01*
X181390947Y-83222730D01*
X181392303Y-83235638D01*
X181398322Y-83350500D01*
X181409832Y-83570165D01*
X181410146Y-83576144D01*
X181410316Y-83582633D01*
X181410316Y-118580328D01*
X181410146Y-118586817D01*
X181392322Y-118926959D01*
X181390965Y-118939867D01*
X181338190Y-119273089D01*
X181335492Y-119285785D01*
X181248178Y-119611654D01*
X181244167Y-119623998D01*
X181123268Y-119938954D01*
X181117989Y-119950811D01*
X180964831Y-120251406D01*
X180958341Y-120262647D01*
X180774602Y-120545583D01*
X180766973Y-120556084D01*
X180554657Y-120818272D01*
X180545972Y-120827917D01*
X180307425Y-121066465D01*
X180297780Y-121075150D01*
X180035593Y-121287465D01*
X180025092Y-121295094D01*
X179742161Y-121478832D01*
X179730921Y-121485322D01*
X179430318Y-121638486D01*
X179418461Y-121643765D01*
X179103510Y-121764663D01*
X179091166Y-121768674D01*
X178836929Y-121836796D01*
X178765340Y-121855979D01*
X178765291Y-121855992D01*
X178752594Y-121858690D01*
X178419388Y-121911463D01*
X178406480Y-121912820D01*
X178066578Y-121930633D01*
X178060089Y-121930803D01*
X146575976Y-121930803D01*
X146569487Y-121930633D01*
X146229344Y-121912809D01*
X146216436Y-121911452D01*
X145883214Y-121858677D01*
X145870518Y-121855979D01*
X145544650Y-121768666D01*
X145532306Y-121764655D01*
X145217350Y-121643756D01*
X145205493Y-121638477D01*
X144904898Y-121485319D01*
X144893657Y-121478829D01*
X144797510Y-121416391D01*
X144610716Y-121295085D01*
X144600227Y-121287465D01*
X144369344Y-121100500D01*
X144338033Y-121075145D01*
X144328388Y-121066460D01*
X144089836Y-120827909D01*
X144081151Y-120818263D01*
X144038740Y-120765890D01*
X143868844Y-120556084D01*
X143861216Y-120545585D01*
X143677475Y-120262649D01*
X143670985Y-120251409D01*
X143517821Y-119950806D01*
X143512542Y-119938948D01*
X143484499Y-119865892D01*
X143391641Y-119623986D01*
X143387637Y-119611664D01*
X143300320Y-119285785D01*
X143297622Y-119273089D01*
X143244847Y-118939867D01*
X143243491Y-118926970D01*
X143225670Y-118586874D01*
X143225500Y-118580385D01*
X143225500Y-116180526D01*
X144774500Y-116180526D01*
X144774500Y-116482079D01*
X144774501Y-116482096D01*
X144813861Y-116781069D01*
X144891913Y-117072363D01*
X145007314Y-117350964D01*
X145007318Y-117350974D01*
X145158099Y-117612134D01*
X145341679Y-117851381D01*
X145341685Y-117851388D01*
X145554914Y-118064617D01*
X145554921Y-118064623D01*
X145794168Y-118248203D01*
X146055328Y-118398984D01*
X146055329Y-118398984D01*
X146055332Y-118398986D01*
X146162043Y-118443187D01*
X146333939Y-118514389D01*
X146333940Y-118514389D01*
X146333942Y-118514390D01*
X146625232Y-118592441D01*
X146924217Y-118631803D01*
X146924224Y-118631803D01*
X147225776Y-118631803D01*
X147225783Y-118631803D01*
X147524768Y-118592441D01*
X147816058Y-118514390D01*
X148094668Y-118398986D01*
X148355832Y-118248203D01*
X148595080Y-118064622D01*
X148808319Y-117851383D01*
X148991900Y-117612135D01*
X149142683Y-117350971D01*
X149258087Y-117072361D01*
X149268337Y-117034108D01*
X163049500Y-117034108D01*
X163049500Y-117165891D01*
X163083608Y-117293187D01*
X163116554Y-117350250D01*
X163149500Y-117407314D01*
X163149502Y-117407316D01*
X163204505Y-117462319D01*
X163237990Y-117523642D01*
X163233006Y-117593334D01*
X163204505Y-117637681D01*
X163149502Y-117692683D01*
X163149500Y-117692686D01*
X163083608Y-117806812D01*
X163049500Y-117934108D01*
X163049500Y-118065891D01*
X163083608Y-118193187D01*
X163101797Y-118224690D01*
X163149500Y-118307314D01*
X163149502Y-118307316D01*
X163204505Y-118362319D01*
X163237990Y-118423642D01*
X163233006Y-118493334D01*
X163204505Y-118537681D01*
X163149502Y-118592683D01*
X163149500Y-118592686D01*
X163083608Y-118706812D01*
X163049500Y-118834108D01*
X163049500Y-118965891D01*
X163083608Y-119093187D01*
X163116554Y-119150250D01*
X163149500Y-119207314D01*
X163149502Y-119207316D01*
X163204505Y-119262319D01*
X163237990Y-119323642D01*
X163233006Y-119393334D01*
X163204505Y-119437681D01*
X163149502Y-119492683D01*
X163149500Y-119492686D01*
X163083608Y-119606812D01*
X163049500Y-119734108D01*
X163049500Y-119865891D01*
X163083608Y-119993187D01*
X163116554Y-120050250D01*
X163149500Y-120107314D01*
X163149502Y-120107316D01*
X163204505Y-120162319D01*
X163237990Y-120223642D01*
X163233006Y-120293334D01*
X163204505Y-120337681D01*
X163149502Y-120392683D01*
X163149500Y-120392686D01*
X163083608Y-120506812D01*
X163049500Y-120634108D01*
X163049500Y-120765891D01*
X163083608Y-120893187D01*
X163116554Y-120950250D01*
X163149500Y-121007314D01*
X163242686Y-121100500D01*
X163356814Y-121166392D01*
X163484108Y-121200500D01*
X163484110Y-121200500D01*
X163615890Y-121200500D01*
X163615892Y-121200500D01*
X163743186Y-121166392D01*
X163857314Y-121100500D01*
X163912319Y-121045495D01*
X163973642Y-121012010D01*
X164043334Y-121016994D01*
X164087681Y-121045495D01*
X164142686Y-121100500D01*
X164256814Y-121166392D01*
X164384108Y-121200500D01*
X164384110Y-121200500D01*
X164515890Y-121200500D01*
X164515892Y-121200500D01*
X164643186Y-121166392D01*
X164757314Y-121100500D01*
X164812319Y-121045495D01*
X164873642Y-121012010D01*
X164943334Y-121016994D01*
X164987681Y-121045495D01*
X165042686Y-121100500D01*
X165156814Y-121166392D01*
X165284108Y-121200500D01*
X165284110Y-121200500D01*
X165415890Y-121200500D01*
X165415892Y-121200500D01*
X165543186Y-121166392D01*
X165657314Y-121100500D01*
X165712319Y-121045495D01*
X165773642Y-121012010D01*
X165843334Y-121016994D01*
X165887681Y-121045495D01*
X165942686Y-121100500D01*
X166056814Y-121166392D01*
X166184108Y-121200500D01*
X166184110Y-121200500D01*
X166315890Y-121200500D01*
X166315892Y-121200500D01*
X166443186Y-121166392D01*
X166557314Y-121100500D01*
X166612319Y-121045495D01*
X166673642Y-121012010D01*
X166743334Y-121016994D01*
X166787681Y-121045495D01*
X166842686Y-121100500D01*
X166956814Y-121166392D01*
X167084108Y-121200500D01*
X167084110Y-121200500D01*
X167215890Y-121200500D01*
X167215892Y-121200500D01*
X167343186Y-121166392D01*
X167457314Y-121100500D01*
X167550500Y-121007314D01*
X167616392Y-120893186D01*
X167650500Y-120765892D01*
X167650500Y-120634108D01*
X167616392Y-120506814D01*
X167550500Y-120392686D01*
X167495495Y-120337681D01*
X167462010Y-120276358D01*
X167466994Y-120206666D01*
X167495495Y-120162319D01*
X167512535Y-120145279D01*
X167550500Y-120107314D01*
X167616392Y-119993186D01*
X167650500Y-119865892D01*
X167650500Y-119734108D01*
X167616392Y-119606814D01*
X167550500Y-119492686D01*
X167495495Y-119437681D01*
X167462010Y-119376358D01*
X167466994Y-119306666D01*
X167495495Y-119262319D01*
X167550500Y-119207314D01*
X167616392Y-119093186D01*
X167650500Y-118965892D01*
X167650500Y-118834108D01*
X167616392Y-118706814D01*
X167550500Y-118592686D01*
X167495495Y-118537681D01*
X167462010Y-118476358D01*
X167466994Y-118406666D01*
X167495495Y-118362319D01*
X167550500Y-118307314D01*
X167616392Y-118193186D01*
X167650500Y-118065892D01*
X167650500Y-117934108D01*
X167616392Y-117806814D01*
X167550500Y-117692686D01*
X167495495Y-117637681D01*
X167462010Y-117576358D01*
X167466994Y-117506666D01*
X167495495Y-117462319D01*
X167515648Y-117442166D01*
X167550500Y-117407314D01*
X167616392Y-117293186D01*
X167618824Y-117284108D01*
X169799500Y-117284108D01*
X169799500Y-117415891D01*
X169833608Y-117543187D01*
X169852760Y-117576358D01*
X169899500Y-117657314D01*
X169899502Y-117657316D01*
X169954505Y-117712319D01*
X169987990Y-117773642D01*
X169983006Y-117843334D01*
X169954505Y-117887681D01*
X169899502Y-117942683D01*
X169899500Y-117942686D01*
X169833608Y-118056812D01*
X169799500Y-118184108D01*
X169799500Y-118315891D01*
X169833608Y-118443187D01*
X169852760Y-118476358D01*
X169899500Y-118557314D01*
X169899502Y-118557316D01*
X169954505Y-118612319D01*
X169987990Y-118673642D01*
X169983006Y-118743334D01*
X169954505Y-118787681D01*
X169899502Y-118842683D01*
X169899500Y-118842686D01*
X169833608Y-118956812D01*
X169799500Y-119084108D01*
X169799500Y-119215891D01*
X169833608Y-119343187D01*
X169852760Y-119376358D01*
X169899500Y-119457314D01*
X169899502Y-119457316D01*
X169954505Y-119512319D01*
X169987990Y-119573642D01*
X169983006Y-119643334D01*
X169954505Y-119687681D01*
X169899502Y-119742683D01*
X169899500Y-119742686D01*
X169833608Y-119856812D01*
X169811600Y-119938948D01*
X169799500Y-119984108D01*
X169799500Y-120115892D01*
X169811940Y-120162319D01*
X169833608Y-120243187D01*
X169852760Y-120276358D01*
X169899500Y-120357314D01*
X169899502Y-120357316D01*
X169954505Y-120412319D01*
X169987990Y-120473642D01*
X169983006Y-120543334D01*
X169954505Y-120587681D01*
X169899502Y-120642683D01*
X169899500Y-120642686D01*
X169833608Y-120756812D01*
X169815789Y-120823316D01*
X169799500Y-120884108D01*
X169799500Y-121015892D01*
X169805032Y-121036538D01*
X169833608Y-121143187D01*
X169866554Y-121200250D01*
X169899500Y-121257314D01*
X169992686Y-121350500D01*
X170106814Y-121416392D01*
X170234108Y-121450500D01*
X170234110Y-121450500D01*
X170365890Y-121450500D01*
X170365892Y-121450500D01*
X170493186Y-121416392D01*
X170607314Y-121350500D01*
X170662319Y-121295495D01*
X170723642Y-121262010D01*
X170793334Y-121266994D01*
X170837681Y-121295495D01*
X170892686Y-121350500D01*
X171006814Y-121416392D01*
X171134108Y-121450500D01*
X171134110Y-121450500D01*
X171265890Y-121450500D01*
X171265892Y-121450500D01*
X171393186Y-121416392D01*
X171507314Y-121350500D01*
X171562319Y-121295495D01*
X171623642Y-121262010D01*
X171693334Y-121266994D01*
X171737681Y-121295495D01*
X171792686Y-121350500D01*
X171906814Y-121416392D01*
X172034108Y-121450500D01*
X172034110Y-121450500D01*
X172165890Y-121450500D01*
X172165892Y-121450500D01*
X172293186Y-121416392D01*
X172407314Y-121350500D01*
X172462319Y-121295495D01*
X172523642Y-121262010D01*
X172593334Y-121266994D01*
X172637681Y-121295495D01*
X172692686Y-121350500D01*
X172806814Y-121416392D01*
X172934108Y-121450500D01*
X172934110Y-121450500D01*
X173065890Y-121450500D01*
X173065892Y-121450500D01*
X173193186Y-121416392D01*
X173307314Y-121350500D01*
X173400500Y-121257314D01*
X173466392Y-121143186D01*
X173500500Y-121015892D01*
X173500500Y-120884108D01*
X173466392Y-120756814D01*
X173400500Y-120642686D01*
X173345495Y-120587681D01*
X173312010Y-120526358D01*
X173316994Y-120456666D01*
X173345495Y-120412319D01*
X173365131Y-120392683D01*
X173400500Y-120357314D01*
X173466392Y-120243186D01*
X173500500Y-120115892D01*
X173500500Y-119984108D01*
X173466392Y-119856814D01*
X173400500Y-119742686D01*
X173345495Y-119687681D01*
X173312010Y-119626358D01*
X173316994Y-119556666D01*
X173345495Y-119512319D01*
X173365131Y-119492683D01*
X173400500Y-119457314D01*
X173466392Y-119343186D01*
X173500500Y-119215892D01*
X173500500Y-119084108D01*
X173466392Y-118956814D01*
X173400500Y-118842686D01*
X173345495Y-118787681D01*
X173312010Y-118726358D01*
X173316994Y-118656666D01*
X173345495Y-118612319D01*
X173370997Y-118586817D01*
X173400500Y-118557314D01*
X173466392Y-118443186D01*
X173500500Y-118315892D01*
X173500500Y-118184108D01*
X173466392Y-118056814D01*
X173400500Y-117942686D01*
X173345495Y-117887681D01*
X173312010Y-117826358D01*
X173316994Y-117756666D01*
X173345495Y-117712319D01*
X173365131Y-117692683D01*
X173400500Y-117657314D01*
X173466392Y-117543186D01*
X173500500Y-117415892D01*
X173500500Y-117284108D01*
X173466392Y-117156814D01*
X173400500Y-117042686D01*
X173307314Y-116949500D01*
X173233380Y-116906814D01*
X173193187Y-116883608D01*
X173129539Y-116866554D01*
X173065892Y-116849500D01*
X172934108Y-116849500D01*
X172806812Y-116883608D01*
X172692686Y-116949500D01*
X172692683Y-116949502D01*
X172637681Y-117004505D01*
X172576358Y-117037990D01*
X172506666Y-117033006D01*
X172462319Y-117004505D01*
X172407316Y-116949502D01*
X172407314Y-116949500D01*
X172333380Y-116906814D01*
X172293187Y-116883608D01*
X172229539Y-116866554D01*
X172165892Y-116849500D01*
X172034108Y-116849500D01*
X171906812Y-116883608D01*
X171792686Y-116949500D01*
X171792683Y-116949502D01*
X171737681Y-117004505D01*
X171676358Y-117037990D01*
X171606666Y-117033006D01*
X171562319Y-117004505D01*
X171507316Y-116949502D01*
X171507314Y-116949500D01*
X171433380Y-116906814D01*
X171393187Y-116883608D01*
X171329539Y-116866554D01*
X171265892Y-116849500D01*
X171134108Y-116849500D01*
X171006812Y-116883608D01*
X170892686Y-116949500D01*
X170892683Y-116949502D01*
X170837681Y-117004505D01*
X170776358Y-117037990D01*
X170706666Y-117033006D01*
X170662319Y-117004505D01*
X170607316Y-116949502D01*
X170607314Y-116949500D01*
X170533380Y-116906814D01*
X170493187Y-116883608D01*
X170429539Y-116866554D01*
X170365892Y-116849500D01*
X170234108Y-116849500D01*
X170106812Y-116883608D01*
X169992686Y-116949500D01*
X169992683Y-116949502D01*
X169899502Y-117042683D01*
X169899500Y-117042686D01*
X169833608Y-117156812D01*
X169799500Y-117284108D01*
X167618824Y-117284108D01*
X167650500Y-117165892D01*
X167650500Y-117034108D01*
X167616392Y-116906814D01*
X167550500Y-116792686D01*
X167457314Y-116699500D01*
X167400250Y-116666554D01*
X167343187Y-116633608D01*
X167279539Y-116616554D01*
X167215892Y-116599500D01*
X167084108Y-116599500D01*
X166956812Y-116633608D01*
X166842686Y-116699500D01*
X166842683Y-116699502D01*
X166787681Y-116754505D01*
X166726358Y-116787990D01*
X166656666Y-116783006D01*
X166612319Y-116754505D01*
X166557316Y-116699502D01*
X166557314Y-116699500D01*
X166500250Y-116666554D01*
X166443187Y-116633608D01*
X166379539Y-116616554D01*
X166315892Y-116599500D01*
X166184108Y-116599500D01*
X166056812Y-116633608D01*
X165942686Y-116699500D01*
X165942683Y-116699502D01*
X165887681Y-116754505D01*
X165826358Y-116787990D01*
X165756666Y-116783006D01*
X165712319Y-116754505D01*
X165657316Y-116699502D01*
X165657314Y-116699500D01*
X165600250Y-116666554D01*
X165543187Y-116633608D01*
X165479539Y-116616554D01*
X165415892Y-116599500D01*
X165284108Y-116599500D01*
X165156812Y-116633608D01*
X165042686Y-116699500D01*
X165042683Y-116699502D01*
X164987681Y-116754505D01*
X164926358Y-116787990D01*
X164856666Y-116783006D01*
X164812319Y-116754505D01*
X164757316Y-116699502D01*
X164757314Y-116699500D01*
X164700250Y-116666554D01*
X164643187Y-116633608D01*
X164579539Y-116616554D01*
X164515892Y-116599500D01*
X164384108Y-116599500D01*
X164256812Y-116633608D01*
X164142686Y-116699500D01*
X164142683Y-116699502D01*
X164087681Y-116754505D01*
X164026358Y-116787990D01*
X163956666Y-116783006D01*
X163912319Y-116754505D01*
X163857316Y-116699502D01*
X163857314Y-116699500D01*
X163800250Y-116666554D01*
X163743187Y-116633608D01*
X163679539Y-116616554D01*
X163615892Y-116599500D01*
X163484108Y-116599500D01*
X163356812Y-116633608D01*
X163242686Y-116699500D01*
X163242683Y-116699502D01*
X163149502Y-116792683D01*
X163149500Y-116792686D01*
X163083608Y-116906812D01*
X163049500Y-117034108D01*
X149268337Y-117034108D01*
X149336138Y-116781071D01*
X149375500Y-116482086D01*
X149375500Y-116180526D01*
X175274500Y-116180526D01*
X175274500Y-116482079D01*
X175274501Y-116482096D01*
X175313861Y-116781069D01*
X175391913Y-117072363D01*
X175507314Y-117350964D01*
X175507318Y-117350974D01*
X175658099Y-117612134D01*
X175841679Y-117851381D01*
X175841685Y-117851388D01*
X176054914Y-118064617D01*
X176054921Y-118064623D01*
X176294168Y-118248203D01*
X176555328Y-118398984D01*
X176555329Y-118398984D01*
X176555332Y-118398986D01*
X176662043Y-118443187D01*
X176833939Y-118514389D01*
X176833940Y-118514389D01*
X176833942Y-118514390D01*
X177125232Y-118592441D01*
X177424217Y-118631803D01*
X177424224Y-118631803D01*
X177725776Y-118631803D01*
X177725783Y-118631803D01*
X178024768Y-118592441D01*
X178316058Y-118514390D01*
X178594668Y-118398986D01*
X178855832Y-118248203D01*
X179095080Y-118064622D01*
X179308319Y-117851383D01*
X179491900Y-117612135D01*
X179642683Y-117350971D01*
X179758087Y-117072361D01*
X179836138Y-116781071D01*
X179875500Y-116482086D01*
X179875500Y-116180520D01*
X179836138Y-115881535D01*
X179758087Y-115590245D01*
X179642683Y-115311635D01*
X179491900Y-115050471D01*
X179308319Y-114811223D01*
X179308314Y-114811217D01*
X179095085Y-114597988D01*
X179095078Y-114597982D01*
X178855831Y-114414402D01*
X178594671Y-114263621D01*
X178594661Y-114263617D01*
X178316060Y-114148216D01*
X178024766Y-114070164D01*
X177725793Y-114030804D01*
X177725788Y-114030803D01*
X177725783Y-114030803D01*
X177424217Y-114030803D01*
X177424211Y-114030803D01*
X177424206Y-114030804D01*
X177125233Y-114070164D01*
X176833939Y-114148216D01*
X176555338Y-114263617D01*
X176555328Y-114263621D01*
X176294168Y-114414402D01*
X176054921Y-114597982D01*
X176054914Y-114597988D01*
X175841685Y-114811217D01*
X175841679Y-114811224D01*
X175658099Y-115050471D01*
X175507318Y-115311631D01*
X175507314Y-115311641D01*
X175391913Y-115590242D01*
X175313861Y-115881536D01*
X175274501Y-116180509D01*
X175274500Y-116180526D01*
X149375500Y-116180526D01*
X149375500Y-116180520D01*
X149336138Y-115881535D01*
X149258087Y-115590245D01*
X149142683Y-115311635D01*
X148991900Y-115050471D01*
X148808319Y-114811223D01*
X148808314Y-114811217D01*
X148595085Y-114597988D01*
X148595078Y-114597982D01*
X148355831Y-114414402D01*
X148094671Y-114263621D01*
X148094661Y-114263617D01*
X147816060Y-114148216D01*
X147524766Y-114070164D01*
X147225793Y-114030804D01*
X147225788Y-114030803D01*
X147225783Y-114030803D01*
X146924217Y-114030803D01*
X146924211Y-114030803D01*
X146924206Y-114030804D01*
X146625233Y-114070164D01*
X146333939Y-114148216D01*
X146055338Y-114263617D01*
X146055328Y-114263621D01*
X145794168Y-114414402D01*
X145554921Y-114597982D01*
X145554914Y-114597988D01*
X145341685Y-114811217D01*
X145341679Y-114811224D01*
X145158099Y-115050471D01*
X145007318Y-115311631D01*
X145007314Y-115311641D01*
X144891913Y-115590242D01*
X144813861Y-115881536D01*
X144774501Y-116180509D01*
X144774500Y-116180526D01*
X143225500Y-116180526D01*
X143225500Y-109034108D01*
X143799500Y-109034108D01*
X143799500Y-109165891D01*
X143833608Y-109293187D01*
X143866554Y-109350250D01*
X143899500Y-109407314D01*
X143899502Y-109407316D01*
X143954505Y-109462319D01*
X143987990Y-109523642D01*
X143983006Y-109593334D01*
X143954505Y-109637681D01*
X143899502Y-109692683D01*
X143899500Y-109692686D01*
X143833608Y-109806812D01*
X143799500Y-109934108D01*
X143799500Y-110065891D01*
X143833608Y-110193187D01*
X143866554Y-110250250D01*
X143899500Y-110307314D01*
X143899502Y-110307316D01*
X143954505Y-110362319D01*
X143987990Y-110423642D01*
X143983006Y-110493334D01*
X143954505Y-110537681D01*
X143899502Y-110592683D01*
X143899500Y-110592686D01*
X143833608Y-110706812D01*
X143799500Y-110834108D01*
X143799500Y-110965891D01*
X143833608Y-111093187D01*
X143866554Y-111150250D01*
X143899500Y-111207314D01*
X143899502Y-111207316D01*
X143954505Y-111262319D01*
X143987990Y-111323642D01*
X143983006Y-111393334D01*
X143954505Y-111437681D01*
X143899502Y-111492683D01*
X143899500Y-111492686D01*
X143833608Y-111606812D01*
X143799500Y-111734108D01*
X143799500Y-111865891D01*
X143833608Y-111993187D01*
X143866554Y-112050250D01*
X143899500Y-112107314D01*
X143992686Y-112200500D01*
X144106814Y-112266392D01*
X144234108Y-112300500D01*
X144234110Y-112300500D01*
X144365890Y-112300500D01*
X144365892Y-112300500D01*
X144493186Y-112266392D01*
X144607314Y-112200500D01*
X144662319Y-112145495D01*
X144723642Y-112112010D01*
X144793334Y-112116994D01*
X144837681Y-112145495D01*
X144892686Y-112200500D01*
X145006814Y-112266392D01*
X145134108Y-112300500D01*
X145134110Y-112300500D01*
X145265890Y-112300500D01*
X145265892Y-112300500D01*
X145393186Y-112266392D01*
X145507314Y-112200500D01*
X145562319Y-112145495D01*
X145623642Y-112112010D01*
X145693334Y-112116994D01*
X145737681Y-112145495D01*
X145792686Y-112200500D01*
X145906814Y-112266392D01*
X146034108Y-112300500D01*
X146034110Y-112300500D01*
X146165890Y-112300500D01*
X146165892Y-112300500D01*
X146293186Y-112266392D01*
X146407314Y-112200500D01*
X146462319Y-112145495D01*
X146523642Y-112112010D01*
X146593334Y-112116994D01*
X146637681Y-112145495D01*
X146692686Y-112200500D01*
X146806814Y-112266392D01*
X146934108Y-112300500D01*
X146934110Y-112300500D01*
X147065890Y-112300500D01*
X147065892Y-112300500D01*
X147193186Y-112266392D01*
X147307314Y-112200500D01*
X147362319Y-112145495D01*
X147423642Y-112112010D01*
X147493334Y-112116994D01*
X147537681Y-112145495D01*
X147592686Y-112200500D01*
X147706814Y-112266392D01*
X147834108Y-112300500D01*
X147834110Y-112300500D01*
X147965890Y-112300500D01*
X147965892Y-112300500D01*
X148093186Y-112266392D01*
X148207314Y-112200500D01*
X148300500Y-112107314D01*
X148366392Y-111993186D01*
X148400500Y-111865892D01*
X148400500Y-111734108D01*
X148366392Y-111606814D01*
X148300500Y-111492686D01*
X148245495Y-111437681D01*
X148212010Y-111376358D01*
X148216994Y-111306666D01*
X148245495Y-111262319D01*
X148300500Y-111207314D01*
X148366392Y-111093186D01*
X148400500Y-110965892D01*
X148400500Y-110834108D01*
X148366392Y-110706814D01*
X148300500Y-110592686D01*
X148245495Y-110537681D01*
X148212010Y-110476358D01*
X148216994Y-110406666D01*
X148245495Y-110362319D01*
X148300500Y-110307314D01*
X148366392Y-110193186D01*
X148400500Y-110065892D01*
X148400500Y-109934108D01*
X148366392Y-109806814D01*
X148300500Y-109692686D01*
X148245495Y-109637681D01*
X148212010Y-109576358D01*
X148216994Y-109506666D01*
X148245495Y-109462319D01*
X148300500Y-109407314D01*
X148366392Y-109293186D01*
X148400500Y-109165892D01*
X148400500Y-109034108D01*
X148366392Y-108906814D01*
X148300500Y-108792686D01*
X148207314Y-108699500D01*
X148150250Y-108666554D01*
X148093187Y-108633608D01*
X148029539Y-108616554D01*
X147965892Y-108599500D01*
X147834108Y-108599500D01*
X147706812Y-108633608D01*
X147592686Y-108699500D01*
X147592683Y-108699502D01*
X147537681Y-108754505D01*
X147476358Y-108787990D01*
X147406666Y-108783006D01*
X147362319Y-108754505D01*
X147307316Y-108699502D01*
X147307314Y-108699500D01*
X147250250Y-108666554D01*
X147193187Y-108633608D01*
X147129539Y-108616554D01*
X147065892Y-108599500D01*
X146934108Y-108599500D01*
X146806812Y-108633608D01*
X146692686Y-108699500D01*
X146692683Y-108699502D01*
X146637681Y-108754505D01*
X146576358Y-108787990D01*
X146506666Y-108783006D01*
X146462319Y-108754505D01*
X146407316Y-108699502D01*
X146407314Y-108699500D01*
X146350250Y-108666554D01*
X146293187Y-108633608D01*
X146229539Y-108616554D01*
X146165892Y-108599500D01*
X146034108Y-108599500D01*
X145906812Y-108633608D01*
X145792686Y-108699500D01*
X145792683Y-108699502D01*
X145737681Y-108754505D01*
X145676358Y-108787990D01*
X145606666Y-108783006D01*
X145562319Y-108754505D01*
X145507316Y-108699502D01*
X145507314Y-108699500D01*
X145450250Y-108666554D01*
X145393187Y-108633608D01*
X145329539Y-108616554D01*
X145265892Y-108599500D01*
X145134108Y-108599500D01*
X145006812Y-108633608D01*
X144892686Y-108699500D01*
X144892683Y-108699502D01*
X144837681Y-108754505D01*
X144776358Y-108787990D01*
X144706666Y-108783006D01*
X144662319Y-108754505D01*
X144607316Y-108699502D01*
X144607314Y-108699500D01*
X144550250Y-108666554D01*
X144493187Y-108633608D01*
X144429539Y-108616554D01*
X144365892Y-108599500D01*
X144234108Y-108599500D01*
X144106812Y-108633608D01*
X143992686Y-108699500D01*
X143992683Y-108699502D01*
X143899502Y-108792683D01*
X143899500Y-108792686D01*
X143833608Y-108906812D01*
X143799500Y-109034108D01*
X143225500Y-109034108D01*
X143225500Y-106522273D01*
X164749500Y-106522273D01*
X164749500Y-106627727D01*
X164776793Y-106729587D01*
X164815871Y-106797273D01*
X164817735Y-106800500D01*
X164834208Y-106868400D01*
X164817735Y-106924500D01*
X164776794Y-106995410D01*
X164776793Y-106995413D01*
X164749500Y-107097273D01*
X164749500Y-107202727D01*
X164776793Y-107304587D01*
X164829520Y-107395913D01*
X164904087Y-107470480D01*
X164995413Y-107523207D01*
X165097273Y-107550500D01*
X165097275Y-107550500D01*
X165202725Y-107550500D01*
X165202727Y-107550500D01*
X165304587Y-107523207D01*
X165395913Y-107470480D01*
X165470480Y-107395913D01*
X165519566Y-107310892D01*
X165570132Y-107262678D01*
X165638739Y-107249455D01*
X165643143Y-107249956D01*
X165647273Y-107250500D01*
X165752725Y-107250500D01*
X165752727Y-107250500D01*
X165854587Y-107223207D01*
X165945913Y-107170480D01*
X166020480Y-107095913D01*
X166073207Y-107004587D01*
X166100500Y-106902727D01*
X166100500Y-106797273D01*
X166073207Y-106695413D01*
X166020480Y-106604087D01*
X165945913Y-106529520D01*
X165854587Y-106476793D01*
X165752727Y-106449500D01*
X165647273Y-106449500D01*
X165647272Y-106449500D01*
X165647263Y-106449501D01*
X165646261Y-106449770D01*
X165645383Y-106449749D01*
X165639217Y-106450561D01*
X165639090Y-106449598D01*
X165576412Y-106448098D01*
X165518555Y-106408928D01*
X165506800Y-106391995D01*
X165470480Y-106329087D01*
X165395913Y-106254520D01*
X165304587Y-106201793D01*
X165202727Y-106174500D01*
X165097273Y-106174500D01*
X164995413Y-106201793D01*
X164995410Y-106201794D01*
X164904085Y-106254521D01*
X164829521Y-106329085D01*
X164776794Y-106420410D01*
X164776793Y-106420413D01*
X164749500Y-106522273D01*
X143225500Y-106522273D01*
X143225500Y-100847273D01*
X150399500Y-100847273D01*
X150399500Y-100952727D01*
X150426793Y-101054587D01*
X150479520Y-101145913D01*
X150554087Y-101220480D01*
X150645413Y-101273207D01*
X150747273Y-101300500D01*
X150747275Y-101300500D01*
X150852725Y-101300500D01*
X150852727Y-101300500D01*
X150954587Y-101273207D01*
X151045913Y-101220480D01*
X151120480Y-101145913D01*
X151173207Y-101054587D01*
X151200500Y-100952727D01*
X151200500Y-100847273D01*
X151173207Y-100745413D01*
X151120480Y-100654087D01*
X151045913Y-100579520D01*
X150954587Y-100526793D01*
X150852727Y-100499500D01*
X150747273Y-100499500D01*
X150645413Y-100526793D01*
X150645410Y-100526794D01*
X150554085Y-100579521D01*
X150479521Y-100654085D01*
X150426794Y-100745410D01*
X150426793Y-100745413D01*
X150399500Y-100847273D01*
X143225500Y-100847273D01*
X143225500Y-98557273D01*
X161749500Y-98557273D01*
X161749500Y-98662727D01*
X161776793Y-98764587D01*
X161829520Y-98855913D01*
X161904087Y-98930480D01*
X161995413Y-98983207D01*
X162097273Y-99010500D01*
X162097275Y-99010500D01*
X162202725Y-99010500D01*
X162202727Y-99010500D01*
X162202728Y-99010499D01*
X162210783Y-99009439D01*
X162211200Y-99012611D01*
X162265998Y-99013882D01*
X162323885Y-99053009D01*
X162335700Y-99070015D01*
X162379520Y-99145913D01*
X162454087Y-99220480D01*
X162545413Y-99273207D01*
X162647273Y-99300500D01*
X162647275Y-99300500D01*
X162752725Y-99300500D01*
X162752727Y-99300500D01*
X162854587Y-99273207D01*
X162945913Y-99220480D01*
X163020480Y-99145913D01*
X163073207Y-99054587D01*
X163100500Y-98952727D01*
X163100500Y-98847273D01*
X163073207Y-98745413D01*
X163039480Y-98686997D01*
X163023008Y-98619102D01*
X163039480Y-98563003D01*
X163073207Y-98504587D01*
X163100500Y-98402727D01*
X163100500Y-98297273D01*
X163073207Y-98195413D01*
X163020480Y-98104087D01*
X162945913Y-98029520D01*
X162854587Y-97976793D01*
X162752727Y-97949500D01*
X162647273Y-97949500D01*
X162545413Y-97976793D01*
X162545410Y-97976794D01*
X162454085Y-98029521D01*
X162379521Y-98104085D01*
X162350700Y-98154003D01*
X162300132Y-98202218D01*
X162231524Y-98215439D01*
X162211223Y-98211776D01*
X162202731Y-98209500D01*
X162202727Y-98209500D01*
X162097273Y-98209500D01*
X161995413Y-98236793D01*
X161995410Y-98236794D01*
X161904085Y-98289521D01*
X161829521Y-98364085D01*
X161776794Y-98455410D01*
X161776793Y-98455413D01*
X161749500Y-98557273D01*
X143225500Y-98557273D01*
X143225500Y-91830307D01*
X156659884Y-91830307D01*
X156659884Y-91948925D01*
X156690585Y-92063502D01*
X156749895Y-92166229D01*
X156833771Y-92250105D01*
X156936498Y-92309415D01*
X157051075Y-92340116D01*
X157051078Y-92340116D01*
X157169690Y-92340116D01*
X157169693Y-92340116D01*
X157284270Y-92309415D01*
X157386997Y-92250105D01*
X157470873Y-92166229D01*
X157530183Y-92063502D01*
X157560884Y-91948925D01*
X157560884Y-91830307D01*
X157530183Y-91715730D01*
X157470873Y-91613003D01*
X157398561Y-91540691D01*
X162149500Y-91540691D01*
X162149500Y-91659309D01*
X162180201Y-91773886D01*
X162239511Y-91876613D01*
X162323387Y-91960489D01*
X162426114Y-92019799D01*
X162540691Y-92050500D01*
X162540694Y-92050500D01*
X162659306Y-92050500D01*
X162659309Y-92050500D01*
X162773886Y-92019799D01*
X162876613Y-91960489D01*
X162960489Y-91876613D01*
X163019799Y-91773886D01*
X163050500Y-91659309D01*
X163050500Y-91540691D01*
X163019799Y-91426114D01*
X162960489Y-91323387D01*
X162876613Y-91239511D01*
X162773886Y-91180201D01*
X162659309Y-91149500D01*
X162540691Y-91149500D01*
X162426114Y-91180201D01*
X162426112Y-91180201D01*
X162426112Y-91180202D01*
X162323387Y-91239511D01*
X162323384Y-91239513D01*
X162239513Y-91323384D01*
X162239511Y-91323387D01*
X162180201Y-91426114D01*
X162149500Y-91540691D01*
X157398561Y-91540691D01*
X157386997Y-91529127D01*
X157284270Y-91469817D01*
X157169693Y-91439116D01*
X157051075Y-91439116D01*
X156936498Y-91469817D01*
X156936496Y-91469817D01*
X156936496Y-91469818D01*
X156833771Y-91529127D01*
X156833768Y-91529129D01*
X156749897Y-91613000D01*
X156749895Y-91613003D01*
X156695445Y-91707313D01*
X156690585Y-91715730D01*
X156659884Y-91830307D01*
X143225500Y-91830307D01*
X143225500Y-90434108D01*
X176249500Y-90434108D01*
X176249500Y-90565891D01*
X176283608Y-90693187D01*
X176316554Y-90750250D01*
X176349500Y-90807314D01*
X176349502Y-90807316D01*
X176404505Y-90862319D01*
X176437990Y-90923642D01*
X176433006Y-90993334D01*
X176404505Y-91037681D01*
X176349502Y-91092683D01*
X176349500Y-91092686D01*
X176283608Y-91206812D01*
X176249500Y-91334108D01*
X176249500Y-91465891D01*
X176283608Y-91593187D01*
X176316554Y-91650250D01*
X176349500Y-91707314D01*
X176349502Y-91707316D01*
X176404505Y-91762319D01*
X176437990Y-91823642D01*
X176433006Y-91893334D01*
X176404505Y-91937681D01*
X176349502Y-91992683D01*
X176349500Y-91992686D01*
X176283608Y-92106812D01*
X176249500Y-92234108D01*
X176249500Y-92365891D01*
X176283608Y-92493187D01*
X176316554Y-92550250D01*
X176349500Y-92607314D01*
X176349502Y-92607316D01*
X176404505Y-92662319D01*
X176437990Y-92723642D01*
X176433006Y-92793334D01*
X176404505Y-92837681D01*
X176349502Y-92892683D01*
X176349500Y-92892686D01*
X176283608Y-93006812D01*
X176249500Y-93134108D01*
X176249500Y-93265891D01*
X176283608Y-93393187D01*
X176316554Y-93450250D01*
X176349500Y-93507314D01*
X176442686Y-93600500D01*
X176556814Y-93666392D01*
X176684108Y-93700500D01*
X176684110Y-93700500D01*
X176815890Y-93700500D01*
X176815892Y-93700500D01*
X176943186Y-93666392D01*
X177057314Y-93600500D01*
X177112319Y-93545495D01*
X177173642Y-93512010D01*
X177243334Y-93516994D01*
X177287681Y-93545495D01*
X177342686Y-93600500D01*
X177456814Y-93666392D01*
X177584108Y-93700500D01*
X177584110Y-93700500D01*
X177715890Y-93700500D01*
X177715892Y-93700500D01*
X177843186Y-93666392D01*
X177957314Y-93600500D01*
X178012319Y-93545495D01*
X178073642Y-93512010D01*
X178143334Y-93516994D01*
X178187681Y-93545495D01*
X178242686Y-93600500D01*
X178356814Y-93666392D01*
X178484108Y-93700500D01*
X178484110Y-93700500D01*
X178615890Y-93700500D01*
X178615892Y-93700500D01*
X178743186Y-93666392D01*
X178857314Y-93600500D01*
X178912319Y-93545495D01*
X178973642Y-93512010D01*
X179043334Y-93516994D01*
X179087681Y-93545495D01*
X179142686Y-93600500D01*
X179256814Y-93666392D01*
X179384108Y-93700500D01*
X179384110Y-93700500D01*
X179515890Y-93700500D01*
X179515892Y-93700500D01*
X179643186Y-93666392D01*
X179757314Y-93600500D01*
X179812319Y-93545495D01*
X179873642Y-93512010D01*
X179943334Y-93516994D01*
X179987681Y-93545495D01*
X180042686Y-93600500D01*
X180156814Y-93666392D01*
X180284108Y-93700500D01*
X180284110Y-93700500D01*
X180415890Y-93700500D01*
X180415892Y-93700500D01*
X180543186Y-93666392D01*
X180657314Y-93600500D01*
X180750500Y-93507314D01*
X180816392Y-93393186D01*
X180850500Y-93265892D01*
X180850500Y-93134108D01*
X180816392Y-93006814D01*
X180750500Y-92892686D01*
X180695495Y-92837681D01*
X180662010Y-92776358D01*
X180666994Y-92706666D01*
X180695495Y-92662319D01*
X180750500Y-92607314D01*
X180816392Y-92493186D01*
X180850500Y-92365892D01*
X180850500Y-92234108D01*
X180816392Y-92106814D01*
X180750500Y-91992686D01*
X180695495Y-91937681D01*
X180662010Y-91876358D01*
X180666994Y-91806666D01*
X180695495Y-91762319D01*
X180750500Y-91707314D01*
X180816392Y-91593186D01*
X180850500Y-91465892D01*
X180850500Y-91334108D01*
X180816392Y-91206814D01*
X180750500Y-91092686D01*
X180695495Y-91037681D01*
X180662010Y-90976358D01*
X180666994Y-90906666D01*
X180695495Y-90862319D01*
X180750500Y-90807314D01*
X180816392Y-90693186D01*
X180850500Y-90565892D01*
X180850500Y-90434108D01*
X180816392Y-90306814D01*
X180750500Y-90192686D01*
X180657314Y-90099500D01*
X180600250Y-90066554D01*
X180543187Y-90033608D01*
X180479539Y-90016554D01*
X180415892Y-89999500D01*
X180284108Y-89999500D01*
X180156812Y-90033608D01*
X180042686Y-90099500D01*
X180042683Y-90099502D01*
X179987681Y-90154505D01*
X179926358Y-90187990D01*
X179856666Y-90183006D01*
X179812319Y-90154505D01*
X179757316Y-90099502D01*
X179757314Y-90099500D01*
X179700250Y-90066554D01*
X179643187Y-90033608D01*
X179579539Y-90016554D01*
X179515892Y-89999500D01*
X179384108Y-89999500D01*
X179256812Y-90033608D01*
X179142686Y-90099500D01*
X179142683Y-90099502D01*
X179087681Y-90154505D01*
X179026358Y-90187990D01*
X178956666Y-90183006D01*
X178912319Y-90154505D01*
X178857316Y-90099502D01*
X178857314Y-90099500D01*
X178800250Y-90066554D01*
X178743187Y-90033608D01*
X178679539Y-90016554D01*
X178615892Y-89999500D01*
X178484108Y-89999500D01*
X178356812Y-90033608D01*
X178242686Y-90099500D01*
X178242683Y-90099502D01*
X178187681Y-90154505D01*
X178126358Y-90187990D01*
X178056666Y-90183006D01*
X178012319Y-90154505D01*
X177957316Y-90099502D01*
X177957314Y-90099500D01*
X177900250Y-90066554D01*
X177843187Y-90033608D01*
X177779539Y-90016554D01*
X177715892Y-89999500D01*
X177584108Y-89999500D01*
X177456812Y-90033608D01*
X177342686Y-90099500D01*
X177342683Y-90099502D01*
X177287681Y-90154505D01*
X177226358Y-90187990D01*
X177156666Y-90183006D01*
X177112319Y-90154505D01*
X177057316Y-90099502D01*
X177057314Y-90099500D01*
X177000250Y-90066554D01*
X176943187Y-90033608D01*
X176879539Y-90016554D01*
X176815892Y-89999500D01*
X176684108Y-89999500D01*
X176556812Y-90033608D01*
X176442686Y-90099500D01*
X176442683Y-90099502D01*
X176349502Y-90192683D01*
X176349500Y-90192686D01*
X176283608Y-90306812D01*
X176249500Y-90434108D01*
X143225500Y-90434108D01*
X143225500Y-85680526D01*
X144774500Y-85680526D01*
X144774500Y-85982079D01*
X144774501Y-85982096D01*
X144813861Y-86281069D01*
X144891913Y-86572363D01*
X145007314Y-86850964D01*
X145007318Y-86850974D01*
X145158099Y-87112134D01*
X145341679Y-87351381D01*
X145341685Y-87351388D01*
X145554914Y-87564617D01*
X145554921Y-87564623D01*
X145794168Y-87748203D01*
X146055328Y-87898984D01*
X146055329Y-87898984D01*
X146055332Y-87898986D01*
X146241072Y-87975922D01*
X146333939Y-88014389D01*
X146333940Y-88014389D01*
X146333942Y-88014390D01*
X146625232Y-88092441D01*
X146924217Y-88131803D01*
X146924224Y-88131803D01*
X147225776Y-88131803D01*
X147225783Y-88131803D01*
X147524768Y-88092441D01*
X147816058Y-88014390D01*
X148094668Y-87898986D01*
X148355832Y-87748203D01*
X148595080Y-87564622D01*
X148808319Y-87351383D01*
X148991900Y-87112135D01*
X149142683Y-86850971D01*
X149258087Y-86572361D01*
X149336138Y-86281071D01*
X149375500Y-85982086D01*
X149375500Y-85680526D01*
X175274500Y-85680526D01*
X175274500Y-85982079D01*
X175274501Y-85982096D01*
X175313861Y-86281069D01*
X175391913Y-86572363D01*
X175507314Y-86850964D01*
X175507318Y-86850974D01*
X175658099Y-87112134D01*
X175841679Y-87351381D01*
X175841685Y-87351388D01*
X176054914Y-87564617D01*
X176054921Y-87564623D01*
X176294168Y-87748203D01*
X176555328Y-87898984D01*
X176555329Y-87898984D01*
X176555332Y-87898986D01*
X176741072Y-87975922D01*
X176833939Y-88014389D01*
X176833940Y-88014389D01*
X176833942Y-88014390D01*
X177125232Y-88092441D01*
X177424217Y-88131803D01*
X177424224Y-88131803D01*
X177725776Y-88131803D01*
X177725783Y-88131803D01*
X178024768Y-88092441D01*
X178316058Y-88014390D01*
X178594668Y-87898986D01*
X178855832Y-87748203D01*
X179095080Y-87564622D01*
X179308319Y-87351383D01*
X179491900Y-87112135D01*
X179642683Y-86850971D01*
X179758087Y-86572361D01*
X179836138Y-86281071D01*
X179875500Y-85982086D01*
X179875500Y-85680520D01*
X179836138Y-85381535D01*
X179758087Y-85090245D01*
X179744447Y-85057316D01*
X179698731Y-84946947D01*
X179642683Y-84811635D01*
X179569056Y-84684110D01*
X179491900Y-84550471D01*
X179308320Y-84311224D01*
X179308314Y-84311217D01*
X179095085Y-84097988D01*
X179095078Y-84097982D01*
X178855831Y-83914402D01*
X178594671Y-83763621D01*
X178594661Y-83763617D01*
X178316060Y-83648216D01*
X178024766Y-83570164D01*
X177725793Y-83530804D01*
X177725788Y-83530803D01*
X177725783Y-83530803D01*
X177424217Y-83530803D01*
X177424211Y-83530803D01*
X177424206Y-83530804D01*
X177125233Y-83570164D01*
X176833939Y-83648216D01*
X176555338Y-83763617D01*
X176555328Y-83763621D01*
X176294168Y-83914402D01*
X176054921Y-84097982D01*
X176054914Y-84097988D01*
X175841685Y-84311217D01*
X175841679Y-84311224D01*
X175658099Y-84550471D01*
X175507318Y-84811631D01*
X175507314Y-84811641D01*
X175391913Y-85090242D01*
X175313861Y-85381536D01*
X175274501Y-85680509D01*
X175274500Y-85680526D01*
X149375500Y-85680526D01*
X149375500Y-85680520D01*
X149336138Y-85381535D01*
X149258087Y-85090245D01*
X149244447Y-85057316D01*
X149198731Y-84946947D01*
X149142683Y-84811635D01*
X149069056Y-84684110D01*
X148991900Y-84550471D01*
X148808320Y-84311224D01*
X148808314Y-84311217D01*
X148595085Y-84097988D01*
X148595078Y-84097982D01*
X148355831Y-83914402D01*
X148094671Y-83763621D01*
X148094661Y-83763617D01*
X147816060Y-83648216D01*
X147524766Y-83570164D01*
X147225793Y-83530804D01*
X147225788Y-83530803D01*
X147225783Y-83530803D01*
X146924217Y-83530803D01*
X146924211Y-83530803D01*
X146924206Y-83530804D01*
X146625233Y-83570164D01*
X146333939Y-83648216D01*
X146055338Y-83763617D01*
X146055328Y-83763621D01*
X145794168Y-83914402D01*
X145554921Y-84097982D01*
X145554914Y-84097988D01*
X145341685Y-84311217D01*
X145341679Y-84311224D01*
X145158099Y-84550471D01*
X145007318Y-84811631D01*
X145007314Y-84811641D01*
X144891913Y-85090242D01*
X144813861Y-85381536D01*
X144774501Y-85680509D01*
X144774500Y-85680526D01*
X143225500Y-85680526D01*
X143225500Y-83578246D01*
X143225670Y-83571757D01*
X143243474Y-83232028D01*
X143244831Y-83219119D01*
X143252361Y-83171577D01*
X143297541Y-82886324D01*
X143300234Y-82873648D01*
X143387449Y-82548159D01*
X143391453Y-82535837D01*
X143512212Y-82221248D01*
X143517476Y-82209426D01*
X143670458Y-81909179D01*
X143676940Y-81897953D01*
X143860459Y-81615359D01*
X143868074Y-81604878D01*
X144080138Y-81343000D01*
X144088806Y-81333374D01*
X144327072Y-81095107D01*
X144336697Y-81086440D01*
X144339577Y-81084108D01*
X150749500Y-81084108D01*
X150749500Y-81215891D01*
X150783608Y-81343187D01*
X150816554Y-81400250D01*
X150849500Y-81457314D01*
X150849502Y-81457316D01*
X150904505Y-81512319D01*
X150937990Y-81573642D01*
X150933006Y-81643334D01*
X150904505Y-81687681D01*
X150849502Y-81742683D01*
X150849500Y-81742686D01*
X150783608Y-81856812D01*
X150749500Y-81984108D01*
X150749500Y-82115891D01*
X150783608Y-82243187D01*
X150816554Y-82300250D01*
X150849500Y-82357314D01*
X150849502Y-82357316D01*
X150904505Y-82412319D01*
X150937990Y-82473642D01*
X150933006Y-82543334D01*
X150904505Y-82587681D01*
X150849502Y-82642683D01*
X150849500Y-82642686D01*
X150783608Y-82756812D01*
X150749500Y-82884108D01*
X150749500Y-83015891D01*
X150783608Y-83143187D01*
X150816554Y-83200250D01*
X150849500Y-83257314D01*
X150849502Y-83257316D01*
X150904505Y-83312319D01*
X150937990Y-83373642D01*
X150933006Y-83443334D01*
X150904505Y-83487681D01*
X150849502Y-83542683D01*
X150849500Y-83542686D01*
X150783608Y-83656812D01*
X150749500Y-83784108D01*
X150749500Y-83915891D01*
X150783608Y-84043187D01*
X150815245Y-84097982D01*
X150849500Y-84157314D01*
X150849502Y-84157316D01*
X150904505Y-84212319D01*
X150937990Y-84273642D01*
X150933006Y-84343334D01*
X150904505Y-84387681D01*
X150849502Y-84442683D01*
X150849500Y-84442686D01*
X150783608Y-84556812D01*
X150749500Y-84684108D01*
X150749500Y-84815891D01*
X150783608Y-84943187D01*
X150816554Y-85000250D01*
X150849500Y-85057314D01*
X150942686Y-85150500D01*
X151056814Y-85216392D01*
X151184108Y-85250500D01*
X151184110Y-85250500D01*
X151315890Y-85250500D01*
X151315892Y-85250500D01*
X151443186Y-85216392D01*
X151557314Y-85150500D01*
X151612319Y-85095495D01*
X151673642Y-85062010D01*
X151743334Y-85066994D01*
X151787681Y-85095495D01*
X151842686Y-85150500D01*
X151956814Y-85216392D01*
X152084108Y-85250500D01*
X152084110Y-85250500D01*
X152215890Y-85250500D01*
X152215892Y-85250500D01*
X152343186Y-85216392D01*
X152457314Y-85150500D01*
X152512319Y-85095495D01*
X152573642Y-85062010D01*
X152643334Y-85066994D01*
X152687681Y-85095495D01*
X152742686Y-85150500D01*
X152856814Y-85216392D01*
X152984108Y-85250500D01*
X152984110Y-85250500D01*
X153115890Y-85250500D01*
X153115892Y-85250500D01*
X153243186Y-85216392D01*
X153357314Y-85150500D01*
X153412319Y-85095495D01*
X153473642Y-85062010D01*
X153543334Y-85066994D01*
X153587681Y-85095495D01*
X153642686Y-85150500D01*
X153756814Y-85216392D01*
X153884108Y-85250500D01*
X153884110Y-85250500D01*
X154015890Y-85250500D01*
X154015892Y-85250500D01*
X154143186Y-85216392D01*
X154257314Y-85150500D01*
X154350500Y-85057314D01*
X154416392Y-84943186D01*
X154450500Y-84815892D01*
X154450500Y-84684108D01*
X154416392Y-84556814D01*
X154350500Y-84442686D01*
X154295495Y-84387681D01*
X154262010Y-84326358D01*
X154266994Y-84256666D01*
X154295495Y-84212319D01*
X154350500Y-84157314D01*
X154416392Y-84043186D01*
X154450500Y-83915892D01*
X154450500Y-83784108D01*
X154416392Y-83656814D01*
X154350500Y-83542686D01*
X154295495Y-83487681D01*
X154262010Y-83426358D01*
X154266994Y-83356666D01*
X154295495Y-83312319D01*
X154350500Y-83257314D01*
X154416392Y-83143186D01*
X154450500Y-83015892D01*
X154450500Y-82884108D01*
X154416392Y-82756814D01*
X154350500Y-82642686D01*
X154295495Y-82587681D01*
X154262010Y-82526358D01*
X154266994Y-82456666D01*
X154295495Y-82412319D01*
X154350500Y-82357314D01*
X154416392Y-82243186D01*
X154450500Y-82115892D01*
X154450500Y-81984108D01*
X154416392Y-81856814D01*
X154350500Y-81742686D01*
X154295495Y-81687681D01*
X154262010Y-81626358D01*
X154266994Y-81556666D01*
X154295495Y-81512319D01*
X154350500Y-81457314D01*
X154416392Y-81343186D01*
X154450500Y-81215892D01*
X154450500Y-81084108D01*
X154416392Y-80956814D01*
X154350500Y-80842686D01*
X154257314Y-80749500D01*
X154200250Y-80716554D01*
X154143187Y-80683608D01*
X154079539Y-80666554D01*
X154015892Y-80649500D01*
X153884108Y-80649500D01*
X153756812Y-80683608D01*
X153642686Y-80749500D01*
X153642683Y-80749502D01*
X153587681Y-80804505D01*
X153526358Y-80837990D01*
X153456666Y-80833006D01*
X153412319Y-80804505D01*
X153357316Y-80749502D01*
X153357314Y-80749500D01*
X153300250Y-80716554D01*
X153243187Y-80683608D01*
X153179539Y-80666554D01*
X153115892Y-80649500D01*
X152984108Y-80649500D01*
X152856812Y-80683608D01*
X152742686Y-80749500D01*
X152742683Y-80749502D01*
X152687681Y-80804505D01*
X152626358Y-80837990D01*
X152556666Y-80833006D01*
X152512319Y-80804505D01*
X152457316Y-80749502D01*
X152457314Y-80749500D01*
X152400250Y-80716554D01*
X152343187Y-80683608D01*
X152279539Y-80666554D01*
X152215892Y-80649500D01*
X152084108Y-80649500D01*
X151956812Y-80683608D01*
X151842686Y-80749500D01*
X151842683Y-80749502D01*
X151787681Y-80804505D01*
X151726358Y-80837990D01*
X151656666Y-80833006D01*
X151612319Y-80804505D01*
X151557316Y-80749502D01*
X151557314Y-80749500D01*
X151500250Y-80716554D01*
X151443187Y-80683608D01*
X151379539Y-80666554D01*
X151315892Y-80649500D01*
X151184108Y-80649500D01*
X151056812Y-80683608D01*
X150942686Y-80749500D01*
X150942683Y-80749502D01*
X150849502Y-80842683D01*
X150849500Y-80842686D01*
X150783608Y-80956812D01*
X150749500Y-81084108D01*
X144339577Y-81084108D01*
X144598576Y-80874375D01*
X144609057Y-80866760D01*
X144891664Y-80683233D01*
X144902862Y-80676767D01*
X145203123Y-80523777D01*
X145214945Y-80518513D01*
X145529534Y-80397754D01*
X145541856Y-80393750D01*
X145867345Y-80306534D01*
X145880020Y-80303841D01*
X146212818Y-80251131D01*
X146225722Y-80249775D01*
X146565396Y-80231972D01*
X146571886Y-80231803D01*
X146603048Y-80231803D01*
X178028735Y-80231803D01*
X178059841Y-80231803D01*
X178066330Y-80231973D01*
G37*
%TD.AperFunction*%
%TD*%
M02*
