%TF.GenerationSoftware,KiCad,Pcbnew,9.0.7*%
%TF.CreationDate,2026-04-25T19:56:43+02:00*%
%TF.ProjectId,M-PDB,4d2d5044-422e-46b6-9963-61645f706362,rev?*%
%TF.SameCoordinates,Original*%
%TF.FileFunction,Legend,Bot*%
%TF.FilePolarity,Positive*%
%FSLAX46Y46*%
G04 Gerber Fmt 4.6, Leading zero omitted, Abs format (unit mm)*
G04 Created by KiCad (PCBNEW 9.0.7) date 2026-04-25 19:56:43*
%MOMM*%
%LPD*%
G01*
G04 APERTURE LIST*
%ADD10C,0.150000*%
G04 APERTURE END LIST*
D10*
X160179887Y-115296009D02*
X160037030Y-115343628D01*
X160037030Y-115343628D02*
X159989411Y-115391247D01*
X159989411Y-115391247D02*
X159941792Y-115486485D01*
X159941792Y-115486485D02*
X159941792Y-115629342D01*
X159941792Y-115629342D02*
X159989411Y-115724580D01*
X159989411Y-115724580D02*
X160037030Y-115772200D01*
X160037030Y-115772200D02*
X160132268Y-115819819D01*
X160132268Y-115819819D02*
X160513220Y-115819819D01*
X160513220Y-115819819D02*
X160513220Y-114819819D01*
X160513220Y-114819819D02*
X160179887Y-114819819D01*
X160179887Y-114819819D02*
X160084649Y-114867438D01*
X160084649Y-114867438D02*
X160037030Y-114915057D01*
X160037030Y-114915057D02*
X159989411Y-115010295D01*
X159989411Y-115010295D02*
X159989411Y-115105533D01*
X159989411Y-115105533D02*
X160037030Y-115200771D01*
X160037030Y-115200771D02*
X160084649Y-115248390D01*
X160084649Y-115248390D02*
X160179887Y-115296009D01*
X160179887Y-115296009D02*
X160513220Y-115296009D01*
X159560839Y-115534104D02*
X159084649Y-115534104D01*
X159656077Y-115819819D02*
X159322744Y-114819819D01*
X159322744Y-114819819D02*
X158989411Y-115819819D01*
X158798934Y-114819819D02*
X158227506Y-114819819D01*
X158513220Y-115819819D02*
X158513220Y-114819819D01*
X158037029Y-114819819D02*
X157465601Y-114819819D01*
X157751315Y-115819819D02*
X157751315Y-114819819D01*
X157132267Y-115438866D02*
X156370363Y-115438866D01*
X171236779Y-85911133D02*
X171998684Y-85911133D01*
X166729887Y-115296009D02*
X166587030Y-115343628D01*
X166587030Y-115343628D02*
X166539411Y-115391247D01*
X166539411Y-115391247D02*
X166491792Y-115486485D01*
X166491792Y-115486485D02*
X166491792Y-115629342D01*
X166491792Y-115629342D02*
X166539411Y-115724580D01*
X166539411Y-115724580D02*
X166587030Y-115772200D01*
X166587030Y-115772200D02*
X166682268Y-115819819D01*
X166682268Y-115819819D02*
X167063220Y-115819819D01*
X167063220Y-115819819D02*
X167063220Y-114819819D01*
X167063220Y-114819819D02*
X166729887Y-114819819D01*
X166729887Y-114819819D02*
X166634649Y-114867438D01*
X166634649Y-114867438D02*
X166587030Y-114915057D01*
X166587030Y-114915057D02*
X166539411Y-115010295D01*
X166539411Y-115010295D02*
X166539411Y-115105533D01*
X166539411Y-115105533D02*
X166587030Y-115200771D01*
X166587030Y-115200771D02*
X166634649Y-115248390D01*
X166634649Y-115248390D02*
X166729887Y-115296009D01*
X166729887Y-115296009D02*
X167063220Y-115296009D01*
X166110839Y-115534104D02*
X165634649Y-115534104D01*
X166206077Y-115819819D02*
X165872744Y-114819819D01*
X165872744Y-114819819D02*
X165539411Y-115819819D01*
X165348934Y-114819819D02*
X164777506Y-114819819D01*
X165063220Y-115819819D02*
X165063220Y-114819819D01*
X164587029Y-114819819D02*
X164015601Y-114819819D01*
X164301315Y-115819819D02*
X164301315Y-114819819D01*
X163682267Y-115438866D02*
X162920363Y-115438866D01*
X163301315Y-115819819D02*
X163301315Y-115057914D01*
X175611133Y-110663220D02*
X175611133Y-109901316D01*
X175963220Y-91938866D02*
X175201316Y-91938866D01*
X175582268Y-92319819D02*
X175582268Y-91557914D01*
X161122744Y-95039987D02*
X160932268Y-95039987D01*
X160932268Y-95039987D02*
X160837030Y-95087606D01*
X160837030Y-95087606D02*
X160741792Y-95182844D01*
X160741792Y-95182844D02*
X160694173Y-95373320D01*
X160694173Y-95373320D02*
X160694173Y-95706653D01*
X160694173Y-95706653D02*
X160741792Y-95897129D01*
X160741792Y-95897129D02*
X160837030Y-95992368D01*
X160837030Y-95992368D02*
X160932268Y-96039987D01*
X160932268Y-96039987D02*
X161122744Y-96039987D01*
X161122744Y-96039987D02*
X161217982Y-95992368D01*
X161217982Y-95992368D02*
X161313220Y-95897129D01*
X161313220Y-95897129D02*
X161360839Y-95706653D01*
X161360839Y-95706653D02*
X161360839Y-95373320D01*
X161360839Y-95373320D02*
X161313220Y-95182844D01*
X161313220Y-95182844D02*
X161217982Y-95087606D01*
X161217982Y-95087606D02*
X161122744Y-95039987D01*
X160265601Y-95373320D02*
X160265601Y-96373320D01*
X160265601Y-95420939D02*
X160170363Y-95373320D01*
X160170363Y-95373320D02*
X159979887Y-95373320D01*
X159979887Y-95373320D02*
X159884649Y-95420939D01*
X159884649Y-95420939D02*
X159837030Y-95468558D01*
X159837030Y-95468558D02*
X159789411Y-95563796D01*
X159789411Y-95563796D02*
X159789411Y-95849510D01*
X159789411Y-95849510D02*
X159837030Y-95944748D01*
X159837030Y-95944748D02*
X159884649Y-95992368D01*
X159884649Y-95992368D02*
X159979887Y-96039987D01*
X159979887Y-96039987D02*
X160170363Y-96039987D01*
X160170363Y-96039987D02*
X160265601Y-95992368D01*
X158979887Y-95992368D02*
X159075125Y-96039987D01*
X159075125Y-96039987D02*
X159265601Y-96039987D01*
X159265601Y-96039987D02*
X159360839Y-95992368D01*
X159360839Y-95992368D02*
X159408458Y-95897129D01*
X159408458Y-95897129D02*
X159408458Y-95516177D01*
X159408458Y-95516177D02*
X159360839Y-95420939D01*
X159360839Y-95420939D02*
X159265601Y-95373320D01*
X159265601Y-95373320D02*
X159075125Y-95373320D01*
X159075125Y-95373320D02*
X158979887Y-95420939D01*
X158979887Y-95420939D02*
X158932268Y-95516177D01*
X158932268Y-95516177D02*
X158932268Y-95611415D01*
X158932268Y-95611415D02*
X159408458Y-95706653D01*
X158503696Y-95373320D02*
X158503696Y-96039987D01*
X158503696Y-95468558D02*
X158456077Y-95420939D01*
X158456077Y-95420939D02*
X158360839Y-95373320D01*
X158360839Y-95373320D02*
X158217982Y-95373320D01*
X158217982Y-95373320D02*
X158122744Y-95420939D01*
X158122744Y-95420939D02*
X158075125Y-95516177D01*
X158075125Y-95516177D02*
X158075125Y-96039987D01*
X157598934Y-95659034D02*
X156837030Y-95659034D01*
X156360839Y-96039987D02*
X156360839Y-95039987D01*
X156360839Y-95039987D02*
X155979887Y-95039987D01*
X155979887Y-95039987D02*
X155884649Y-95087606D01*
X155884649Y-95087606D02*
X155837030Y-95135225D01*
X155837030Y-95135225D02*
X155789411Y-95230463D01*
X155789411Y-95230463D02*
X155789411Y-95373320D01*
X155789411Y-95373320D02*
X155837030Y-95468558D01*
X155837030Y-95468558D02*
X155884649Y-95516177D01*
X155884649Y-95516177D02*
X155979887Y-95563796D01*
X155979887Y-95563796D02*
X156360839Y-95563796D01*
X155360839Y-96039987D02*
X155360839Y-95039987D01*
X155360839Y-95039987D02*
X155122744Y-95039987D01*
X155122744Y-95039987D02*
X154979887Y-95087606D01*
X154979887Y-95087606D02*
X154884649Y-95182844D01*
X154884649Y-95182844D02*
X154837030Y-95278082D01*
X154837030Y-95278082D02*
X154789411Y-95468558D01*
X154789411Y-95468558D02*
X154789411Y-95611415D01*
X154789411Y-95611415D02*
X154837030Y-95801891D01*
X154837030Y-95801891D02*
X154884649Y-95897129D01*
X154884649Y-95897129D02*
X154979887Y-95992368D01*
X154979887Y-95992368D02*
X155122744Y-96039987D01*
X155122744Y-96039987D02*
X155360839Y-96039987D01*
X154027506Y-95516177D02*
X153884649Y-95563796D01*
X153884649Y-95563796D02*
X153837030Y-95611415D01*
X153837030Y-95611415D02*
X153789411Y-95706653D01*
X153789411Y-95706653D02*
X153789411Y-95849510D01*
X153789411Y-95849510D02*
X153837030Y-95944748D01*
X153837030Y-95944748D02*
X153884649Y-95992368D01*
X153884649Y-95992368D02*
X153979887Y-96039987D01*
X153979887Y-96039987D02*
X154360839Y-96039987D01*
X154360839Y-96039987D02*
X154360839Y-95039987D01*
X154360839Y-95039987D02*
X154027506Y-95039987D01*
X154027506Y-95039987D02*
X153932268Y-95087606D01*
X153932268Y-95087606D02*
X153884649Y-95135225D01*
X153884649Y-95135225D02*
X153837030Y-95230463D01*
X153837030Y-95230463D02*
X153837030Y-95325701D01*
X153837030Y-95325701D02*
X153884649Y-95420939D01*
X153884649Y-95420939D02*
X153932268Y-95468558D01*
X153932268Y-95468558D02*
X154027506Y-95516177D01*
X154027506Y-95516177D02*
X154360839Y-95516177D01*
X161313220Y-97649931D02*
X161313220Y-96649931D01*
X160837030Y-97649931D02*
X160837030Y-96649931D01*
X160837030Y-96649931D02*
X160265602Y-97649931D01*
X160265602Y-97649931D02*
X160265602Y-96649931D01*
X159789411Y-97554692D02*
X159741792Y-97602312D01*
X159741792Y-97602312D02*
X159789411Y-97649931D01*
X159789411Y-97649931D02*
X159837030Y-97602312D01*
X159837030Y-97602312D02*
X159789411Y-97554692D01*
X159789411Y-97554692D02*
X159789411Y-97649931D01*
X159789411Y-97030883D02*
X159741792Y-97078502D01*
X159741792Y-97078502D02*
X159789411Y-97126121D01*
X159789411Y-97126121D02*
X159837030Y-97078502D01*
X159837030Y-97078502D02*
X159789411Y-97030883D01*
X159789411Y-97030883D02*
X159789411Y-97126121D01*
X158646554Y-96649931D02*
X158027507Y-96649931D01*
X158027507Y-96649931D02*
X158360840Y-97030883D01*
X158360840Y-97030883D02*
X158217983Y-97030883D01*
X158217983Y-97030883D02*
X158122745Y-97078502D01*
X158122745Y-97078502D02*
X158075126Y-97126121D01*
X158075126Y-97126121D02*
X158027507Y-97221359D01*
X158027507Y-97221359D02*
X158027507Y-97459454D01*
X158027507Y-97459454D02*
X158075126Y-97554692D01*
X158075126Y-97554692D02*
X158122745Y-97602312D01*
X158122745Y-97602312D02*
X158217983Y-97649931D01*
X158217983Y-97649931D02*
X158503697Y-97649931D01*
X158503697Y-97649931D02*
X158598935Y-97602312D01*
X158598935Y-97602312D02*
X158646554Y-97554692D01*
X157598935Y-97268978D02*
X156837031Y-97268978D01*
X155932269Y-96649931D02*
X156122745Y-96649931D01*
X156122745Y-96649931D02*
X156217983Y-96697550D01*
X156217983Y-96697550D02*
X156265602Y-96745169D01*
X156265602Y-96745169D02*
X156360840Y-96888026D01*
X156360840Y-96888026D02*
X156408459Y-97078502D01*
X156408459Y-97078502D02*
X156408459Y-97459454D01*
X156408459Y-97459454D02*
X156360840Y-97554692D01*
X156360840Y-97554692D02*
X156313221Y-97602312D01*
X156313221Y-97602312D02*
X156217983Y-97649931D01*
X156217983Y-97649931D02*
X156027507Y-97649931D01*
X156027507Y-97649931D02*
X155932269Y-97602312D01*
X155932269Y-97602312D02*
X155884650Y-97554692D01*
X155884650Y-97554692D02*
X155837031Y-97459454D01*
X155837031Y-97459454D02*
X155837031Y-97221359D01*
X155837031Y-97221359D02*
X155884650Y-97126121D01*
X155884650Y-97126121D02*
X155932269Y-97078502D01*
X155932269Y-97078502D02*
X156027507Y-97030883D01*
X156027507Y-97030883D02*
X156217983Y-97030883D01*
X156217983Y-97030883D02*
X156313221Y-97078502D01*
X156313221Y-97078502D02*
X156360840Y-97126121D01*
X156360840Y-97126121D02*
X156408459Y-97221359D01*
X155456078Y-97602312D02*
X155313221Y-97649931D01*
X155313221Y-97649931D02*
X155075126Y-97649931D01*
X155075126Y-97649931D02*
X154979888Y-97602312D01*
X154979888Y-97602312D02*
X154932269Y-97554692D01*
X154932269Y-97554692D02*
X154884650Y-97459454D01*
X154884650Y-97459454D02*
X154884650Y-97364216D01*
X154884650Y-97364216D02*
X154932269Y-97268978D01*
X154932269Y-97268978D02*
X154979888Y-97221359D01*
X154979888Y-97221359D02*
X155075126Y-97173740D01*
X155075126Y-97173740D02*
X155265602Y-97126121D01*
X155265602Y-97126121D02*
X155360840Y-97078502D01*
X155360840Y-97078502D02*
X155408459Y-97030883D01*
X155408459Y-97030883D02*
X155456078Y-96935645D01*
X155456078Y-96935645D02*
X155456078Y-96840407D01*
X155456078Y-96840407D02*
X155408459Y-96745169D01*
X155408459Y-96745169D02*
X155360840Y-96697550D01*
X155360840Y-96697550D02*
X155265602Y-96649931D01*
X155265602Y-96649931D02*
X155027507Y-96649931D01*
X155027507Y-96649931D02*
X154884650Y-96697550D01*
X153551316Y-97649931D02*
X153646554Y-97602312D01*
X153646554Y-97602312D02*
X153694173Y-97507073D01*
X153694173Y-97507073D02*
X153694173Y-96649931D01*
X153170363Y-97649931D02*
X153170363Y-96983264D01*
X153170363Y-96649931D02*
X153217982Y-96697550D01*
X153217982Y-96697550D02*
X153170363Y-96745169D01*
X153170363Y-96745169D02*
X153122744Y-96697550D01*
X153122744Y-96697550D02*
X153170363Y-96649931D01*
X153170363Y-96649931D02*
X153170363Y-96745169D01*
X152694173Y-96983264D02*
X152694173Y-97983264D01*
X152694173Y-97030883D02*
X152598935Y-96983264D01*
X152598935Y-96983264D02*
X152408459Y-96983264D01*
X152408459Y-96983264D02*
X152313221Y-97030883D01*
X152313221Y-97030883D02*
X152265602Y-97078502D01*
X152265602Y-97078502D02*
X152217983Y-97173740D01*
X152217983Y-97173740D02*
X152217983Y-97459454D01*
X152217983Y-97459454D02*
X152265602Y-97554692D01*
X152265602Y-97554692D02*
X152313221Y-97602312D01*
X152313221Y-97602312D02*
X152408459Y-97649931D01*
X152408459Y-97649931D02*
X152598935Y-97649931D01*
X152598935Y-97649931D02*
X152694173Y-97602312D01*
X151646554Y-97649931D02*
X151741792Y-97602312D01*
X151741792Y-97602312D02*
X151789411Y-97554692D01*
X151789411Y-97554692D02*
X151837030Y-97459454D01*
X151837030Y-97459454D02*
X151837030Y-97173740D01*
X151837030Y-97173740D02*
X151789411Y-97078502D01*
X151789411Y-97078502D02*
X151741792Y-97030883D01*
X151741792Y-97030883D02*
X151646554Y-96983264D01*
X151646554Y-96983264D02*
X151503697Y-96983264D01*
X151503697Y-96983264D02*
X151408459Y-97030883D01*
X151408459Y-97030883D02*
X151360840Y-97078502D01*
X151360840Y-97078502D02*
X151313221Y-97173740D01*
X151313221Y-97173740D02*
X151313221Y-97459454D01*
X151313221Y-97459454D02*
X151360840Y-97554692D01*
X151360840Y-97554692D02*
X151408459Y-97602312D01*
X151408459Y-97602312D02*
X151503697Y-97649931D01*
X151503697Y-97649931D02*
X151646554Y-97649931D01*
X160979887Y-98736065D02*
X160837030Y-98783684D01*
X160837030Y-98783684D02*
X160789411Y-98831303D01*
X160789411Y-98831303D02*
X160741792Y-98926541D01*
X160741792Y-98926541D02*
X160741792Y-99069398D01*
X160741792Y-99069398D02*
X160789411Y-99164636D01*
X160789411Y-99164636D02*
X160837030Y-99212256D01*
X160837030Y-99212256D02*
X160932268Y-99259875D01*
X160932268Y-99259875D02*
X161313220Y-99259875D01*
X161313220Y-99259875D02*
X161313220Y-98259875D01*
X161313220Y-98259875D02*
X160979887Y-98259875D01*
X160979887Y-98259875D02*
X160884649Y-98307494D01*
X160884649Y-98307494D02*
X160837030Y-98355113D01*
X160837030Y-98355113D02*
X160789411Y-98450351D01*
X160789411Y-98450351D02*
X160789411Y-98545589D01*
X160789411Y-98545589D02*
X160837030Y-98640827D01*
X160837030Y-98640827D02*
X160884649Y-98688446D01*
X160884649Y-98688446D02*
X160979887Y-98736065D01*
X160979887Y-98736065D02*
X161313220Y-98736065D01*
X160313220Y-98736065D02*
X159979887Y-98736065D01*
X159837030Y-99259875D02*
X160313220Y-99259875D01*
X160313220Y-99259875D02*
X160313220Y-98259875D01*
X160313220Y-98259875D02*
X159837030Y-98259875D01*
X158837030Y-99164636D02*
X158884649Y-99212256D01*
X158884649Y-99212256D02*
X159027506Y-99259875D01*
X159027506Y-99259875D02*
X159122744Y-99259875D01*
X159122744Y-99259875D02*
X159265601Y-99212256D01*
X159265601Y-99212256D02*
X159360839Y-99117017D01*
X159360839Y-99117017D02*
X159408458Y-99021779D01*
X159408458Y-99021779D02*
X159456077Y-98831303D01*
X159456077Y-98831303D02*
X159456077Y-98688446D01*
X159456077Y-98688446D02*
X159408458Y-98497970D01*
X159408458Y-98497970D02*
X159360839Y-98402732D01*
X159360839Y-98402732D02*
X159265601Y-98307494D01*
X159265601Y-98307494D02*
X159122744Y-98259875D01*
X159122744Y-98259875D02*
X159027506Y-98259875D01*
X159027506Y-98259875D02*
X158884649Y-98307494D01*
X158884649Y-98307494D02*
X158837030Y-98355113D01*
X158408458Y-99164636D02*
X158360839Y-99212256D01*
X158360839Y-99212256D02*
X158408458Y-99259875D01*
X158408458Y-99259875D02*
X158456077Y-99212256D01*
X158456077Y-99212256D02*
X158408458Y-99164636D01*
X158408458Y-99164636D02*
X158408458Y-99259875D01*
X158408458Y-98640827D02*
X158360839Y-98688446D01*
X158360839Y-98688446D02*
X158408458Y-98736065D01*
X158408458Y-98736065D02*
X158456077Y-98688446D01*
X158456077Y-98688446D02*
X158408458Y-98640827D01*
X158408458Y-98640827D02*
X158408458Y-98736065D01*
X156694173Y-98259875D02*
X157170363Y-98259875D01*
X157170363Y-98259875D02*
X157217982Y-98736065D01*
X157217982Y-98736065D02*
X157170363Y-98688446D01*
X157170363Y-98688446D02*
X157075125Y-98640827D01*
X157075125Y-98640827D02*
X156837030Y-98640827D01*
X156837030Y-98640827D02*
X156741792Y-98688446D01*
X156741792Y-98688446D02*
X156694173Y-98736065D01*
X156694173Y-98736065D02*
X156646554Y-98831303D01*
X156646554Y-98831303D02*
X156646554Y-99069398D01*
X156646554Y-99069398D02*
X156694173Y-99164636D01*
X156694173Y-99164636D02*
X156741792Y-99212256D01*
X156741792Y-99212256D02*
X156837030Y-99259875D01*
X156837030Y-99259875D02*
X157075125Y-99259875D01*
X157075125Y-99259875D02*
X157170363Y-99212256D01*
X157170363Y-99212256D02*
X157217982Y-99164636D01*
X156360839Y-98259875D02*
X156027506Y-99259875D01*
X156027506Y-99259875D02*
X155694173Y-98259875D01*
X154646553Y-98355113D02*
X154598934Y-98307494D01*
X154598934Y-98307494D02*
X154503696Y-98259875D01*
X154503696Y-98259875D02*
X154265601Y-98259875D01*
X154265601Y-98259875D02*
X154170363Y-98307494D01*
X154170363Y-98307494D02*
X154122744Y-98355113D01*
X154122744Y-98355113D02*
X154075125Y-98450351D01*
X154075125Y-98450351D02*
X154075125Y-98545589D01*
X154075125Y-98545589D02*
X154122744Y-98688446D01*
X154122744Y-98688446D02*
X154694172Y-99259875D01*
X154694172Y-99259875D02*
X154075125Y-99259875D01*
X153646553Y-99164636D02*
X153598934Y-99212256D01*
X153598934Y-99212256D02*
X153646553Y-99259875D01*
X153646553Y-99259875D02*
X153694172Y-99212256D01*
X153694172Y-99212256D02*
X153646553Y-99164636D01*
X153646553Y-99164636D02*
X153646553Y-99259875D01*
X152694173Y-98259875D02*
X153170363Y-98259875D01*
X153170363Y-98259875D02*
X153217982Y-98736065D01*
X153217982Y-98736065D02*
X153170363Y-98688446D01*
X153170363Y-98688446D02*
X153075125Y-98640827D01*
X153075125Y-98640827D02*
X152837030Y-98640827D01*
X152837030Y-98640827D02*
X152741792Y-98688446D01*
X152741792Y-98688446D02*
X152694173Y-98736065D01*
X152694173Y-98736065D02*
X152646554Y-98831303D01*
X152646554Y-98831303D02*
X152646554Y-99069398D01*
X152646554Y-99069398D02*
X152694173Y-99164636D01*
X152694173Y-99164636D02*
X152741792Y-99212256D01*
X152741792Y-99212256D02*
X152837030Y-99259875D01*
X152837030Y-99259875D02*
X153075125Y-99259875D01*
X153075125Y-99259875D02*
X153170363Y-99212256D01*
X153170363Y-99212256D02*
X153217982Y-99164636D01*
X152265601Y-98974160D02*
X151789411Y-98974160D01*
X152360839Y-99259875D02*
X152027506Y-98259875D01*
X152027506Y-98259875D02*
X151694173Y-99259875D01*
X151313220Y-99212256D02*
X151313220Y-99259875D01*
X151313220Y-99259875D02*
X151360839Y-99355113D01*
X151360839Y-99355113D02*
X151408458Y-99402732D01*
X150075125Y-99259875D02*
X149884649Y-99259875D01*
X149884649Y-99259875D02*
X149789411Y-99212256D01*
X149789411Y-99212256D02*
X149741792Y-99164636D01*
X149741792Y-99164636D02*
X149646554Y-99021779D01*
X149646554Y-99021779D02*
X149598935Y-98831303D01*
X149598935Y-98831303D02*
X149598935Y-98450351D01*
X149598935Y-98450351D02*
X149646554Y-98355113D01*
X149646554Y-98355113D02*
X149694173Y-98307494D01*
X149694173Y-98307494D02*
X149789411Y-98259875D01*
X149789411Y-98259875D02*
X149979887Y-98259875D01*
X149979887Y-98259875D02*
X150075125Y-98307494D01*
X150075125Y-98307494D02*
X150122744Y-98355113D01*
X150122744Y-98355113D02*
X150170363Y-98450351D01*
X150170363Y-98450351D02*
X150170363Y-98688446D01*
X150170363Y-98688446D02*
X150122744Y-98783684D01*
X150122744Y-98783684D02*
X150075125Y-98831303D01*
X150075125Y-98831303D02*
X149979887Y-98878922D01*
X149979887Y-98878922D02*
X149789411Y-98878922D01*
X149789411Y-98878922D02*
X149694173Y-98831303D01*
X149694173Y-98831303D02*
X149646554Y-98783684D01*
X149646554Y-98783684D02*
X149598935Y-98688446D01*
X149313220Y-98259875D02*
X148979887Y-99259875D01*
X148979887Y-99259875D02*
X148646554Y-98259875D01*
X147598934Y-98355113D02*
X147551315Y-98307494D01*
X147551315Y-98307494D02*
X147456077Y-98259875D01*
X147456077Y-98259875D02*
X147217982Y-98259875D01*
X147217982Y-98259875D02*
X147122744Y-98307494D01*
X147122744Y-98307494D02*
X147075125Y-98355113D01*
X147075125Y-98355113D02*
X147027506Y-98450351D01*
X147027506Y-98450351D02*
X147027506Y-98545589D01*
X147027506Y-98545589D02*
X147075125Y-98688446D01*
X147075125Y-98688446D02*
X147646553Y-99259875D01*
X147646553Y-99259875D02*
X147027506Y-99259875D01*
X146598934Y-99164636D02*
X146551315Y-99212256D01*
X146551315Y-99212256D02*
X146598934Y-99259875D01*
X146598934Y-99259875D02*
X146646553Y-99212256D01*
X146646553Y-99212256D02*
X146598934Y-99164636D01*
X146598934Y-99164636D02*
X146598934Y-99259875D01*
X145646554Y-98259875D02*
X146122744Y-98259875D01*
X146122744Y-98259875D02*
X146170363Y-98736065D01*
X146170363Y-98736065D02*
X146122744Y-98688446D01*
X146122744Y-98688446D02*
X146027506Y-98640827D01*
X146027506Y-98640827D02*
X145789411Y-98640827D01*
X145789411Y-98640827D02*
X145694173Y-98688446D01*
X145694173Y-98688446D02*
X145646554Y-98736065D01*
X145646554Y-98736065D02*
X145598935Y-98831303D01*
X145598935Y-98831303D02*
X145598935Y-99069398D01*
X145598935Y-99069398D02*
X145646554Y-99164636D01*
X145646554Y-99164636D02*
X145694173Y-99212256D01*
X145694173Y-99212256D02*
X145789411Y-99259875D01*
X145789411Y-99259875D02*
X146027506Y-99259875D01*
X146027506Y-99259875D02*
X146122744Y-99212256D01*
X146122744Y-99212256D02*
X146170363Y-99164636D01*
X145217982Y-98974160D02*
X144741792Y-98974160D01*
X145313220Y-99259875D02*
X144979887Y-98259875D01*
X144979887Y-98259875D02*
X144646554Y-99259875D01*
X161313220Y-100869819D02*
X161313220Y-99869819D01*
X161313220Y-99869819D02*
X160932268Y-99869819D01*
X160932268Y-99869819D02*
X160837030Y-99917438D01*
X160837030Y-99917438D02*
X160789411Y-99965057D01*
X160789411Y-99965057D02*
X160741792Y-100060295D01*
X160741792Y-100060295D02*
X160741792Y-100203152D01*
X160741792Y-100203152D02*
X160789411Y-100298390D01*
X160789411Y-100298390D02*
X160837030Y-100346009D01*
X160837030Y-100346009D02*
X160932268Y-100393628D01*
X160932268Y-100393628D02*
X161313220Y-100393628D01*
X160313220Y-100869819D02*
X160313220Y-99869819D01*
X160313220Y-99869819D02*
X160075125Y-99869819D01*
X160075125Y-99869819D02*
X159932268Y-99917438D01*
X159932268Y-99917438D02*
X159837030Y-100012676D01*
X159837030Y-100012676D02*
X159789411Y-100107914D01*
X159789411Y-100107914D02*
X159741792Y-100298390D01*
X159741792Y-100298390D02*
X159741792Y-100441247D01*
X159741792Y-100441247D02*
X159789411Y-100631723D01*
X159789411Y-100631723D02*
X159837030Y-100726961D01*
X159837030Y-100726961D02*
X159932268Y-100822200D01*
X159932268Y-100822200D02*
X160075125Y-100869819D01*
X160075125Y-100869819D02*
X160313220Y-100869819D01*
X158979887Y-100346009D02*
X158837030Y-100393628D01*
X158837030Y-100393628D02*
X158789411Y-100441247D01*
X158789411Y-100441247D02*
X158741792Y-100536485D01*
X158741792Y-100536485D02*
X158741792Y-100679342D01*
X158741792Y-100679342D02*
X158789411Y-100774580D01*
X158789411Y-100774580D02*
X158837030Y-100822200D01*
X158837030Y-100822200D02*
X158932268Y-100869819D01*
X158932268Y-100869819D02*
X159313220Y-100869819D01*
X159313220Y-100869819D02*
X159313220Y-99869819D01*
X159313220Y-99869819D02*
X158979887Y-99869819D01*
X158979887Y-99869819D02*
X158884649Y-99917438D01*
X158884649Y-99917438D02*
X158837030Y-99965057D01*
X158837030Y-99965057D02*
X158789411Y-100060295D01*
X158789411Y-100060295D02*
X158789411Y-100155533D01*
X158789411Y-100155533D02*
X158837030Y-100250771D01*
X158837030Y-100250771D02*
X158884649Y-100298390D01*
X158884649Y-100298390D02*
X158979887Y-100346009D01*
X158979887Y-100346009D02*
X159313220Y-100346009D01*
X158313220Y-100774580D02*
X158265601Y-100822200D01*
X158265601Y-100822200D02*
X158313220Y-100869819D01*
X158313220Y-100869819D02*
X158360839Y-100822200D01*
X158360839Y-100822200D02*
X158313220Y-100774580D01*
X158313220Y-100774580D02*
X158313220Y-100869819D01*
X158313220Y-100250771D02*
X158265601Y-100298390D01*
X158265601Y-100298390D02*
X158313220Y-100346009D01*
X158313220Y-100346009D02*
X158360839Y-100298390D01*
X158360839Y-100298390D02*
X158313220Y-100250771D01*
X158313220Y-100250771D02*
X158313220Y-100346009D01*
X156646554Y-100203152D02*
X156646554Y-100869819D01*
X156884649Y-99822200D02*
X157122744Y-100536485D01*
X157122744Y-100536485D02*
X156503697Y-100536485D01*
X156217982Y-100869819D02*
X155694173Y-100203152D01*
X156217982Y-100203152D02*
X155694173Y-100869819D01*
X155408458Y-99869819D02*
X154789411Y-99869819D01*
X154789411Y-99869819D02*
X155122744Y-100250771D01*
X155122744Y-100250771D02*
X154979887Y-100250771D01*
X154979887Y-100250771D02*
X154884649Y-100298390D01*
X154884649Y-100298390D02*
X154837030Y-100346009D01*
X154837030Y-100346009D02*
X154789411Y-100441247D01*
X154789411Y-100441247D02*
X154789411Y-100679342D01*
X154789411Y-100679342D02*
X154837030Y-100774580D01*
X154837030Y-100774580D02*
X154884649Y-100822200D01*
X154884649Y-100822200D02*
X154979887Y-100869819D01*
X154979887Y-100869819D02*
X155265601Y-100869819D01*
X155265601Y-100869819D02*
X155360839Y-100822200D01*
X155360839Y-100822200D02*
X155408458Y-100774580D01*
X154170363Y-99869819D02*
X154075125Y-99869819D01*
X154075125Y-99869819D02*
X153979887Y-99917438D01*
X153979887Y-99917438D02*
X153932268Y-99965057D01*
X153932268Y-99965057D02*
X153884649Y-100060295D01*
X153884649Y-100060295D02*
X153837030Y-100250771D01*
X153837030Y-100250771D02*
X153837030Y-100488866D01*
X153837030Y-100488866D02*
X153884649Y-100679342D01*
X153884649Y-100679342D02*
X153932268Y-100774580D01*
X153932268Y-100774580D02*
X153979887Y-100822200D01*
X153979887Y-100822200D02*
X154075125Y-100869819D01*
X154075125Y-100869819D02*
X154170363Y-100869819D01*
X154170363Y-100869819D02*
X154265601Y-100822200D01*
X154265601Y-100822200D02*
X154313220Y-100774580D01*
X154313220Y-100774580D02*
X154360839Y-100679342D01*
X154360839Y-100679342D02*
X154408458Y-100488866D01*
X154408458Y-100488866D02*
X154408458Y-100250771D01*
X154408458Y-100250771D02*
X154360839Y-100060295D01*
X154360839Y-100060295D02*
X154313220Y-99965057D01*
X154313220Y-99965057D02*
X154265601Y-99917438D01*
X154265601Y-99917438D02*
X154170363Y-99869819D01*
X153456077Y-100584104D02*
X152979887Y-100584104D01*
X153551315Y-100869819D02*
X153217982Y-99869819D01*
X153217982Y-99869819D02*
X152884649Y-100869819D01*
X152963220Y-85888866D02*
X152201316Y-85888866D01*
X152582268Y-86269819D02*
X152582268Y-85507914D01*
X149463220Y-110388866D02*
X148701316Y-110388866D01*
X149082268Y-110769819D02*
X149082268Y-110007914D01*
X152286779Y-116311133D02*
X153048684Y-116311133D01*
X171963220Y-116188866D02*
X171201316Y-116188866D01*
X171582268Y-116569819D02*
X171582268Y-115807914D01*
X149088866Y-91386779D02*
X149088866Y-92148684D01*
M02*
