%TF.GenerationSoftware,KiCad,Pcbnew,9.0.7*%
%TF.CreationDate,2026-04-25T19:56:43+02:00*%
%TF.ProjectId,M-PDB,4d2d5044-422e-46b6-9963-61645f706362,rev?*%
%TF.SameCoordinates,Original*%
%TF.FileFunction,Legend,Top*%
%TF.FilePolarity,Positive*%
%FSLAX46Y46*%
G04 Gerber Fmt 4.6, Leading zero omitted, Abs format (unit mm)*
G04 Created by KiCad (PCBNEW 9.0.7) date 2026-04-25 19:56:43*
%MOMM*%
%LPD*%
G01*
G04 APERTURE LIST*
%ADD10C,0.150000*%
%ADD11C,0.120000*%
%ADD12C,0.254000*%
%ADD13C,0.127000*%
%ADD14C,0.200000*%
G04 APERTURE END LIST*
D10*
X177800000Y-101100000D02*
X177800000Y-102750000D01*
X177800000Y-103350000D02*
X177800000Y-105000000D01*
X177800000Y-105600000D02*
X177800000Y-107250000D01*
X177800000Y-107350000D02*
X179450000Y-107350000D01*
X180050000Y-107350000D02*
X180700000Y-107350000D01*
X177800000Y-101100000D02*
X179450000Y-101100000D01*
X180050000Y-101100000D02*
X180700000Y-101100000D01*
X148961133Y-91636779D02*
X148961133Y-92398684D01*
X151886779Y-115269819D02*
X151886779Y-114269819D01*
X151886779Y-114269819D02*
X152220112Y-114984104D01*
X152220112Y-114984104D02*
X152553445Y-114269819D01*
X152553445Y-114269819D02*
X152553445Y-115269819D01*
X152934398Y-114269819D02*
X153553445Y-114269819D01*
X153553445Y-114269819D02*
X153220112Y-114650771D01*
X153220112Y-114650771D02*
X153362969Y-114650771D01*
X153362969Y-114650771D02*
X153458207Y-114698390D01*
X153458207Y-114698390D02*
X153505826Y-114746009D01*
X153505826Y-114746009D02*
X153553445Y-114841247D01*
X153553445Y-114841247D02*
X153553445Y-115079342D01*
X153553445Y-115079342D02*
X153505826Y-115174580D01*
X153505826Y-115174580D02*
X153458207Y-115222200D01*
X153458207Y-115222200D02*
X153362969Y-115269819D01*
X153362969Y-115269819D02*
X153077255Y-115269819D01*
X153077255Y-115269819D02*
X152982017Y-115222200D01*
X152982017Y-115222200D02*
X152934398Y-115174580D01*
X157370112Y-115421009D02*
X157512969Y-115468628D01*
X157512969Y-115468628D02*
X157560588Y-115516247D01*
X157560588Y-115516247D02*
X157608207Y-115611485D01*
X157608207Y-115611485D02*
X157608207Y-115754342D01*
X157608207Y-115754342D02*
X157560588Y-115849580D01*
X157560588Y-115849580D02*
X157512969Y-115897200D01*
X157512969Y-115897200D02*
X157417731Y-115944819D01*
X157417731Y-115944819D02*
X157036779Y-115944819D01*
X157036779Y-115944819D02*
X157036779Y-114944819D01*
X157036779Y-114944819D02*
X157370112Y-114944819D01*
X157370112Y-114944819D02*
X157465350Y-114992438D01*
X157465350Y-114992438D02*
X157512969Y-115040057D01*
X157512969Y-115040057D02*
X157560588Y-115135295D01*
X157560588Y-115135295D02*
X157560588Y-115230533D01*
X157560588Y-115230533D02*
X157512969Y-115325771D01*
X157512969Y-115325771D02*
X157465350Y-115373390D01*
X157465350Y-115373390D02*
X157370112Y-115421009D01*
X157370112Y-115421009D02*
X157036779Y-115421009D01*
X157989160Y-115659104D02*
X158465350Y-115659104D01*
X157893922Y-115944819D02*
X158227255Y-114944819D01*
X158227255Y-114944819D02*
X158560588Y-115944819D01*
X158751065Y-114944819D02*
X159322493Y-114944819D01*
X159036779Y-115944819D02*
X159036779Y-114944819D01*
X159512970Y-114944819D02*
X160084398Y-114944819D01*
X159798684Y-115944819D02*
X159798684Y-114944819D01*
X160417732Y-115563866D02*
X161179637Y-115563866D01*
X175738220Y-91611133D02*
X174976316Y-91611133D01*
X175357268Y-91230180D02*
X175357268Y-91992085D01*
X154136779Y-92119819D02*
X154136779Y-91119819D01*
X154136779Y-91119819D02*
X154470112Y-91834104D01*
X154470112Y-91834104D02*
X154803445Y-91119819D01*
X154803445Y-91119819D02*
X154803445Y-92119819D01*
X155708207Y-91453152D02*
X155708207Y-92119819D01*
X155470112Y-91072200D02*
X155232017Y-91786485D01*
X155232017Y-91786485D02*
X155851064Y-91786485D01*
X155610588Y-114317438D02*
X155515350Y-114269819D01*
X155515350Y-114269819D02*
X155372493Y-114269819D01*
X155372493Y-114269819D02*
X155229636Y-114317438D01*
X155229636Y-114317438D02*
X155134398Y-114412676D01*
X155134398Y-114412676D02*
X155086779Y-114507914D01*
X155086779Y-114507914D02*
X155039160Y-114698390D01*
X155039160Y-114698390D02*
X155039160Y-114841247D01*
X155039160Y-114841247D02*
X155086779Y-115031723D01*
X155086779Y-115031723D02*
X155134398Y-115126961D01*
X155134398Y-115126961D02*
X155229636Y-115222200D01*
X155229636Y-115222200D02*
X155372493Y-115269819D01*
X155372493Y-115269819D02*
X155467731Y-115269819D01*
X155467731Y-115269819D02*
X155610588Y-115222200D01*
X155610588Y-115222200D02*
X155658207Y-115174580D01*
X155658207Y-115174580D02*
X155658207Y-114841247D01*
X155658207Y-114841247D02*
X155467731Y-114841247D01*
X170010588Y-88467438D02*
X169915350Y-88419819D01*
X169915350Y-88419819D02*
X169772493Y-88419819D01*
X169772493Y-88419819D02*
X169629636Y-88467438D01*
X169629636Y-88467438D02*
X169534398Y-88562676D01*
X169534398Y-88562676D02*
X169486779Y-88657914D01*
X169486779Y-88657914D02*
X169439160Y-88848390D01*
X169439160Y-88848390D02*
X169439160Y-88991247D01*
X169439160Y-88991247D02*
X169486779Y-89181723D01*
X169486779Y-89181723D02*
X169534398Y-89276961D01*
X169534398Y-89276961D02*
X169629636Y-89372200D01*
X169629636Y-89372200D02*
X169772493Y-89419819D01*
X169772493Y-89419819D02*
X169867731Y-89419819D01*
X169867731Y-89419819D02*
X170010588Y-89372200D01*
X170010588Y-89372200D02*
X170058207Y-89324580D01*
X170058207Y-89324580D02*
X170058207Y-88991247D01*
X170058207Y-88991247D02*
X169867731Y-88991247D01*
X171988220Y-85711133D02*
X171226316Y-85711133D01*
X177582561Y-98310588D02*
X177630180Y-98215350D01*
X177630180Y-98215350D02*
X177630180Y-98072493D01*
X177630180Y-98072493D02*
X177582561Y-97929636D01*
X177582561Y-97929636D02*
X177487323Y-97834398D01*
X177487323Y-97834398D02*
X177392085Y-97786779D01*
X177392085Y-97786779D02*
X177201609Y-97739160D01*
X177201609Y-97739160D02*
X177058752Y-97739160D01*
X177058752Y-97739160D02*
X176868276Y-97786779D01*
X176868276Y-97786779D02*
X176773038Y-97834398D01*
X176773038Y-97834398D02*
X176677800Y-97929636D01*
X176677800Y-97929636D02*
X176630180Y-98072493D01*
X176630180Y-98072493D02*
X176630180Y-98167731D01*
X176630180Y-98167731D02*
X176677800Y-98310588D01*
X176677800Y-98310588D02*
X176725419Y-98358207D01*
X176725419Y-98358207D02*
X177058752Y-98358207D01*
X177058752Y-98358207D02*
X177058752Y-98167731D01*
X149563220Y-110461133D02*
X148801316Y-110461133D01*
X149182268Y-110080180D02*
X149182268Y-110842085D01*
X170510588Y-114317438D02*
X170415350Y-114269819D01*
X170415350Y-114269819D02*
X170272493Y-114269819D01*
X170272493Y-114269819D02*
X170129636Y-114317438D01*
X170129636Y-114317438D02*
X170034398Y-114412676D01*
X170034398Y-114412676D02*
X169986779Y-114507914D01*
X169986779Y-114507914D02*
X169939160Y-114698390D01*
X169939160Y-114698390D02*
X169939160Y-114841247D01*
X169939160Y-114841247D02*
X169986779Y-115031723D01*
X169986779Y-115031723D02*
X170034398Y-115126961D01*
X170034398Y-115126961D02*
X170129636Y-115222200D01*
X170129636Y-115222200D02*
X170272493Y-115269819D01*
X170272493Y-115269819D02*
X170367731Y-115269819D01*
X170367731Y-115269819D02*
X170510588Y-115222200D01*
X170510588Y-115222200D02*
X170558207Y-115174580D01*
X170558207Y-115174580D02*
X170558207Y-114841247D01*
X170558207Y-114841247D02*
X170367731Y-114841247D01*
X176430180Y-103434398D02*
X176430180Y-103624874D01*
X176430180Y-103624874D02*
X176477800Y-103720112D01*
X176477800Y-103720112D02*
X176525419Y-103767731D01*
X176525419Y-103767731D02*
X176668276Y-103862969D01*
X176668276Y-103862969D02*
X176858752Y-103910588D01*
X176858752Y-103910588D02*
X177239704Y-103910588D01*
X177239704Y-103910588D02*
X177334942Y-103862969D01*
X177334942Y-103862969D02*
X177382561Y-103815350D01*
X177382561Y-103815350D02*
X177430180Y-103720112D01*
X177430180Y-103720112D02*
X177430180Y-103529636D01*
X177430180Y-103529636D02*
X177382561Y-103434398D01*
X177382561Y-103434398D02*
X177334942Y-103386779D01*
X177334942Y-103386779D02*
X177239704Y-103339160D01*
X177239704Y-103339160D02*
X177001609Y-103339160D01*
X177001609Y-103339160D02*
X176906371Y-103386779D01*
X176906371Y-103386779D02*
X176858752Y-103434398D01*
X176858752Y-103434398D02*
X176811133Y-103529636D01*
X176811133Y-103529636D02*
X176811133Y-103720112D01*
X176811133Y-103720112D02*
X176858752Y-103815350D01*
X176858752Y-103815350D02*
X176906371Y-103862969D01*
X176906371Y-103862969D02*
X177001609Y-103910588D01*
X177430180Y-104196303D02*
X176430180Y-104529636D01*
X176430180Y-104529636D02*
X177430180Y-104862969D01*
X154660588Y-88517438D02*
X154565350Y-88469819D01*
X154565350Y-88469819D02*
X154422493Y-88469819D01*
X154422493Y-88469819D02*
X154279636Y-88517438D01*
X154279636Y-88517438D02*
X154184398Y-88612676D01*
X154184398Y-88612676D02*
X154136779Y-88707914D01*
X154136779Y-88707914D02*
X154089160Y-88898390D01*
X154089160Y-88898390D02*
X154089160Y-89041247D01*
X154089160Y-89041247D02*
X154136779Y-89231723D01*
X154136779Y-89231723D02*
X154184398Y-89326961D01*
X154184398Y-89326961D02*
X154279636Y-89422200D01*
X154279636Y-89422200D02*
X154422493Y-89469819D01*
X154422493Y-89469819D02*
X154517731Y-89469819D01*
X154517731Y-89469819D02*
X154660588Y-89422200D01*
X154660588Y-89422200D02*
X154708207Y-89374580D01*
X154708207Y-89374580D02*
X154708207Y-89041247D01*
X154708207Y-89041247D02*
X154517731Y-89041247D01*
X163795112Y-115396009D02*
X163937969Y-115443628D01*
X163937969Y-115443628D02*
X163985588Y-115491247D01*
X163985588Y-115491247D02*
X164033207Y-115586485D01*
X164033207Y-115586485D02*
X164033207Y-115729342D01*
X164033207Y-115729342D02*
X163985588Y-115824580D01*
X163985588Y-115824580D02*
X163937969Y-115872200D01*
X163937969Y-115872200D02*
X163842731Y-115919819D01*
X163842731Y-115919819D02*
X163461779Y-115919819D01*
X163461779Y-115919819D02*
X163461779Y-114919819D01*
X163461779Y-114919819D02*
X163795112Y-114919819D01*
X163795112Y-114919819D02*
X163890350Y-114967438D01*
X163890350Y-114967438D02*
X163937969Y-115015057D01*
X163937969Y-115015057D02*
X163985588Y-115110295D01*
X163985588Y-115110295D02*
X163985588Y-115205533D01*
X163985588Y-115205533D02*
X163937969Y-115300771D01*
X163937969Y-115300771D02*
X163890350Y-115348390D01*
X163890350Y-115348390D02*
X163795112Y-115396009D01*
X163795112Y-115396009D02*
X163461779Y-115396009D01*
X164414160Y-115634104D02*
X164890350Y-115634104D01*
X164318922Y-115919819D02*
X164652255Y-114919819D01*
X164652255Y-114919819D02*
X164985588Y-115919819D01*
X165176065Y-114919819D02*
X165747493Y-114919819D01*
X165461779Y-115919819D02*
X165461779Y-114919819D01*
X165937970Y-114919819D02*
X166509398Y-114919819D01*
X166223684Y-115919819D02*
X166223684Y-114919819D01*
X166842732Y-115538866D02*
X167604637Y-115538866D01*
X167223684Y-115919819D02*
X167223684Y-115157914D01*
X172336779Y-115269819D02*
X172336779Y-114269819D01*
X172336779Y-114269819D02*
X172670112Y-114984104D01*
X172670112Y-114984104D02*
X173003445Y-114269819D01*
X173003445Y-114269819D02*
X173003445Y-115269819D01*
X173432017Y-114365057D02*
X173479636Y-114317438D01*
X173479636Y-114317438D02*
X173574874Y-114269819D01*
X173574874Y-114269819D02*
X173812969Y-114269819D01*
X173812969Y-114269819D02*
X173908207Y-114317438D01*
X173908207Y-114317438D02*
X173955826Y-114365057D01*
X173955826Y-114365057D02*
X174003445Y-114460295D01*
X174003445Y-114460295D02*
X174003445Y-114555533D01*
X174003445Y-114555533D02*
X173955826Y-114698390D01*
X173955826Y-114698390D02*
X173384398Y-115269819D01*
X173384398Y-115269819D02*
X174003445Y-115269819D01*
X171286779Y-116238866D02*
X172048684Y-116238866D01*
X171667731Y-116619819D02*
X171667731Y-115857914D01*
X175638866Y-110663220D02*
X175638866Y-109901316D01*
X168486779Y-92119819D02*
X168486779Y-91119819D01*
X168486779Y-91119819D02*
X168820112Y-91834104D01*
X168820112Y-91834104D02*
X169153445Y-91119819D01*
X169153445Y-91119819D02*
X169153445Y-92119819D01*
X170153445Y-92119819D02*
X169582017Y-92119819D01*
X169867731Y-92119819D02*
X169867731Y-91119819D01*
X169867731Y-91119819D02*
X169772493Y-91262676D01*
X169772493Y-91262676D02*
X169677255Y-91357914D01*
X169677255Y-91357914D02*
X169582017Y-91405533D01*
X152236779Y-116238866D02*
X152998684Y-116238866D01*
X152863220Y-85961133D02*
X152101316Y-85961133D01*
X152482268Y-85580180D02*
X152482268Y-86342085D01*
X150254819Y-98033333D02*
X150969104Y-98033333D01*
X150969104Y-98033333D02*
X151111961Y-98080952D01*
X151111961Y-98080952D02*
X151207200Y-98176190D01*
X151207200Y-98176190D02*
X151254819Y-98319047D01*
X151254819Y-98319047D02*
X151254819Y-98414285D01*
X151254819Y-97033333D02*
X151254819Y-97604761D01*
X151254819Y-97319047D02*
X150254819Y-97319047D01*
X150254819Y-97319047D02*
X150397676Y-97414285D01*
X150397676Y-97414285D02*
X150492914Y-97509523D01*
X150492914Y-97509523D02*
X150540533Y-97604761D01*
X167140595Y-95870919D02*
X167140595Y-96680442D01*
X167140595Y-96680442D02*
X167188214Y-96775680D01*
X167188214Y-96775680D02*
X167235833Y-96823300D01*
X167235833Y-96823300D02*
X167331071Y-96870919D01*
X167331071Y-96870919D02*
X167521547Y-96870919D01*
X167521547Y-96870919D02*
X167616785Y-96823300D01*
X167616785Y-96823300D02*
X167664404Y-96775680D01*
X167664404Y-96775680D02*
X167712023Y-96680442D01*
X167712023Y-96680442D02*
X167712023Y-95870919D01*
X168140595Y-95966157D02*
X168188214Y-95918538D01*
X168188214Y-95918538D02*
X168283452Y-95870919D01*
X168283452Y-95870919D02*
X168521547Y-95870919D01*
X168521547Y-95870919D02*
X168616785Y-95918538D01*
X168616785Y-95918538D02*
X168664404Y-95966157D01*
X168664404Y-95966157D02*
X168712023Y-96061395D01*
X168712023Y-96061395D02*
X168712023Y-96156633D01*
X168712023Y-96156633D02*
X168664404Y-96299490D01*
X168664404Y-96299490D02*
X168092976Y-96870919D01*
X168092976Y-96870919D02*
X168712023Y-96870919D01*
X159809523Y-86454819D02*
X159333333Y-86454819D01*
X159333333Y-86454819D02*
X159285714Y-86931009D01*
X159285714Y-86931009D02*
X159333333Y-86883390D01*
X159333333Y-86883390D02*
X159428571Y-86835771D01*
X159428571Y-86835771D02*
X159666666Y-86835771D01*
X159666666Y-86835771D02*
X159761904Y-86883390D01*
X159761904Y-86883390D02*
X159809523Y-86931009D01*
X159809523Y-86931009D02*
X159857142Y-87026247D01*
X159857142Y-87026247D02*
X159857142Y-87264342D01*
X159857142Y-87264342D02*
X159809523Y-87359580D01*
X159809523Y-87359580D02*
X159761904Y-87407200D01*
X159761904Y-87407200D02*
X159666666Y-87454819D01*
X159666666Y-87454819D02*
X159428571Y-87454819D01*
X159428571Y-87454819D02*
X159333333Y-87407200D01*
X159333333Y-87407200D02*
X159285714Y-87359580D01*
X160142857Y-86454819D02*
X160476190Y-87454819D01*
X160476190Y-87454819D02*
X160809523Y-86454819D01*
X162738095Y-82502438D02*
X162642857Y-82454819D01*
X162642857Y-82454819D02*
X162500000Y-82454819D01*
X162500000Y-82454819D02*
X162357143Y-82502438D01*
X162357143Y-82502438D02*
X162261905Y-82597676D01*
X162261905Y-82597676D02*
X162214286Y-82692914D01*
X162214286Y-82692914D02*
X162166667Y-82883390D01*
X162166667Y-82883390D02*
X162166667Y-83026247D01*
X162166667Y-83026247D02*
X162214286Y-83216723D01*
X162214286Y-83216723D02*
X162261905Y-83311961D01*
X162261905Y-83311961D02*
X162357143Y-83407200D01*
X162357143Y-83407200D02*
X162500000Y-83454819D01*
X162500000Y-83454819D02*
X162595238Y-83454819D01*
X162595238Y-83454819D02*
X162738095Y-83407200D01*
X162738095Y-83407200D02*
X162785714Y-83359580D01*
X162785714Y-83359580D02*
X162785714Y-83026247D01*
X162785714Y-83026247D02*
X162595238Y-83026247D01*
X163214286Y-83454819D02*
X163214286Y-82454819D01*
X163214286Y-82454819D02*
X163785714Y-83454819D01*
X163785714Y-83454819D02*
X163785714Y-82454819D01*
X164261905Y-83454819D02*
X164261905Y-82454819D01*
X164261905Y-82454819D02*
X164500000Y-82454819D01*
X164500000Y-82454819D02*
X164642857Y-82502438D01*
X164642857Y-82502438D02*
X164738095Y-82597676D01*
X164738095Y-82597676D02*
X164785714Y-82692914D01*
X164785714Y-82692914D02*
X164833333Y-82883390D01*
X164833333Y-82883390D02*
X164833333Y-83026247D01*
X164833333Y-83026247D02*
X164785714Y-83216723D01*
X164785714Y-83216723D02*
X164738095Y-83311961D01*
X164738095Y-83311961D02*
X164642857Y-83407200D01*
X164642857Y-83407200D02*
X164500000Y-83454819D01*
X164500000Y-83454819D02*
X164261905Y-83454819D01*
X158975595Y-108476219D02*
X158975595Y-109285742D01*
X158975595Y-109285742D02*
X159023214Y-109380980D01*
X159023214Y-109380980D02*
X159070833Y-109428600D01*
X159070833Y-109428600D02*
X159166071Y-109476219D01*
X159166071Y-109476219D02*
X159356547Y-109476219D01*
X159356547Y-109476219D02*
X159451785Y-109428600D01*
X159451785Y-109428600D02*
X159499404Y-109380980D01*
X159499404Y-109380980D02*
X159547023Y-109285742D01*
X159547023Y-109285742D02*
X159547023Y-108476219D01*
X160547023Y-109476219D02*
X159975595Y-109476219D01*
X160261309Y-109476219D02*
X160261309Y-108476219D01*
X160261309Y-108476219D02*
X160166071Y-108619076D01*
X160166071Y-108619076D02*
X160070833Y-108714314D01*
X160070833Y-108714314D02*
X159975595Y-108761933D01*
D11*
%TO.C,C2*%
X164790000Y-106626252D02*
X164790000Y-105203748D01*
X162970000Y-106626252D02*
X162970000Y-105203748D01*
%TO.C,C9*%
X173520000Y-105248752D02*
X173520000Y-103826248D01*
X175340000Y-105248752D02*
X175340000Y-103826248D01*
%TO.C,C7*%
X164832500Y-98801248D02*
X164832500Y-100223752D01*
X163012500Y-98801248D02*
X163012500Y-100223752D01*
%TO.C,C4*%
X160738748Y-94215000D02*
X162161252Y-94215000D01*
X160738748Y-96035000D02*
X162161252Y-96035000D01*
%TO.C,PAD1*%
X178300000Y-104500000D02*
X180700000Y-104500000D01*
X178300000Y-106900000D02*
X178300000Y-104500000D01*
X180700000Y-104500000D02*
X180700000Y-106900000D01*
X180700000Y-106900000D02*
X178300000Y-106900000D01*
D12*
%TO.C,L1*%
X154637500Y-97212500D02*
X155856500Y-97212500D01*
X154637500Y-97232500D02*
X154657500Y-97212500D01*
X154637500Y-104212500D02*
X154637500Y-97232500D01*
X155856500Y-104212500D02*
X154637500Y-104212500D01*
X160018500Y-97212500D02*
X161237500Y-97212500D01*
X161237500Y-97212500D02*
X161237500Y-104202500D01*
X161237500Y-104202500D02*
X161237500Y-104212500D01*
X161237500Y-104212500D02*
X160018500Y-104212500D01*
D11*
%TO.C,C8*%
X165352500Y-98944664D02*
X165352500Y-99160336D01*
X166072500Y-98944664D02*
X166072500Y-99160336D01*
%TO.C,J1*%
X144162500Y-97300000D02*
X144162500Y-105100000D01*
X146062500Y-96200000D02*
X148412500Y-96200000D01*
X146062500Y-106200000D02*
X148412500Y-106200000D01*
X147212500Y-96200000D02*
X147212500Y-96200000D01*
X147212500Y-96200000D02*
X147212500Y-96700000D01*
X147212500Y-96700000D02*
X147212500Y-96200000D01*
X147212500Y-96700000D02*
X147212500Y-96700000D01*
X147212500Y-96700000D02*
X147212500Y-96700000D01*
X147212500Y-96700000D02*
X148412500Y-96700000D01*
X147212500Y-105700000D02*
X147212500Y-105700000D01*
X147212500Y-105700000D02*
X147212500Y-105700000D01*
X147212500Y-105700000D02*
X147212500Y-106200000D01*
X147212500Y-105700000D02*
X148412500Y-105700000D01*
X147212500Y-106200000D02*
X147212500Y-105700000D01*
X147212500Y-106200000D02*
X147212500Y-106200000D01*
X147912500Y-96200000D02*
X147912500Y-96200000D01*
X147912500Y-96200000D02*
X147912500Y-96700000D01*
X147912500Y-96700000D02*
X147912500Y-96200000D01*
X147912500Y-96700000D02*
X147912500Y-96700000D01*
X147912500Y-105700000D02*
X147912500Y-105700000D01*
X147912500Y-105700000D02*
X147912500Y-106200000D01*
X147912500Y-106200000D02*
X147912500Y-105700000D01*
X147912500Y-106200000D02*
X147912500Y-106200000D01*
X148412500Y-96200000D02*
X148412500Y-97100000D01*
X148412500Y-96700000D02*
X147212500Y-96700000D01*
X148412500Y-96700000D02*
X148412500Y-96700000D01*
X148412500Y-105700000D02*
X147212500Y-105700000D01*
X148412500Y-105700000D02*
X148412500Y-105700000D01*
X148412500Y-106200000D02*
X148412500Y-105300000D01*
X149237500Y-96700000D02*
G75*
G02*
X148737500Y-96700000I-250000J0D01*
G01*
X148737500Y-96700000D02*
G75*
G02*
X149237500Y-96700000I250000J0D01*
G01*
%TO.C,C3*%
X161810000Y-106492836D02*
X161810000Y-106277164D01*
X162530000Y-106492836D02*
X162530000Y-106277164D01*
%TO.C,C10*%
X172974664Y-97712500D02*
X173190336Y-97712500D01*
X172974664Y-98432500D02*
X173190336Y-98432500D01*
%TO.C,R5*%
X170292500Y-95448859D02*
X170292500Y-95756141D01*
X171052500Y-95448859D02*
X171052500Y-95756141D01*
D13*
%TO.C,U2*%
X168717500Y-97272500D02*
X168887500Y-97272500D01*
X168887500Y-99372500D02*
X168717500Y-99372500D01*
D14*
X167302500Y-97572500D02*
G75*
G02*
X167102500Y-97572500I-100000J0D01*
G01*
X167102500Y-97572500D02*
G75*
G02*
X167302500Y-97572500I100000J0D01*
G01*
D11*
%TO.C,PAD4*%
X170650000Y-87950000D02*
X172550000Y-87950000D01*
X170650000Y-89850000D02*
X170650000Y-87950000D01*
X172550000Y-87950000D02*
X172550000Y-89850000D01*
X172550000Y-89850000D02*
X170650000Y-89850000D01*
%TO.C,PAD10*%
X154450000Y-112050000D02*
X156350000Y-112050000D01*
X154450000Y-113950000D02*
X154450000Y-112050000D01*
X156350000Y-112050000D02*
X156350000Y-113950000D01*
X156350000Y-113950000D02*
X154450000Y-113950000D01*
D12*
%TO.C,L2*%
X166262500Y-101287500D02*
X167481500Y-101287500D01*
X166262500Y-101297500D02*
X166262500Y-101287500D01*
X166262500Y-108287500D02*
X166262500Y-101297500D01*
X167481500Y-108287500D02*
X166262500Y-108287500D01*
X171643500Y-101287500D02*
X172862500Y-101287500D01*
X172862500Y-101287500D02*
X172862500Y-108267500D01*
X172862500Y-108267500D02*
X172842500Y-108287500D01*
X172862500Y-108287500D02*
X171643500Y-108287500D01*
D11*
%TO.C,PAD11*%
X151600000Y-90650000D02*
X153500000Y-90650000D01*
X151600000Y-92550000D02*
X151600000Y-90650000D01*
X153500000Y-90650000D02*
X153500000Y-92550000D01*
X153500000Y-92550000D02*
X151600000Y-92550000D01*
%TO.C,R3*%
X150410000Y-104061359D02*
X150410000Y-104368641D01*
X151170000Y-104061359D02*
X151170000Y-104368641D01*
%TO.C,C1*%
X155327836Y-105975000D02*
X155112164Y-105975000D01*
X155327836Y-106695000D02*
X155112164Y-106695000D01*
%TO.C,PAD8*%
X178300000Y-98350000D02*
X180700000Y-98350000D01*
X178300000Y-100750000D02*
X178300000Y-98350000D01*
X180700000Y-98350000D02*
X180700000Y-100750000D01*
X180700000Y-100750000D02*
X178300000Y-100750000D01*
%TO.C,PAD13*%
X159050000Y-84050000D02*
X160950000Y-84050000D01*
X159050000Y-85950000D02*
X159050000Y-84050000D01*
X160950000Y-84050000D02*
X160950000Y-85950000D01*
X160950000Y-85950000D02*
X159050000Y-85950000D01*
%TO.C,R4*%
X157670000Y-109741359D02*
X157670000Y-110048641D01*
X158430000Y-109741359D02*
X158430000Y-110048641D01*
%TO.C,PAD12*%
X169350000Y-112050000D02*
X171250000Y-112050000D01*
X169350000Y-113950000D02*
X169350000Y-112050000D01*
X171250000Y-112050000D02*
X171250000Y-113950000D01*
X171250000Y-113950000D02*
X169350000Y-113950000D01*
%TO.C,C6*%
X172974664Y-98722500D02*
X173190336Y-98722500D01*
X172974664Y-99442500D02*
X173190336Y-99442500D01*
%TO.C,PAD9*%
X151750000Y-112050000D02*
X153650000Y-112050000D01*
X151750000Y-113950000D02*
X151750000Y-112050000D01*
X153650000Y-112050000D02*
X153650000Y-113950000D01*
X153650000Y-113950000D02*
X151750000Y-113950000D01*
%TO.C,R1*%
X150420000Y-101996359D02*
X150420000Y-102303641D01*
X151180000Y-101996359D02*
X151180000Y-102303641D01*
%TO.C,PAD6*%
X151600000Y-87950000D02*
X153500000Y-87950000D01*
X151600000Y-89850000D02*
X151600000Y-87950000D01*
X153500000Y-87950000D02*
X153500000Y-89850000D01*
X153500000Y-89850000D02*
X151600000Y-89850000D01*
%TO.C,R6*%
X169162500Y-95756141D02*
X169162500Y-95448859D01*
X169922500Y-95756141D02*
X169922500Y-95448859D01*
%TO.C,PAD5*%
X172050000Y-112050000D02*
X173950000Y-112050000D01*
X172050000Y-113950000D02*
X172050000Y-112050000D01*
X173950000Y-112050000D02*
X173950000Y-113950000D01*
X173950000Y-113950000D02*
X172050000Y-113950000D01*
%TO.C,PAD14*%
X162550000Y-84050000D02*
X164450000Y-84050000D01*
X162550000Y-85950000D02*
X162550000Y-84050000D01*
X164450000Y-84050000D02*
X164450000Y-85950000D01*
X164450000Y-85950000D02*
X162550000Y-85950000D01*
%TO.C,PAD3*%
X170650000Y-90650000D02*
X172550000Y-90650000D01*
X170650000Y-92550000D02*
X170650000Y-90650000D01*
X172550000Y-90650000D02*
X172550000Y-92550000D01*
X172550000Y-92550000D02*
X170650000Y-92550000D01*
%TO.C,PAD7*%
X178300000Y-101475000D02*
X180700000Y-101475000D01*
X178300000Y-103875000D02*
X178300000Y-101475000D01*
X180700000Y-101475000D02*
X180700000Y-103875000D01*
X180700000Y-103875000D02*
X178300000Y-103875000D01*
D13*
%TO.C,U1*%
X158695000Y-106065000D02*
X158865000Y-106065000D01*
X158865000Y-108165000D02*
X158695000Y-108165000D01*
D14*
X160480000Y-107865000D02*
G75*
G02*
X160280000Y-107865000I-100000J0D01*
G01*
X160280000Y-107865000D02*
G75*
G02*
X160480000Y-107865000I100000J0D01*
G01*
D11*
%TO.C,C5*%
X155327836Y-107015000D02*
X155112164Y-107015000D01*
X155327836Y-107735000D02*
X155112164Y-107735000D01*
%TO.C,PAD2*%
X178300000Y-95300000D02*
X180700000Y-95300000D01*
X178300000Y-97700000D02*
X178300000Y-95300000D01*
X180700000Y-95300000D02*
X180700000Y-97700000D01*
X180700000Y-97700000D02*
X178300000Y-97700000D01*
%TO.C,R2*%
X156500000Y-110048641D02*
X156500000Y-109741359D01*
X157260000Y-110048641D02*
X157260000Y-109741359D01*
%TD*%
M02*
