%TF.GenerationSoftware,KiCad,Pcbnew,9.0.7*%
%TF.CreationDate,2026-04-25T19:56:43+02:00*%
%TF.ProjectId,M-PDB,4d2d5044-422e-46b6-9963-61645f706362,rev?*%
%TF.SameCoordinates,Original*%
%TF.FileFunction,Copper,L2,Inr*%
%TF.FilePolarity,Positive*%
%FSLAX46Y46*%
G04 Gerber Fmt 4.6, Leading zero omitted, Abs format (unit mm)*
G04 Created by KiCad (PCBNEW 9.0.7) date 2026-04-25 19:56:43*
%MOMM*%
%LPD*%
G01*
G04 APERTURE LIST*
%TA.AperFunction,ViaPad*%
%ADD10C,0.700000*%
%TD*%
%TA.AperFunction,ViaPad*%
%ADD11C,0.500000*%
%TD*%
%TA.AperFunction,ViaPad*%
%ADD12C,0.600000*%
%TD*%
%TA.AperFunction,Conductor*%
%ADD13C,0.200000*%
%TD*%
G04 APERTURE END LIST*
D10*
%TO.N,+VBAT*%
X145200000Y-110000000D03*
X152150000Y-84750000D03*
X166250000Y-118000000D03*
X153050000Y-81150000D03*
X176750000Y-93200000D03*
X165350000Y-118000000D03*
X163550000Y-118900000D03*
X167150000Y-118900000D03*
X144300000Y-110000000D03*
X151250000Y-83850000D03*
X173000000Y-117350000D03*
X147000000Y-110000000D03*
X179450000Y-90500000D03*
X147900000Y-110900000D03*
X180350000Y-90500000D03*
X153050000Y-83850000D03*
X171200000Y-119150000D03*
X180350000Y-93200000D03*
X170300000Y-118250000D03*
X170300000Y-120050000D03*
X164450000Y-120700000D03*
X177650000Y-91400000D03*
X147000000Y-111800000D03*
X177650000Y-90500000D03*
X151250000Y-82950000D03*
X151250000Y-82050000D03*
D11*
X162150000Y-98610000D03*
D10*
X147900000Y-109100000D03*
X172100000Y-120950000D03*
X146100000Y-111800000D03*
X179450000Y-93200000D03*
X151250000Y-84750000D03*
X145200000Y-111800000D03*
X172100000Y-120050000D03*
X151250000Y-81150000D03*
X180350000Y-91400000D03*
D11*
X150800000Y-100900000D03*
D10*
X147000000Y-109100000D03*
X165350000Y-119800000D03*
X146100000Y-110000000D03*
X166250000Y-117100000D03*
X153950000Y-81150000D03*
X171200000Y-118250000D03*
X177650000Y-92300000D03*
X166250000Y-118900000D03*
X167150000Y-120700000D03*
X153950000Y-82950000D03*
X178550000Y-90500000D03*
X170300000Y-119150000D03*
X164450000Y-119800000D03*
X170300000Y-120950000D03*
X172100000Y-117350000D03*
X153050000Y-82050000D03*
X144300000Y-111800000D03*
X144300000Y-110900000D03*
X176750000Y-91400000D03*
X145200000Y-110900000D03*
X173000000Y-119150000D03*
X165350000Y-117100000D03*
X178550000Y-93200000D03*
X153050000Y-84750000D03*
X144300000Y-109100000D03*
X167150000Y-117100000D03*
X153950000Y-83850000D03*
X173000000Y-120050000D03*
D11*
X162700000Y-98350000D03*
D10*
X147900000Y-111800000D03*
X167150000Y-119800000D03*
X176750000Y-92300000D03*
X172100000Y-118250000D03*
X145200000Y-109100000D03*
X172100000Y-119150000D03*
X171200000Y-120950000D03*
X163550000Y-120700000D03*
X173000000Y-118250000D03*
X152150000Y-82950000D03*
X166250000Y-119800000D03*
X178550000Y-91400000D03*
X153950000Y-84750000D03*
X147900000Y-110000000D03*
X152150000Y-83850000D03*
X177650000Y-93200000D03*
X165350000Y-118900000D03*
X163550000Y-119800000D03*
X164450000Y-117100000D03*
X152150000Y-81150000D03*
X153950000Y-82050000D03*
X153050000Y-82950000D03*
X171200000Y-117350000D03*
X165350000Y-120700000D03*
X152150000Y-82050000D03*
X179450000Y-91400000D03*
D11*
X162700000Y-98900000D03*
D10*
X170300000Y-117350000D03*
X164450000Y-118900000D03*
X163550000Y-118000000D03*
X167150000Y-118000000D03*
D11*
X165150000Y-106575000D03*
X165700000Y-106850000D03*
D10*
X173000000Y-120950000D03*
X179450000Y-92300000D03*
X147000000Y-110900000D03*
X166250000Y-120700000D03*
X180350000Y-92300000D03*
X163550000Y-117100000D03*
X176750000Y-90500000D03*
D11*
X165150000Y-107150000D03*
D10*
X164450000Y-118000000D03*
X178550000Y-92300000D03*
X146100000Y-109100000D03*
X146100000Y-110900000D03*
X171200000Y-120050000D03*
D11*
%TO.N,GND*%
X174700000Y-101790000D03*
D10*
X147000000Y-92300000D03*
D11*
X163620000Y-101280000D03*
D10*
X158825000Y-118000000D03*
X152150000Y-119150000D03*
X159725000Y-119800000D03*
X180400000Y-110850000D03*
X151250000Y-118250000D03*
X151250000Y-117350000D03*
X145200000Y-91400000D03*
X180400000Y-111750000D03*
X170250000Y-84750000D03*
X158825000Y-117100000D03*
D11*
X159525000Y-105775000D03*
X165730000Y-100770000D03*
D10*
X144300000Y-91400000D03*
X153950000Y-120950000D03*
X178600000Y-109050000D03*
X146100000Y-92300000D03*
D11*
X167370000Y-99560000D03*
X149225000Y-105475000D03*
D10*
X146100000Y-93200000D03*
X178600000Y-111750000D03*
X147000000Y-91400000D03*
X172950000Y-83850000D03*
X145200000Y-92300000D03*
X178600000Y-109950000D03*
X172950000Y-82950000D03*
X170250000Y-82950000D03*
X153950000Y-120050000D03*
X163200000Y-87800000D03*
X172050000Y-81150000D03*
X172050000Y-82950000D03*
D11*
X154740000Y-108040000D03*
D10*
X172050000Y-82050000D03*
X180400000Y-109050000D03*
X179500000Y-111750000D03*
X179500000Y-109050000D03*
D11*
X177750000Y-99200000D03*
X162160000Y-104680000D03*
D10*
X172050000Y-83850000D03*
X152150000Y-120950000D03*
X144300000Y-92300000D03*
D11*
X152550000Y-87500000D03*
D10*
X177700000Y-110850000D03*
X145200000Y-90500000D03*
X172950000Y-81150000D03*
X147000000Y-93200000D03*
X176800000Y-109050000D03*
X157925000Y-119800000D03*
D11*
X169540000Y-94360000D03*
X150790000Y-105460000D03*
D10*
X176800000Y-109950000D03*
D11*
X174120000Y-101800000D03*
D10*
X158825000Y-120700000D03*
X171150000Y-81150000D03*
X160625000Y-120700000D03*
X171150000Y-82950000D03*
X163200000Y-87000000D03*
X157025000Y-119800000D03*
X147000000Y-90500000D03*
X144300000Y-90500000D03*
D11*
X166800000Y-99560000D03*
X164010000Y-95390000D03*
D10*
X171150000Y-82050000D03*
X151250000Y-120950000D03*
X180400000Y-109950000D03*
X157025000Y-118900000D03*
D11*
X177700000Y-96250000D03*
D10*
X158825000Y-118900000D03*
X172950000Y-84750000D03*
X152150000Y-117350000D03*
D11*
X171600000Y-87350000D03*
D10*
X177700000Y-109050000D03*
X164000000Y-87800000D03*
X147900000Y-91400000D03*
X178600000Y-110850000D03*
D11*
X164250000Y-101270000D03*
D10*
X159725000Y-118900000D03*
X177700000Y-109950000D03*
X171150000Y-84750000D03*
X160625000Y-118900000D03*
D11*
X163570000Y-103210000D03*
D10*
X170250000Y-82050000D03*
X144300000Y-93200000D03*
X170250000Y-81150000D03*
D11*
X177750000Y-99850000D03*
D10*
X157925000Y-117100000D03*
X146100000Y-91400000D03*
X170250000Y-83850000D03*
D11*
X168950000Y-113000000D03*
D10*
X147900000Y-90500000D03*
X157025000Y-118000000D03*
X176800000Y-111750000D03*
X147900000Y-92300000D03*
X160625000Y-119800000D03*
D11*
X164200000Y-103200000D03*
X149225000Y-106025000D03*
D10*
X157025000Y-120700000D03*
X153950000Y-118250000D03*
D11*
X165720000Y-100140000D03*
X160675000Y-105775000D03*
D10*
X153050000Y-118250000D03*
D11*
X160100000Y-105775000D03*
X158900000Y-110400000D03*
D10*
X160625000Y-117100000D03*
D11*
X156800000Y-113000000D03*
D10*
X153950000Y-119150000D03*
X152150000Y-120050000D03*
X159725000Y-118000000D03*
X177700000Y-111750000D03*
X153950000Y-117350000D03*
X160625000Y-118000000D03*
X157925000Y-118000000D03*
X153050000Y-120050000D03*
X176800000Y-110850000D03*
X159725000Y-120700000D03*
D11*
X164000000Y-94760000D03*
D10*
X146100000Y-90500000D03*
X179500000Y-109950000D03*
D11*
X167950000Y-99570000D03*
D10*
X157025000Y-117100000D03*
X151250000Y-119150000D03*
X172950000Y-82050000D03*
X153050000Y-120950000D03*
X157925000Y-120700000D03*
D11*
X174292500Y-98072500D03*
D10*
X171150000Y-83850000D03*
X152150000Y-118250000D03*
X164000000Y-87000000D03*
X159725000Y-117100000D03*
X153050000Y-119150000D03*
X172050000Y-84750000D03*
X157925000Y-118900000D03*
X147900000Y-93200000D03*
X158825000Y-119800000D03*
X151250000Y-120050000D03*
D11*
X177700000Y-96900000D03*
X162170000Y-105310000D03*
D10*
X179500000Y-110850000D03*
X153050000Y-117350000D03*
X145200000Y-93200000D03*
D12*
%TO.N,M1*%
X157110384Y-91889616D03*
X162600000Y-91600000D03*
%TD*%
D13*
%TO.N,M1*%
X162600000Y-91600000D02*
X157400000Y-91600000D01*
X157400000Y-91600000D02*
X157110384Y-91889616D01*
%TD*%
%TA.AperFunction,Conductor*%
%TO.N,GND*%
G36*
X150751586Y-80251488D02*
G01*
X150797341Y-80304292D01*
X150807285Y-80373450D01*
X150778260Y-80437006D01*
X150753437Y-80458905D01*
X150707842Y-80489370D01*
X150707834Y-80489376D01*
X150589373Y-80607837D01*
X150496295Y-80747139D01*
X150432184Y-80901917D01*
X150432182Y-80901925D01*
X150399500Y-81066228D01*
X150399500Y-81233771D01*
X150432182Y-81398074D01*
X150432185Y-81398086D01*
X150496165Y-81552548D01*
X150503634Y-81622017D01*
X150496165Y-81647452D01*
X150432185Y-81801913D01*
X150432182Y-81801925D01*
X150399500Y-81966228D01*
X150399500Y-82133771D01*
X150432182Y-82298074D01*
X150432185Y-82298086D01*
X150496165Y-82452548D01*
X150503634Y-82522017D01*
X150496165Y-82547452D01*
X150432185Y-82701913D01*
X150432182Y-82701925D01*
X150399500Y-82866228D01*
X150399500Y-83033771D01*
X150432182Y-83198074D01*
X150432185Y-83198086D01*
X150496165Y-83352548D01*
X150503634Y-83422017D01*
X150496165Y-83447452D01*
X150432185Y-83601913D01*
X150432182Y-83601925D01*
X150399500Y-83766228D01*
X150399500Y-83933771D01*
X150432182Y-84098074D01*
X150432185Y-84098086D01*
X150496165Y-84252548D01*
X150503634Y-84322017D01*
X150496165Y-84347452D01*
X150432185Y-84501913D01*
X150432182Y-84501925D01*
X150399500Y-84666228D01*
X150399500Y-84833771D01*
X150432182Y-84998074D01*
X150432184Y-84998082D01*
X150496295Y-85152860D01*
X150589373Y-85292162D01*
X150707837Y-85410626D01*
X150799999Y-85472206D01*
X150847137Y-85503703D01*
X151001918Y-85567816D01*
X151166228Y-85600499D01*
X151166232Y-85600500D01*
X151166233Y-85600500D01*
X151333768Y-85600500D01*
X151333769Y-85600499D01*
X151498082Y-85567816D01*
X151652547Y-85503834D01*
X151722016Y-85496365D01*
X151747453Y-85503834D01*
X151901918Y-85567816D01*
X152066228Y-85600499D01*
X152066232Y-85600500D01*
X152066233Y-85600500D01*
X152233768Y-85600500D01*
X152233769Y-85600499D01*
X152398082Y-85567816D01*
X152552547Y-85503834D01*
X152622016Y-85496365D01*
X152647453Y-85503834D01*
X152801918Y-85567816D01*
X152966228Y-85600499D01*
X152966232Y-85600500D01*
X152966233Y-85600500D01*
X153133768Y-85600500D01*
X153133769Y-85600499D01*
X153298082Y-85567816D01*
X153452547Y-85503834D01*
X153522016Y-85496365D01*
X153547453Y-85503834D01*
X153701918Y-85567816D01*
X153866228Y-85600499D01*
X153866232Y-85600500D01*
X153866233Y-85600500D01*
X154033768Y-85600500D01*
X154033769Y-85600499D01*
X154198082Y-85567816D01*
X154352863Y-85503703D01*
X154492162Y-85410626D01*
X154610626Y-85292162D01*
X154703703Y-85152863D01*
X154767816Y-84998082D01*
X154800500Y-84833767D01*
X154800500Y-84666233D01*
X154767816Y-84501918D01*
X154703834Y-84347453D01*
X154696365Y-84277984D01*
X154703834Y-84252547D01*
X154710032Y-84237583D01*
X154767816Y-84098082D01*
X154800500Y-83933767D01*
X154800500Y-83766233D01*
X154767816Y-83601918D01*
X154703834Y-83447453D01*
X154696365Y-83377984D01*
X154703834Y-83352547D01*
X154710032Y-83337583D01*
X154767816Y-83198082D01*
X154800500Y-83033767D01*
X154800500Y-82866233D01*
X154767816Y-82701918D01*
X154703834Y-82547453D01*
X154696365Y-82477984D01*
X154703834Y-82452547D01*
X154710032Y-82437583D01*
X154767816Y-82298082D01*
X154800500Y-82133767D01*
X154800500Y-81966233D01*
X154767816Y-81801918D01*
X154703834Y-81647453D01*
X154696365Y-81577984D01*
X154703834Y-81552547D01*
X154710032Y-81537583D01*
X154767816Y-81398082D01*
X154800500Y-81233767D01*
X154800500Y-81066233D01*
X154767816Y-80901918D01*
X154703703Y-80747137D01*
X154656676Y-80676756D01*
X154610626Y-80607837D01*
X154492165Y-80489376D01*
X154492157Y-80489370D01*
X154446563Y-80458905D01*
X154401757Y-80405293D01*
X154393050Y-80335968D01*
X154423204Y-80272941D01*
X154482647Y-80236221D01*
X154515453Y-80231803D01*
X178028735Y-80231803D01*
X178059841Y-80231803D01*
X178066330Y-80231973D01*
X178406478Y-80249798D01*
X178419386Y-80251155D01*
X178487264Y-80261905D01*
X178752603Y-80303930D01*
X178765271Y-80306622D01*
X179091166Y-80393945D01*
X179103493Y-80397950D01*
X179418469Y-80518858D01*
X179430305Y-80524127D01*
X179730927Y-80677301D01*
X179742141Y-80683777D01*
X180023900Y-80866753D01*
X180025083Y-80867521D01*
X180035583Y-80875149D01*
X180271544Y-81066228D01*
X180297765Y-81087461D01*
X180307411Y-81096146D01*
X180545970Y-81334707D01*
X180554654Y-81344353D01*
X180766955Y-81606525D01*
X180774584Y-81617025D01*
X180958326Y-81899965D01*
X180964816Y-81911206D01*
X181117974Y-82211800D01*
X181123253Y-82223657D01*
X181244151Y-82538611D01*
X181248162Y-82550956D01*
X181335477Y-82876832D01*
X181338173Y-82889513D01*
X181361950Y-83039640D01*
X181390947Y-83222730D01*
X181392303Y-83235638D01*
X181398446Y-83352863D01*
X181409832Y-83570165D01*
X181410146Y-83576144D01*
X181410316Y-83582633D01*
X181410316Y-90215393D01*
X181390631Y-90282432D01*
X181337827Y-90328187D01*
X181268669Y-90338131D01*
X181205113Y-90309106D01*
X181171331Y-90257055D01*
X181170147Y-90257546D01*
X181167815Y-90251917D01*
X181103703Y-90097137D01*
X181072537Y-90050494D01*
X181010626Y-89957837D01*
X180892162Y-89839373D01*
X180752860Y-89746295D01*
X180598082Y-89682184D01*
X180598074Y-89682182D01*
X180433771Y-89649500D01*
X180433767Y-89649500D01*
X180266233Y-89649500D01*
X180266228Y-89649500D01*
X180101925Y-89682182D01*
X180101913Y-89682185D01*
X179947452Y-89746165D01*
X179877983Y-89753634D01*
X179852548Y-89746165D01*
X179698086Y-89682185D01*
X179698074Y-89682182D01*
X179533771Y-89649500D01*
X179533767Y-89649500D01*
X179366233Y-89649500D01*
X179366228Y-89649500D01*
X179201925Y-89682182D01*
X179201913Y-89682185D01*
X179047452Y-89746165D01*
X178977983Y-89753634D01*
X178952548Y-89746165D01*
X178798086Y-89682185D01*
X178798074Y-89682182D01*
X178633771Y-89649500D01*
X178633767Y-89649500D01*
X178466233Y-89649500D01*
X178466228Y-89649500D01*
X178301925Y-89682182D01*
X178301913Y-89682185D01*
X178147452Y-89746165D01*
X178077983Y-89753634D01*
X178052548Y-89746165D01*
X177898086Y-89682185D01*
X177898074Y-89682182D01*
X177733771Y-89649500D01*
X177733767Y-89649500D01*
X177566233Y-89649500D01*
X177566228Y-89649500D01*
X177401925Y-89682182D01*
X177401913Y-89682185D01*
X177247452Y-89746165D01*
X177177983Y-89753634D01*
X177152548Y-89746165D01*
X176998086Y-89682185D01*
X176998074Y-89682182D01*
X176833771Y-89649500D01*
X176833767Y-89649500D01*
X176666233Y-89649500D01*
X176666228Y-89649500D01*
X176501925Y-89682182D01*
X176501917Y-89682184D01*
X176347139Y-89746295D01*
X176207837Y-89839373D01*
X176089373Y-89957837D01*
X175996295Y-90097139D01*
X175932184Y-90251917D01*
X175932182Y-90251925D01*
X175899500Y-90416228D01*
X175899500Y-90583771D01*
X175932182Y-90748074D01*
X175932185Y-90748086D01*
X175996165Y-90902548D01*
X176003634Y-90972017D01*
X175996165Y-90997452D01*
X175932185Y-91151913D01*
X175932182Y-91151925D01*
X175899500Y-91316228D01*
X175899500Y-91483771D01*
X175932182Y-91648074D01*
X175932185Y-91648086D01*
X175996165Y-91802548D01*
X176003634Y-91872017D01*
X175996165Y-91897452D01*
X175932185Y-92051913D01*
X175932182Y-92051925D01*
X175899500Y-92216228D01*
X175899500Y-92383771D01*
X175932182Y-92548074D01*
X175932185Y-92548086D01*
X175996165Y-92702548D01*
X176003634Y-92772017D01*
X175996165Y-92797452D01*
X175932185Y-92951913D01*
X175932182Y-92951925D01*
X175899500Y-93116228D01*
X175899500Y-93283771D01*
X175932182Y-93448074D01*
X175932184Y-93448082D01*
X175996295Y-93602860D01*
X176089373Y-93742162D01*
X176207837Y-93860626D01*
X176299999Y-93922206D01*
X176347137Y-93953703D01*
X176501918Y-94017816D01*
X176666228Y-94050499D01*
X176666232Y-94050500D01*
X176666233Y-94050500D01*
X176833768Y-94050500D01*
X176833769Y-94050499D01*
X176998082Y-94017816D01*
X177152547Y-93953834D01*
X177222016Y-93946365D01*
X177247453Y-93953834D01*
X177401918Y-94017816D01*
X177566228Y-94050499D01*
X177566232Y-94050500D01*
X177566233Y-94050500D01*
X177733768Y-94050500D01*
X177733769Y-94050499D01*
X177898082Y-94017816D01*
X178052547Y-93953834D01*
X178122016Y-93946365D01*
X178147453Y-93953834D01*
X178301918Y-94017816D01*
X178466228Y-94050499D01*
X178466232Y-94050500D01*
X178466233Y-94050500D01*
X178633768Y-94050500D01*
X178633769Y-94050499D01*
X178798082Y-94017816D01*
X178952547Y-93953834D01*
X179022016Y-93946365D01*
X179047453Y-93953834D01*
X179201918Y-94017816D01*
X179366228Y-94050499D01*
X179366232Y-94050500D01*
X179366233Y-94050500D01*
X179533768Y-94050500D01*
X179533769Y-94050499D01*
X179698082Y-94017816D01*
X179852547Y-93953834D01*
X179922016Y-93946365D01*
X179947453Y-93953834D01*
X180101918Y-94017816D01*
X180266228Y-94050499D01*
X180266232Y-94050500D01*
X180266233Y-94050500D01*
X180433768Y-94050500D01*
X180433769Y-94050499D01*
X180598082Y-94017816D01*
X180752863Y-93953703D01*
X180892162Y-93860626D01*
X181010626Y-93742162D01*
X181103703Y-93602863D01*
X181167816Y-93448082D01*
X181167816Y-93448080D01*
X181170147Y-93442454D01*
X181171361Y-93442956D01*
X181205952Y-93390173D01*
X181269764Y-93361716D01*
X181338831Y-93372275D01*
X181391225Y-93418499D01*
X181410316Y-93484606D01*
X181410316Y-118580328D01*
X181410146Y-118586817D01*
X181392322Y-118926959D01*
X181390965Y-118939867D01*
X181338190Y-119273089D01*
X181335492Y-119285785D01*
X181248178Y-119611654D01*
X181244167Y-119623998D01*
X181123268Y-119938954D01*
X181117989Y-119950811D01*
X180964831Y-120251406D01*
X180958341Y-120262647D01*
X180774602Y-120545583D01*
X180766973Y-120556084D01*
X180554657Y-120818272D01*
X180545972Y-120827917D01*
X180307425Y-121066465D01*
X180297780Y-121075150D01*
X180035593Y-121287465D01*
X180025092Y-121295094D01*
X179742161Y-121478832D01*
X179730921Y-121485322D01*
X179430318Y-121638486D01*
X179418461Y-121643765D01*
X179103510Y-121764663D01*
X179091166Y-121768674D01*
X178874842Y-121826638D01*
X178765340Y-121855979D01*
X178765291Y-121855992D01*
X178752594Y-121858690D01*
X178419388Y-121911463D01*
X178406480Y-121912820D01*
X178066578Y-121930633D01*
X178060089Y-121930803D01*
X173471757Y-121930803D01*
X173404718Y-121911118D01*
X173358963Y-121858314D01*
X173349019Y-121789156D01*
X173378044Y-121725600D01*
X173402866Y-121703701D01*
X173492566Y-121643765D01*
X173542162Y-121610626D01*
X173660626Y-121492162D01*
X173753703Y-121352863D01*
X173817816Y-121198082D01*
X173850500Y-121033767D01*
X173850500Y-120866233D01*
X173817816Y-120701918D01*
X173753834Y-120547453D01*
X173746365Y-120477984D01*
X173753834Y-120452547D01*
X173760032Y-120437583D01*
X173817816Y-120298082D01*
X173850500Y-120133767D01*
X173850500Y-119966233D01*
X173817816Y-119801918D01*
X173753834Y-119647453D01*
X173746365Y-119577984D01*
X173753834Y-119552547D01*
X173787574Y-119471091D01*
X173817816Y-119398082D01*
X173850500Y-119233767D01*
X173850500Y-119066233D01*
X173817816Y-118901918D01*
X173753834Y-118747453D01*
X173746365Y-118677984D01*
X173753834Y-118652547D01*
X173778731Y-118592441D01*
X173817816Y-118498082D01*
X173850500Y-118333767D01*
X173850500Y-118166233D01*
X173817816Y-118001918D01*
X173753834Y-117847453D01*
X173746365Y-117777984D01*
X173753834Y-117752547D01*
X173796449Y-117649665D01*
X173817816Y-117598082D01*
X173850500Y-117433767D01*
X173850500Y-117266233D01*
X173817816Y-117101918D01*
X173753703Y-116947137D01*
X173690084Y-116851925D01*
X173660626Y-116807837D01*
X173542162Y-116689373D01*
X173402860Y-116596295D01*
X173248082Y-116532184D01*
X173248074Y-116532182D01*
X173083771Y-116499500D01*
X173083767Y-116499500D01*
X172916233Y-116499500D01*
X172916228Y-116499500D01*
X172751925Y-116532182D01*
X172751913Y-116532185D01*
X172597452Y-116596165D01*
X172527983Y-116603634D01*
X172502548Y-116596165D01*
X172348086Y-116532185D01*
X172348074Y-116532182D01*
X172183771Y-116499500D01*
X172183767Y-116499500D01*
X172016233Y-116499500D01*
X172016228Y-116499500D01*
X171851925Y-116532182D01*
X171851913Y-116532185D01*
X171697452Y-116596165D01*
X171627983Y-116603634D01*
X171602548Y-116596165D01*
X171448086Y-116532185D01*
X171448074Y-116532182D01*
X171283771Y-116499500D01*
X171283767Y-116499500D01*
X171116233Y-116499500D01*
X171116228Y-116499500D01*
X170951925Y-116532182D01*
X170951913Y-116532185D01*
X170797452Y-116596165D01*
X170727983Y-116603634D01*
X170702548Y-116596165D01*
X170548086Y-116532185D01*
X170548074Y-116532182D01*
X170383771Y-116499500D01*
X170383767Y-116499500D01*
X170216233Y-116499500D01*
X170216228Y-116499500D01*
X170051925Y-116532182D01*
X170051917Y-116532184D01*
X169897139Y-116596295D01*
X169757837Y-116689373D01*
X169639373Y-116807837D01*
X169546295Y-116947139D01*
X169482184Y-117101917D01*
X169482182Y-117101925D01*
X169449500Y-117266228D01*
X169449500Y-117433771D01*
X169482182Y-117598074D01*
X169482185Y-117598086D01*
X169546165Y-117752548D01*
X169553634Y-117822017D01*
X169546165Y-117847452D01*
X169482185Y-118001913D01*
X169482182Y-118001925D01*
X169449500Y-118166228D01*
X169449500Y-118333771D01*
X169482182Y-118498074D01*
X169482185Y-118498086D01*
X169546165Y-118652548D01*
X169553634Y-118722017D01*
X169546165Y-118747452D01*
X169482185Y-118901913D01*
X169482182Y-118901925D01*
X169449500Y-119066228D01*
X169449500Y-119233771D01*
X169482182Y-119398074D01*
X169482185Y-119398086D01*
X169546165Y-119552548D01*
X169553634Y-119622017D01*
X169546165Y-119647452D01*
X169482185Y-119801913D01*
X169482182Y-119801925D01*
X169449500Y-119966228D01*
X169449500Y-120133771D01*
X169482182Y-120298074D01*
X169482185Y-120298086D01*
X169546165Y-120452548D01*
X169553634Y-120522017D01*
X169546165Y-120547452D01*
X169482185Y-120701913D01*
X169482182Y-120701925D01*
X169449500Y-120866228D01*
X169449500Y-121033771D01*
X169482182Y-121198074D01*
X169482184Y-121198082D01*
X169546295Y-121352860D01*
X169639373Y-121492162D01*
X169757834Y-121610623D01*
X169757838Y-121610626D01*
X169897134Y-121703701D01*
X169941939Y-121757313D01*
X169950646Y-121826638D01*
X169920492Y-121889666D01*
X169861049Y-121926385D01*
X169828243Y-121930803D01*
X146575976Y-121930803D01*
X146569487Y-121930633D01*
X146229344Y-121912809D01*
X146216436Y-121911452D01*
X145883214Y-121858677D01*
X145870518Y-121855979D01*
X145544650Y-121768666D01*
X145532306Y-121764655D01*
X145217350Y-121643756D01*
X145205493Y-121638477D01*
X144904898Y-121485319D01*
X144893657Y-121478829D01*
X144806465Y-121422206D01*
X144610716Y-121295085D01*
X144600227Y-121287465D01*
X144338033Y-121075145D01*
X144328388Y-121066460D01*
X144089836Y-120827909D01*
X144081151Y-120818263D01*
X143917547Y-120616228D01*
X143868844Y-120556084D01*
X143861216Y-120545585D01*
X143677475Y-120262649D01*
X143670985Y-120251409D01*
X143517821Y-119950806D01*
X143512542Y-119938948D01*
X143491361Y-119883768D01*
X143391641Y-119623986D01*
X143387637Y-119611664D01*
X143300320Y-119285785D01*
X143297622Y-119273089D01*
X143244847Y-118939867D01*
X143243491Y-118926970D01*
X143225670Y-118586874D01*
X143225500Y-118580385D01*
X143225500Y-116180526D01*
X144774500Y-116180526D01*
X144774500Y-116482079D01*
X144774501Y-116482096D01*
X144813861Y-116781069D01*
X144891913Y-117072363D01*
X145007314Y-117350964D01*
X145007318Y-117350974D01*
X145158099Y-117612134D01*
X145341679Y-117851381D01*
X145341685Y-117851388D01*
X145554914Y-118064617D01*
X145554921Y-118064623D01*
X145794168Y-118248203D01*
X146055328Y-118398984D01*
X146055329Y-118398984D01*
X146055332Y-118398986D01*
X146241072Y-118475922D01*
X146333939Y-118514389D01*
X146333940Y-118514389D01*
X146333942Y-118514390D01*
X146625232Y-118592441D01*
X146924217Y-118631803D01*
X146924224Y-118631803D01*
X147225776Y-118631803D01*
X147225783Y-118631803D01*
X147524768Y-118592441D01*
X147816058Y-118514390D01*
X148094668Y-118398986D01*
X148355832Y-118248203D01*
X148595080Y-118064622D01*
X148808319Y-117851383D01*
X148991900Y-117612135D01*
X149142683Y-117350971D01*
X149258087Y-117072361D01*
X149273128Y-117016228D01*
X162699500Y-117016228D01*
X162699500Y-117183771D01*
X162732182Y-117348074D01*
X162732185Y-117348086D01*
X162796165Y-117502548D01*
X162803634Y-117572017D01*
X162796165Y-117597452D01*
X162732185Y-117751913D01*
X162732182Y-117751925D01*
X162699500Y-117916228D01*
X162699500Y-118083771D01*
X162732182Y-118248074D01*
X162732185Y-118248086D01*
X162796165Y-118402548D01*
X162803634Y-118472017D01*
X162796165Y-118497452D01*
X162732185Y-118651913D01*
X162732182Y-118651925D01*
X162699500Y-118816228D01*
X162699500Y-118983771D01*
X162732182Y-119148074D01*
X162732185Y-119148086D01*
X162796165Y-119302548D01*
X162803634Y-119372017D01*
X162796165Y-119397452D01*
X162732185Y-119551913D01*
X162732182Y-119551925D01*
X162699500Y-119716228D01*
X162699500Y-119883771D01*
X162732182Y-120048074D01*
X162732185Y-120048086D01*
X162796165Y-120202548D01*
X162803634Y-120272017D01*
X162796165Y-120297452D01*
X162732185Y-120451913D01*
X162732182Y-120451925D01*
X162699500Y-120616228D01*
X162699500Y-120783771D01*
X162732182Y-120948074D01*
X162732184Y-120948082D01*
X162796295Y-121102860D01*
X162889373Y-121242162D01*
X163007837Y-121360626D01*
X163099999Y-121422206D01*
X163147137Y-121453703D01*
X163301918Y-121517816D01*
X163466228Y-121550499D01*
X163466232Y-121550500D01*
X163466233Y-121550500D01*
X163633768Y-121550500D01*
X163633769Y-121550499D01*
X163798082Y-121517816D01*
X163952547Y-121453834D01*
X164022016Y-121446365D01*
X164047453Y-121453834D01*
X164201918Y-121517816D01*
X164366228Y-121550499D01*
X164366232Y-121550500D01*
X164366233Y-121550500D01*
X164533768Y-121550500D01*
X164533769Y-121550499D01*
X164698082Y-121517816D01*
X164852547Y-121453834D01*
X164922016Y-121446365D01*
X164947453Y-121453834D01*
X165101918Y-121517816D01*
X165266228Y-121550499D01*
X165266232Y-121550500D01*
X165266233Y-121550500D01*
X165433768Y-121550500D01*
X165433769Y-121550499D01*
X165598082Y-121517816D01*
X165752547Y-121453834D01*
X165822016Y-121446365D01*
X165847453Y-121453834D01*
X166001918Y-121517816D01*
X166166228Y-121550499D01*
X166166232Y-121550500D01*
X166166233Y-121550500D01*
X166333768Y-121550500D01*
X166333769Y-121550499D01*
X166498082Y-121517816D01*
X166652547Y-121453834D01*
X166722016Y-121446365D01*
X166747453Y-121453834D01*
X166901918Y-121517816D01*
X167066228Y-121550499D01*
X167066232Y-121550500D01*
X167066233Y-121550500D01*
X167233768Y-121550500D01*
X167233769Y-121550499D01*
X167398082Y-121517816D01*
X167552863Y-121453703D01*
X167692162Y-121360626D01*
X167810626Y-121242162D01*
X167903703Y-121102863D01*
X167967816Y-120948082D01*
X168000500Y-120783767D01*
X168000500Y-120616233D01*
X167967816Y-120451918D01*
X167904096Y-120298086D01*
X167903834Y-120297453D01*
X167896365Y-120227984D01*
X167903834Y-120202547D01*
X167932323Y-120133768D01*
X167967816Y-120048082D01*
X168000500Y-119883767D01*
X168000500Y-119716233D01*
X167967816Y-119551918D01*
X167904096Y-119398086D01*
X167903834Y-119397453D01*
X167896365Y-119327984D01*
X167903834Y-119302547D01*
X167932323Y-119233768D01*
X167967816Y-119148082D01*
X168000500Y-118983767D01*
X168000500Y-118816233D01*
X167967816Y-118651918D01*
X167913736Y-118521360D01*
X167903834Y-118497453D01*
X167896365Y-118427984D01*
X167903834Y-118402547D01*
X167932323Y-118333768D01*
X167967816Y-118248082D01*
X168000500Y-118083767D01*
X168000500Y-117916233D01*
X167967816Y-117751918D01*
X167904096Y-117598086D01*
X167903834Y-117597453D01*
X167896365Y-117527984D01*
X167903834Y-117502547D01*
X167910032Y-117487583D01*
X167967816Y-117348082D01*
X168000500Y-117183767D01*
X168000500Y-117016233D01*
X167967816Y-116851918D01*
X167903703Y-116697137D01*
X167836324Y-116596297D01*
X167810626Y-116557837D01*
X167692162Y-116439373D01*
X167552860Y-116346295D01*
X167453056Y-116304955D01*
X167398082Y-116282184D01*
X167398074Y-116282182D01*
X167233771Y-116249500D01*
X167233767Y-116249500D01*
X167066233Y-116249500D01*
X167066228Y-116249500D01*
X166901925Y-116282182D01*
X166901913Y-116282185D01*
X166747452Y-116346165D01*
X166677983Y-116353634D01*
X166652548Y-116346165D01*
X166498086Y-116282185D01*
X166498074Y-116282182D01*
X166333771Y-116249500D01*
X166333767Y-116249500D01*
X166166233Y-116249500D01*
X166166228Y-116249500D01*
X166001925Y-116282182D01*
X166001913Y-116282185D01*
X165847452Y-116346165D01*
X165777983Y-116353634D01*
X165752548Y-116346165D01*
X165598086Y-116282185D01*
X165598074Y-116282182D01*
X165433771Y-116249500D01*
X165433767Y-116249500D01*
X165266233Y-116249500D01*
X165266228Y-116249500D01*
X165101925Y-116282182D01*
X165101913Y-116282185D01*
X164947452Y-116346165D01*
X164877983Y-116353634D01*
X164852548Y-116346165D01*
X164698086Y-116282185D01*
X164698074Y-116282182D01*
X164533771Y-116249500D01*
X164533767Y-116249500D01*
X164366233Y-116249500D01*
X164366228Y-116249500D01*
X164201925Y-116282182D01*
X164201913Y-116282185D01*
X164047452Y-116346165D01*
X163977983Y-116353634D01*
X163952548Y-116346165D01*
X163798086Y-116282185D01*
X163798074Y-116282182D01*
X163633771Y-116249500D01*
X163633767Y-116249500D01*
X163466233Y-116249500D01*
X163466228Y-116249500D01*
X163301925Y-116282182D01*
X163301917Y-116282184D01*
X163147139Y-116346295D01*
X163007837Y-116439373D01*
X162889373Y-116557837D01*
X162796295Y-116697139D01*
X162732184Y-116851917D01*
X162732182Y-116851925D01*
X162699500Y-117016228D01*
X149273128Y-117016228D01*
X149336138Y-116781071D01*
X149375500Y-116482086D01*
X149375500Y-116180526D01*
X175274500Y-116180526D01*
X175274500Y-116482079D01*
X175274501Y-116482096D01*
X175313861Y-116781069D01*
X175391913Y-117072363D01*
X175507314Y-117350964D01*
X175507318Y-117350974D01*
X175658099Y-117612134D01*
X175841679Y-117851381D01*
X175841685Y-117851388D01*
X176054914Y-118064617D01*
X176054921Y-118064623D01*
X176294168Y-118248203D01*
X176555328Y-118398984D01*
X176555329Y-118398984D01*
X176555332Y-118398986D01*
X176741072Y-118475922D01*
X176833939Y-118514389D01*
X176833940Y-118514389D01*
X176833942Y-118514390D01*
X177125232Y-118592441D01*
X177424217Y-118631803D01*
X177424224Y-118631803D01*
X177725776Y-118631803D01*
X177725783Y-118631803D01*
X178024768Y-118592441D01*
X178316058Y-118514390D01*
X178594668Y-118398986D01*
X178855832Y-118248203D01*
X179095080Y-118064622D01*
X179308319Y-117851383D01*
X179491900Y-117612135D01*
X179642683Y-117350971D01*
X179758087Y-117072361D01*
X179836138Y-116781071D01*
X179875500Y-116482086D01*
X179875500Y-116180520D01*
X179836138Y-115881535D01*
X179758087Y-115590245D01*
X179642683Y-115311635D01*
X179491900Y-115050471D01*
X179308319Y-114811223D01*
X179308314Y-114811217D01*
X179095085Y-114597988D01*
X179095078Y-114597982D01*
X178855831Y-114414402D01*
X178594671Y-114263621D01*
X178594661Y-114263617D01*
X178316060Y-114148216D01*
X178024766Y-114070164D01*
X177725793Y-114030804D01*
X177725788Y-114030803D01*
X177725783Y-114030803D01*
X177424217Y-114030803D01*
X177424211Y-114030803D01*
X177424206Y-114030804D01*
X177125233Y-114070164D01*
X176833939Y-114148216D01*
X176555338Y-114263617D01*
X176555328Y-114263621D01*
X176294168Y-114414402D01*
X176054921Y-114597982D01*
X176054914Y-114597988D01*
X175841685Y-114811217D01*
X175841679Y-114811224D01*
X175658099Y-115050471D01*
X175507318Y-115311631D01*
X175507314Y-115311641D01*
X175391913Y-115590242D01*
X175313861Y-115881536D01*
X175274501Y-116180509D01*
X175274500Y-116180526D01*
X149375500Y-116180526D01*
X149375500Y-116180520D01*
X149336138Y-115881535D01*
X149258087Y-115590245D01*
X149142683Y-115311635D01*
X148991900Y-115050471D01*
X148808319Y-114811223D01*
X148808314Y-114811217D01*
X148595085Y-114597988D01*
X148595078Y-114597982D01*
X148355831Y-114414402D01*
X148094671Y-114263621D01*
X148094661Y-114263617D01*
X147816060Y-114148216D01*
X147524766Y-114070164D01*
X147225793Y-114030804D01*
X147225788Y-114030803D01*
X147225783Y-114030803D01*
X146924217Y-114030803D01*
X146924211Y-114030803D01*
X146924206Y-114030804D01*
X146625233Y-114070164D01*
X146333939Y-114148216D01*
X146055338Y-114263617D01*
X146055328Y-114263621D01*
X145794168Y-114414402D01*
X145554921Y-114597982D01*
X145554914Y-114597988D01*
X145341685Y-114811217D01*
X145341679Y-114811224D01*
X145158099Y-115050471D01*
X145007318Y-115311631D01*
X145007314Y-115311641D01*
X144891913Y-115590242D01*
X144813861Y-115881536D01*
X144774501Y-116180509D01*
X144774500Y-116180526D01*
X143225500Y-116180526D01*
X143225500Y-112016637D01*
X143245185Y-111949598D01*
X143297989Y-111903843D01*
X143367147Y-111893899D01*
X143430703Y-111922924D01*
X143468477Y-111981702D01*
X143471117Y-111992446D01*
X143482182Y-112048074D01*
X143482184Y-112048082D01*
X143546295Y-112202860D01*
X143639373Y-112342162D01*
X143757837Y-112460626D01*
X143849999Y-112522206D01*
X143897137Y-112553703D01*
X144051918Y-112617816D01*
X144216228Y-112650499D01*
X144216232Y-112650500D01*
X144216233Y-112650500D01*
X144383768Y-112650500D01*
X144383769Y-112650499D01*
X144548082Y-112617816D01*
X144702547Y-112553834D01*
X144772016Y-112546365D01*
X144797453Y-112553834D01*
X144951918Y-112617816D01*
X145116228Y-112650499D01*
X145116232Y-112650500D01*
X145116233Y-112650500D01*
X145283768Y-112650500D01*
X145283769Y-112650499D01*
X145448082Y-112617816D01*
X145602547Y-112553834D01*
X145672016Y-112546365D01*
X145697453Y-112553834D01*
X145851918Y-112617816D01*
X146016228Y-112650499D01*
X146016232Y-112650500D01*
X146016233Y-112650500D01*
X146183768Y-112650500D01*
X146183769Y-112650499D01*
X146348082Y-112617816D01*
X146502547Y-112553834D01*
X146572016Y-112546365D01*
X146597453Y-112553834D01*
X146751918Y-112617816D01*
X146916228Y-112650499D01*
X146916232Y-112650500D01*
X146916233Y-112650500D01*
X147083768Y-112650500D01*
X147083769Y-112650499D01*
X147248082Y-112617816D01*
X147402547Y-112553834D01*
X147472016Y-112546365D01*
X147497453Y-112553834D01*
X147651918Y-112617816D01*
X147816228Y-112650499D01*
X147816232Y-112650500D01*
X147816233Y-112650500D01*
X147983768Y-112650500D01*
X147983769Y-112650499D01*
X148148082Y-112617816D01*
X148302863Y-112553703D01*
X148442162Y-112460626D01*
X148560626Y-112342162D01*
X148653703Y-112202863D01*
X148717816Y-112048082D01*
X148750500Y-111883767D01*
X148750500Y-111716233D01*
X148717816Y-111551918D01*
X148653834Y-111397453D01*
X148646365Y-111327984D01*
X148653834Y-111302547D01*
X148660032Y-111287583D01*
X148717816Y-111148082D01*
X148750500Y-110983767D01*
X148750500Y-110816233D01*
X148717816Y-110651918D01*
X148653834Y-110497453D01*
X148646365Y-110427984D01*
X148653834Y-110402547D01*
X148660032Y-110387583D01*
X148717816Y-110248082D01*
X148750500Y-110083767D01*
X148750500Y-109916233D01*
X148717816Y-109751918D01*
X148653834Y-109597453D01*
X148646365Y-109527984D01*
X148653834Y-109502547D01*
X148660032Y-109487583D01*
X148717816Y-109348082D01*
X148750500Y-109183767D01*
X148750500Y-109016233D01*
X148717816Y-108851918D01*
X148653703Y-108697137D01*
X148622537Y-108650494D01*
X148560626Y-108557837D01*
X148442162Y-108439373D01*
X148302860Y-108346295D01*
X148148082Y-108282184D01*
X148148074Y-108282182D01*
X147983771Y-108249500D01*
X147983767Y-108249500D01*
X147816233Y-108249500D01*
X147816228Y-108249500D01*
X147651925Y-108282182D01*
X147651913Y-108282185D01*
X147497452Y-108346165D01*
X147427983Y-108353634D01*
X147402548Y-108346165D01*
X147248086Y-108282185D01*
X147248074Y-108282182D01*
X147083771Y-108249500D01*
X147083767Y-108249500D01*
X146916233Y-108249500D01*
X146916228Y-108249500D01*
X146751925Y-108282182D01*
X146751913Y-108282185D01*
X146597452Y-108346165D01*
X146527983Y-108353634D01*
X146502548Y-108346165D01*
X146348086Y-108282185D01*
X146348074Y-108282182D01*
X146183771Y-108249500D01*
X146183767Y-108249500D01*
X146016233Y-108249500D01*
X146016228Y-108249500D01*
X145851925Y-108282182D01*
X145851913Y-108282185D01*
X145697452Y-108346165D01*
X145627983Y-108353634D01*
X145602548Y-108346165D01*
X145448086Y-108282185D01*
X145448074Y-108282182D01*
X145283771Y-108249500D01*
X145283767Y-108249500D01*
X145116233Y-108249500D01*
X145116228Y-108249500D01*
X144951925Y-108282182D01*
X144951913Y-108282185D01*
X144797452Y-108346165D01*
X144727983Y-108353634D01*
X144702548Y-108346165D01*
X144548086Y-108282185D01*
X144548074Y-108282182D01*
X144383771Y-108249500D01*
X144383767Y-108249500D01*
X144216233Y-108249500D01*
X144216228Y-108249500D01*
X144051925Y-108282182D01*
X144051917Y-108282184D01*
X143897139Y-108346295D01*
X143757837Y-108439373D01*
X143639373Y-108557837D01*
X143546295Y-108697139D01*
X143482184Y-108851917D01*
X143482182Y-108851925D01*
X143471117Y-108907553D01*
X143438732Y-108969464D01*
X143378017Y-109004038D01*
X143308247Y-109000299D01*
X143251575Y-108959432D01*
X143225994Y-108894414D01*
X143225500Y-108883362D01*
X143225500Y-106648920D01*
X164399499Y-106648920D01*
X164428340Y-106793906D01*
X164428341Y-106793909D01*
X164428342Y-106793913D01*
X164437097Y-106815049D01*
X164444564Y-106884519D01*
X164437097Y-106909947D01*
X164431311Y-106923920D01*
X164428341Y-106931090D01*
X164428340Y-106931093D01*
X164399500Y-107076079D01*
X164399500Y-107076082D01*
X164399500Y-107223918D01*
X164399500Y-107223920D01*
X164399499Y-107223920D01*
X164428340Y-107368907D01*
X164428343Y-107368917D01*
X164484912Y-107505488D01*
X164484919Y-107505501D01*
X164567048Y-107628415D01*
X164567051Y-107628419D01*
X164671580Y-107732948D01*
X164671584Y-107732951D01*
X164794498Y-107815080D01*
X164794511Y-107815087D01*
X164931082Y-107871656D01*
X164931087Y-107871658D01*
X164931091Y-107871658D01*
X164931092Y-107871659D01*
X165076079Y-107900500D01*
X165076082Y-107900500D01*
X165223920Y-107900500D01*
X165321462Y-107881096D01*
X165368913Y-107871658D01*
X165505495Y-107815084D01*
X165628416Y-107732951D01*
X165731030Y-107630336D01*
X165792351Y-107596853D01*
X165794507Y-107596404D01*
X165918913Y-107571658D01*
X166055495Y-107515084D01*
X166178416Y-107432951D01*
X166282951Y-107328416D01*
X166365084Y-107205495D01*
X166421658Y-107068913D01*
X166449073Y-106931093D01*
X166450500Y-106923920D01*
X166450500Y-106776079D01*
X166421659Y-106631092D01*
X166421658Y-106631091D01*
X166421658Y-106631087D01*
X166421656Y-106631082D01*
X166365087Y-106494511D01*
X166365080Y-106494498D01*
X166282951Y-106371584D01*
X166282948Y-106371580D01*
X166178419Y-106267051D01*
X166178415Y-106267048D01*
X166055501Y-106184919D01*
X166055488Y-106184912D01*
X165918917Y-106128343D01*
X165918907Y-106128340D01*
X165767943Y-106098311D01*
X165768277Y-106096630D01*
X165711065Y-106073521D01*
X165700337Y-106063969D01*
X165628419Y-105992051D01*
X165628415Y-105992048D01*
X165505501Y-105909919D01*
X165505488Y-105909912D01*
X165368917Y-105853343D01*
X165368907Y-105853340D01*
X165223920Y-105824500D01*
X165223918Y-105824500D01*
X165076082Y-105824500D01*
X165076080Y-105824500D01*
X164931092Y-105853340D01*
X164931082Y-105853343D01*
X164794511Y-105909912D01*
X164794498Y-105909919D01*
X164671584Y-105992048D01*
X164671580Y-105992051D01*
X164567051Y-106096580D01*
X164567048Y-106096584D01*
X164484919Y-106219498D01*
X164484912Y-106219511D01*
X164428343Y-106356082D01*
X164428340Y-106356092D01*
X164399500Y-106501079D01*
X164399500Y-106501082D01*
X164399500Y-106648918D01*
X164399500Y-106648920D01*
X164399499Y-106648920D01*
X143225500Y-106648920D01*
X143225500Y-100973920D01*
X150049499Y-100973920D01*
X150078340Y-101118907D01*
X150078343Y-101118917D01*
X150134912Y-101255488D01*
X150134919Y-101255501D01*
X150217048Y-101378415D01*
X150217051Y-101378419D01*
X150321580Y-101482948D01*
X150321584Y-101482951D01*
X150444498Y-101565080D01*
X150444511Y-101565087D01*
X150581082Y-101621656D01*
X150581087Y-101621658D01*
X150581091Y-101621658D01*
X150581092Y-101621659D01*
X150726079Y-101650500D01*
X150726082Y-101650500D01*
X150873920Y-101650500D01*
X150971462Y-101631096D01*
X151018913Y-101621658D01*
X151155495Y-101565084D01*
X151278416Y-101482951D01*
X151382951Y-101378416D01*
X151465084Y-101255495D01*
X151521658Y-101118913D01*
X151550500Y-100973918D01*
X151550500Y-100826082D01*
X151550500Y-100826079D01*
X151521659Y-100681092D01*
X151521658Y-100681091D01*
X151521658Y-100681087D01*
X151521656Y-100681082D01*
X151465087Y-100544511D01*
X151465080Y-100544498D01*
X151382951Y-100421584D01*
X151382948Y-100421580D01*
X151278419Y-100317051D01*
X151278415Y-100317048D01*
X151155501Y-100234919D01*
X151155488Y-100234912D01*
X151018917Y-100178343D01*
X151018907Y-100178340D01*
X150873920Y-100149500D01*
X150873918Y-100149500D01*
X150726082Y-100149500D01*
X150726080Y-100149500D01*
X150581092Y-100178340D01*
X150581082Y-100178343D01*
X150444511Y-100234912D01*
X150444498Y-100234919D01*
X150321584Y-100317048D01*
X150321580Y-100317051D01*
X150217051Y-100421580D01*
X150217048Y-100421584D01*
X150134919Y-100544498D01*
X150134912Y-100544511D01*
X150078343Y-100681082D01*
X150078340Y-100681092D01*
X150049500Y-100826079D01*
X150049500Y-100826082D01*
X150049500Y-100973918D01*
X150049500Y-100973920D01*
X150049499Y-100973920D01*
X143225500Y-100973920D01*
X143225500Y-98683920D01*
X161399499Y-98683920D01*
X161428340Y-98828907D01*
X161428343Y-98828917D01*
X161484912Y-98965488D01*
X161484919Y-98965501D01*
X161567048Y-99088415D01*
X161567051Y-99088419D01*
X161671580Y-99192948D01*
X161671584Y-99192951D01*
X161794498Y-99275080D01*
X161794511Y-99275087D01*
X161931082Y-99331656D01*
X161931087Y-99331658D01*
X162064967Y-99358289D01*
X162067963Y-99358885D01*
X162129874Y-99391270D01*
X162131453Y-99392821D01*
X162221580Y-99482948D01*
X162221584Y-99482951D01*
X162344498Y-99565080D01*
X162344511Y-99565087D01*
X162481082Y-99621656D01*
X162481087Y-99621658D01*
X162481091Y-99621658D01*
X162481092Y-99621659D01*
X162626079Y-99650500D01*
X162626082Y-99650500D01*
X162773920Y-99650500D01*
X162871462Y-99631096D01*
X162918913Y-99621658D01*
X163055495Y-99565084D01*
X163178416Y-99482951D01*
X163282951Y-99378416D01*
X163365084Y-99255495D01*
X163421658Y-99118913D01*
X163450500Y-98973918D01*
X163450500Y-98826082D01*
X163450500Y-98826079D01*
X163421659Y-98681092D01*
X163421658Y-98681091D01*
X163421658Y-98681087D01*
X163418081Y-98672452D01*
X163410612Y-98602987D01*
X163418079Y-98577551D01*
X163421658Y-98568913D01*
X163450500Y-98423918D01*
X163450500Y-98276082D01*
X163450500Y-98276079D01*
X163421659Y-98131092D01*
X163421658Y-98131091D01*
X163421658Y-98131087D01*
X163378565Y-98027051D01*
X163365087Y-97994511D01*
X163365080Y-97994498D01*
X163282951Y-97871584D01*
X163282948Y-97871580D01*
X163178419Y-97767051D01*
X163178415Y-97767048D01*
X163055501Y-97684919D01*
X163055488Y-97684912D01*
X162918917Y-97628343D01*
X162918907Y-97628340D01*
X162773920Y-97599500D01*
X162773918Y-97599500D01*
X162626082Y-97599500D01*
X162626080Y-97599500D01*
X162481092Y-97628340D01*
X162481082Y-97628343D01*
X162344511Y-97684912D01*
X162344498Y-97684919D01*
X162221585Y-97767047D01*
X162193519Y-97795114D01*
X162165450Y-97823182D01*
X162104130Y-97856666D01*
X162077771Y-97859500D01*
X162076080Y-97859500D01*
X161931092Y-97888340D01*
X161931082Y-97888343D01*
X161794511Y-97944912D01*
X161794498Y-97944919D01*
X161671584Y-98027048D01*
X161671580Y-98027051D01*
X161567051Y-98131580D01*
X161567048Y-98131584D01*
X161484919Y-98254498D01*
X161484912Y-98254511D01*
X161428343Y-98391082D01*
X161428340Y-98391092D01*
X161399500Y-98536079D01*
X161399500Y-98536082D01*
X161399500Y-98683918D01*
X161399500Y-98683920D01*
X161399499Y-98683920D01*
X143225500Y-98683920D01*
X143225500Y-91810769D01*
X156309884Y-91810769D01*
X156309884Y-91968462D01*
X156340645Y-92123105D01*
X156340648Y-92123117D01*
X156400986Y-92268788D01*
X156400993Y-92268801D01*
X156488593Y-92399903D01*
X156488597Y-92399908D01*
X156600091Y-92511402D01*
X156600095Y-92511405D01*
X156731198Y-92599006D01*
X156731211Y-92599013D01*
X156876882Y-92659351D01*
X156876887Y-92659353D01*
X157031537Y-92690115D01*
X157031540Y-92690116D01*
X157031542Y-92690116D01*
X157189228Y-92690116D01*
X157189229Y-92690115D01*
X157343881Y-92659353D01*
X157489563Y-92599010D01*
X157620673Y-92511405D01*
X157732173Y-92399905D01*
X157732175Y-92399903D01*
X157776124Y-92334126D01*
X157819778Y-92268795D01*
X157819782Y-92268783D01*
X157821245Y-92266049D01*
X157822395Y-92264877D01*
X157823163Y-92263729D01*
X157823380Y-92263874D01*
X157870207Y-92216204D01*
X157930605Y-92200500D01*
X162020234Y-92200500D01*
X162087273Y-92220185D01*
X162089125Y-92221398D01*
X162220814Y-92309390D01*
X162220827Y-92309397D01*
X162366498Y-92369735D01*
X162366503Y-92369737D01*
X162518157Y-92399903D01*
X162521153Y-92400499D01*
X162521156Y-92400500D01*
X162521158Y-92400500D01*
X162678844Y-92400500D01*
X162678845Y-92400499D01*
X162833497Y-92369737D01*
X162979179Y-92309394D01*
X163110289Y-92221789D01*
X163221789Y-92110289D01*
X163309394Y-91979179D01*
X163369737Y-91833497D01*
X163400500Y-91678842D01*
X163400500Y-91521158D01*
X163400500Y-91521155D01*
X163400499Y-91521153D01*
X163369738Y-91366510D01*
X163369737Y-91366503D01*
X163348913Y-91316228D01*
X163309397Y-91220827D01*
X163309390Y-91220814D01*
X163221789Y-91089711D01*
X163221786Y-91089707D01*
X163110292Y-90978213D01*
X163110288Y-90978210D01*
X162979185Y-90890609D01*
X162979172Y-90890602D01*
X162833501Y-90830264D01*
X162833489Y-90830261D01*
X162678845Y-90799500D01*
X162678842Y-90799500D01*
X162521158Y-90799500D01*
X162521155Y-90799500D01*
X162366510Y-90830261D01*
X162366498Y-90830264D01*
X162220827Y-90890602D01*
X162220814Y-90890609D01*
X162089125Y-90978602D01*
X162022447Y-90999480D01*
X162020234Y-90999500D01*
X157486669Y-90999500D01*
X157486653Y-90999499D01*
X157479057Y-90999499D01*
X157320943Y-90999499D01*
X157168215Y-91040423D01*
X157168213Y-91040423D01*
X157168213Y-91040424D01*
X157118097Y-91069359D01*
X157118092Y-91069361D01*
X157112646Y-91072505D01*
X157050650Y-91089116D01*
X157031539Y-91089116D01*
X156876894Y-91119877D01*
X156876882Y-91119880D01*
X156731211Y-91180218D01*
X156731198Y-91180225D01*
X156600095Y-91267826D01*
X156600091Y-91267829D01*
X156488597Y-91379323D01*
X156488594Y-91379327D01*
X156400993Y-91510430D01*
X156400986Y-91510443D01*
X156340648Y-91656114D01*
X156340645Y-91656126D01*
X156309884Y-91810769D01*
X143225500Y-91810769D01*
X143225500Y-85680526D01*
X144774500Y-85680526D01*
X144774500Y-85982079D01*
X144774501Y-85982096D01*
X144813861Y-86281069D01*
X144891913Y-86572363D01*
X145007314Y-86850964D01*
X145007318Y-86850974D01*
X145158099Y-87112134D01*
X145341679Y-87351381D01*
X145341685Y-87351388D01*
X145554914Y-87564617D01*
X145554921Y-87564623D01*
X145794168Y-87748203D01*
X146055328Y-87898984D01*
X146055329Y-87898984D01*
X146055332Y-87898986D01*
X146241072Y-87975922D01*
X146333939Y-88014389D01*
X146333940Y-88014389D01*
X146333942Y-88014390D01*
X146625232Y-88092441D01*
X146924217Y-88131803D01*
X146924224Y-88131803D01*
X147225776Y-88131803D01*
X147225783Y-88131803D01*
X147524768Y-88092441D01*
X147816058Y-88014390D01*
X148094668Y-87898986D01*
X148355832Y-87748203D01*
X148595080Y-87564622D01*
X148808319Y-87351383D01*
X148991900Y-87112135D01*
X149142683Y-86850971D01*
X149258087Y-86572361D01*
X149336138Y-86281071D01*
X149375500Y-85982086D01*
X149375500Y-85680526D01*
X175274500Y-85680526D01*
X175274500Y-85982079D01*
X175274501Y-85982096D01*
X175313861Y-86281069D01*
X175391913Y-86572363D01*
X175507314Y-86850964D01*
X175507318Y-86850974D01*
X175658099Y-87112134D01*
X175841679Y-87351381D01*
X175841685Y-87351388D01*
X176054914Y-87564617D01*
X176054921Y-87564623D01*
X176294168Y-87748203D01*
X176555328Y-87898984D01*
X176555329Y-87898984D01*
X176555332Y-87898986D01*
X176741072Y-87975922D01*
X176833939Y-88014389D01*
X176833940Y-88014389D01*
X176833942Y-88014390D01*
X177125232Y-88092441D01*
X177424217Y-88131803D01*
X177424224Y-88131803D01*
X177725776Y-88131803D01*
X177725783Y-88131803D01*
X178024768Y-88092441D01*
X178316058Y-88014390D01*
X178594668Y-87898986D01*
X178855832Y-87748203D01*
X179095080Y-87564622D01*
X179308319Y-87351383D01*
X179491900Y-87112135D01*
X179642683Y-86850971D01*
X179758087Y-86572361D01*
X179836138Y-86281071D01*
X179875500Y-85982086D01*
X179875500Y-85680520D01*
X179836138Y-85381535D01*
X179758087Y-85090245D01*
X179642683Y-84811635D01*
X179491900Y-84550471D01*
X179336119Y-84347453D01*
X179308320Y-84311224D01*
X179308314Y-84311217D01*
X179095085Y-84097988D01*
X179095078Y-84097982D01*
X178855831Y-83914402D01*
X178594671Y-83763621D01*
X178594661Y-83763617D01*
X178316060Y-83648216D01*
X178024766Y-83570164D01*
X177725793Y-83530804D01*
X177725788Y-83530803D01*
X177725783Y-83530803D01*
X177424217Y-83530803D01*
X177424211Y-83530803D01*
X177424206Y-83530804D01*
X177125233Y-83570164D01*
X176833939Y-83648216D01*
X176555338Y-83763617D01*
X176555328Y-83763621D01*
X176294168Y-83914402D01*
X176054921Y-84097982D01*
X176054914Y-84097988D01*
X175841685Y-84311217D01*
X175841679Y-84311224D01*
X175658099Y-84550471D01*
X175507318Y-84811631D01*
X175507314Y-84811641D01*
X175391913Y-85090242D01*
X175313861Y-85381536D01*
X175274501Y-85680509D01*
X175274500Y-85680526D01*
X149375500Y-85680526D01*
X149375500Y-85680520D01*
X149336138Y-85381535D01*
X149258087Y-85090245D01*
X149142683Y-84811635D01*
X148991900Y-84550471D01*
X148836119Y-84347453D01*
X148808320Y-84311224D01*
X148808314Y-84311217D01*
X148595085Y-84097988D01*
X148595078Y-84097982D01*
X148355831Y-83914402D01*
X148094671Y-83763621D01*
X148094661Y-83763617D01*
X147816060Y-83648216D01*
X147524766Y-83570164D01*
X147225793Y-83530804D01*
X147225788Y-83530803D01*
X147225783Y-83530803D01*
X146924217Y-83530803D01*
X146924211Y-83530803D01*
X146924206Y-83530804D01*
X146625233Y-83570164D01*
X146333939Y-83648216D01*
X146055338Y-83763617D01*
X146055328Y-83763621D01*
X145794168Y-83914402D01*
X145554921Y-84097982D01*
X145554914Y-84097988D01*
X145341685Y-84311217D01*
X145341679Y-84311224D01*
X145158099Y-84550471D01*
X145007318Y-84811631D01*
X145007314Y-84811641D01*
X144891913Y-85090242D01*
X144813861Y-85381536D01*
X144774501Y-85680509D01*
X144774500Y-85680526D01*
X143225500Y-85680526D01*
X143225500Y-83578246D01*
X143225670Y-83571757D01*
X143243474Y-83232028D01*
X143244831Y-83219119D01*
X143248164Y-83198074D01*
X143297541Y-82886324D01*
X143300234Y-82873648D01*
X143387449Y-82548159D01*
X143391453Y-82535837D01*
X143512212Y-82221248D01*
X143517476Y-82209426D01*
X143670458Y-81909179D01*
X143676940Y-81897953D01*
X143860459Y-81615359D01*
X143868074Y-81604878D01*
X144080138Y-81343000D01*
X144088806Y-81333374D01*
X144327072Y-81095107D01*
X144336697Y-81086440D01*
X144598576Y-80874375D01*
X144609057Y-80866760D01*
X144891664Y-80683233D01*
X144902862Y-80676767D01*
X145203123Y-80523777D01*
X145214945Y-80518513D01*
X145529534Y-80397754D01*
X145541856Y-80393750D01*
X145867345Y-80306534D01*
X145880020Y-80303841D01*
X146212818Y-80251131D01*
X146225722Y-80249775D01*
X146565396Y-80231972D01*
X146571886Y-80231803D01*
X146603048Y-80231803D01*
X150684547Y-80231803D01*
X150751586Y-80251488D01*
G37*
%TD.AperFunction*%
%TD*%
M02*
