M48
; DRILL file {KiCad 9.0.7} date 2026-04-25T19:56:40+0200
; FORMAT={-:-/ absolute / metric / decimal}
; #@! TF.CreationDate,2026-04-25T19:56:40+02:00
; #@! TF.GenerationSoftware,Kicad,Pcbnew,9.0.7
; #@! TF.FileFunction,Plated,1,4,PTH
FMAT,2
METRIC
; #@! TA.AperFunction,Plated,PTH,ViaDrill
T1C0.300
; #@! TA.AperFunction,Plated,PTH,ViaDrill
T2C0.500
%
G90
G05
T1
X149.225Y-105.475
X149.225Y-106.025
X150.79Y-105.46
X150.8Y-100.9
X152.55Y-87.5
X154.74Y-108.04
X156.8Y-113.0
X157.11Y-91.89
X158.9Y-110.4
X159.525Y-105.775
X160.1Y-105.775
X160.675Y-105.775
X162.15Y-98.61
X162.16Y-104.68
X162.17Y-105.31
X162.6Y-91.6
X162.7Y-98.35
X162.7Y-98.9
X163.57Y-103.21
X163.62Y-101.28
X164.0Y-94.76
X164.01Y-95.39
X164.2Y-103.2
X164.25Y-101.27
X165.15Y-106.575
X165.15Y-107.15
X165.7Y-106.85
X165.72Y-100.14
X165.73Y-100.77
X166.8Y-99.56
X167.37Y-99.56
X167.95Y-99.57
X168.95Y-113.0
X169.54Y-94.36
X171.6Y-87.35
X174.12Y-101.8
X174.292Y-98.072
X174.7Y-101.79
X177.7Y-96.25
X177.7Y-96.9
X177.75Y-99.2
X177.75Y-99.85
T2
X144.3Y-90.5
X144.3Y-91.4
X144.3Y-92.3
X144.3Y-93.2
X144.3Y-109.1
X144.3Y-110.0
X144.3Y-110.9
X144.3Y-111.8
X145.2Y-90.5
X145.2Y-91.4
X145.2Y-92.3
X145.2Y-93.2
X145.2Y-109.1
X145.2Y-110.0
X145.2Y-110.9
X145.2Y-111.8
X146.1Y-90.5
X146.1Y-91.4
X146.1Y-92.3
X146.1Y-93.2
X146.1Y-109.1
X146.1Y-110.0
X146.1Y-110.9
X146.1Y-111.8
X147.0Y-90.5
X147.0Y-91.4
X147.0Y-92.3
X147.0Y-93.2
X147.0Y-109.1
X147.0Y-110.0
X147.0Y-110.9
X147.0Y-111.8
X147.9Y-90.5
X147.9Y-91.4
X147.9Y-92.3
X147.9Y-93.2
X147.9Y-109.1
X147.9Y-110.0
X147.9Y-110.9
X147.9Y-111.8
X151.25Y-81.15
X151.25Y-82.05
X151.25Y-82.95
X151.25Y-83.85
X151.25Y-84.75
X151.25Y-117.35
X151.25Y-118.25
X151.25Y-119.15
X151.25Y-120.05
X151.25Y-120.95
X152.15Y-81.15
X152.15Y-82.05
X152.15Y-82.95
X152.15Y-83.85
X152.15Y-84.75
X152.15Y-117.35
X152.15Y-118.25
X152.15Y-119.15
X152.15Y-120.05
X152.15Y-120.95
X153.05Y-81.15
X153.05Y-82.05
X153.05Y-82.95
X153.05Y-83.85
X153.05Y-84.75
X153.05Y-117.35
X153.05Y-118.25
X153.05Y-119.15
X153.05Y-120.05
X153.05Y-120.95
X153.95Y-81.15
X153.95Y-82.05
X153.95Y-82.95
X153.95Y-83.85
X153.95Y-84.75
X153.95Y-117.35
X153.95Y-118.25
X153.95Y-119.15
X153.95Y-120.05
X153.95Y-120.95
X157.025Y-117.1
X157.025Y-118.0
X157.025Y-118.9
X157.025Y-119.8
X157.025Y-120.7
X157.925Y-117.1
X157.925Y-118.0
X157.925Y-118.9
X157.925Y-119.8
X157.925Y-120.7
X158.825Y-117.1
X158.825Y-118.0
X158.825Y-118.9
X158.825Y-119.8
X158.825Y-120.7
X159.725Y-117.1
X159.725Y-118.0
X159.725Y-118.9
X159.725Y-119.8
X159.725Y-120.7
X160.625Y-117.1
X160.625Y-118.0
X160.625Y-118.9
X160.625Y-119.8
X160.625Y-120.7
X163.2Y-87.0
X163.2Y-87.8
X163.55Y-117.1
X163.55Y-118.0
X163.55Y-118.9
X163.55Y-119.8
X163.55Y-120.7
X164.0Y-87.0
X164.0Y-87.8
X164.45Y-117.1
X164.45Y-118.0
X164.45Y-118.9
X164.45Y-119.8
X164.45Y-120.7
X165.35Y-117.1
X165.35Y-118.0
X165.35Y-118.9
X165.35Y-119.8
X165.35Y-120.7
X166.25Y-117.1
X166.25Y-118.0
X166.25Y-118.9
X166.25Y-119.8
X166.25Y-120.7
X167.15Y-117.1
X167.15Y-118.0
X167.15Y-118.9
X167.15Y-119.8
X167.15Y-120.7
X170.25Y-81.15
X170.25Y-82.05
X170.25Y-82.95
X170.25Y-83.85
X170.25Y-84.75
X170.3Y-117.35
X170.3Y-118.25
X170.3Y-119.15
X170.3Y-120.05
X170.3Y-120.95
X171.15Y-81.15
X171.15Y-82.05
X171.15Y-82.95
X171.15Y-83.85
X171.15Y-84.75
X171.2Y-117.35
X171.2Y-118.25
X171.2Y-119.15
X171.2Y-120.05
X171.2Y-120.95
X172.05Y-81.15
X172.05Y-82.05
X172.05Y-82.95
X172.05Y-83.85
X172.05Y-84.75
X172.1Y-117.35
X172.1Y-118.25
X172.1Y-119.15
X172.1Y-120.05
X172.1Y-120.95
X172.95Y-81.15
X172.95Y-82.05
X172.95Y-82.95
X172.95Y-83.85
X172.95Y-84.75
X173.0Y-117.35
X173.0Y-118.25
X173.0Y-119.15
X173.0Y-120.05
X173.0Y-120.95
X176.75Y-90.5
X176.75Y-91.4
X176.75Y-92.3
X176.75Y-93.2
X176.8Y-109.05
X176.8Y-109.95
X176.8Y-110.85
X176.8Y-111.75
X177.65Y-90.5
X177.65Y-91.4
X177.65Y-92.3
X177.65Y-93.2
X177.7Y-109.05
X177.7Y-109.95
X177.7Y-110.85
X177.7Y-111.75
X178.55Y-90.5
X178.55Y-91.4
X178.55Y-92.3
X178.55Y-93.2
X178.6Y-109.05
X178.6Y-109.95
X178.6Y-110.85
X178.6Y-111.75
X179.45Y-90.5
X179.45Y-91.4
X179.45Y-92.3
X179.45Y-93.2
X179.5Y-109.05
X179.5Y-109.95
X179.5Y-110.85
X179.5Y-111.75
X180.35Y-90.5
X180.35Y-91.4
X180.35Y-92.3
X180.35Y-93.2
X180.4Y-109.05
X180.4Y-109.95
X180.4Y-110.85
X180.4Y-111.75
M30
