%TF.GenerationSoftware,KiCad,Pcbnew,9.0.7*%
%TF.CreationDate,2026-04-25T19:56:43+02:00*%
%TF.ProjectId,M-PDB,4d2d5044-422e-46b6-9963-61645f706362,rev?*%
%TF.SameCoordinates,Original*%
%TF.FileFunction,Copper,L1,Top*%
%TF.FilePolarity,Positive*%
%FSLAX46Y46*%
G04 Gerber Fmt 4.6, Leading zero omitted, Abs format (unit mm)*
G04 Created by KiCad (PCBNEW 9.0.7) date 2026-04-25 19:56:43*
%MOMM*%
%LPD*%
G01*
G04 APERTURE LIST*
G04 Aperture macros list*
%AMRoundRect*
0 Rectangle with rounded corners*
0 $1 Rounding radius*
0 $2 $3 $4 $5 $6 $7 $8 $9 X,Y pos of 4 corners*
0 Add a 4 corners polygon primitive as box body*
4,1,4,$2,$3,$4,$5,$6,$7,$8,$9,$2,$3,0*
0 Add four circle primitives for the rounded corners*
1,1,$1+$1,$2,$3*
1,1,$1+$1,$4,$5*
1,1,$1+$1,$6,$7*
1,1,$1+$1,$8,$9*
0 Add four rect primitives between the rounded corners*
20,1,$1+$1,$2,$3,$4,$5,0*
20,1,$1+$1,$4,$5,$6,$7,0*
20,1,$1+$1,$6,$7,$8,$9,0*
20,1,$1+$1,$8,$9,$2,$3,0*%
G04 Aperture macros list end*
%TA.AperFunction,SMDPad,CuDef*%
%ADD10RoundRect,0.250000X0.650000X-0.325000X0.650000X0.325000X-0.650000X0.325000X-0.650000X-0.325000X0*%
%TD*%
%TA.AperFunction,SMDPad,CuDef*%
%ADD11RoundRect,0.250000X-0.650000X0.325000X-0.650000X-0.325000X0.650000X-0.325000X0.650000X0.325000X0*%
%TD*%
%TA.AperFunction,SMDPad,CuDef*%
%ADD12RoundRect,0.250000X-0.325000X-0.650000X0.325000X-0.650000X0.325000X0.650000X-0.325000X0.650000X0*%
%TD*%
%TA.AperFunction,SMDPad,CuDef*%
%ADD13R,2.000000X2.000000*%
%TD*%
%TA.AperFunction,SMDPad,CuDef*%
%ADD14R,3.200000X2.400000*%
%TD*%
%TA.AperFunction,SMDPad,CuDef*%
%ADD15RoundRect,0.140000X-0.170000X0.140000X-0.170000X-0.140000X0.170000X-0.140000X0.170000X0.140000X0*%
%TD*%
%TA.AperFunction,SMDPad,CuDef*%
%ADD16R,1.800000X1.200000*%
%TD*%
%TA.AperFunction,SMDPad,CuDef*%
%ADD17R,1.550000X0.600000*%
%TD*%
%TA.AperFunction,SMDPad,CuDef*%
%ADD18RoundRect,0.225000X2.025000X2.025000X-2.025000X2.025000X-2.025000X-2.025000X2.025000X-2.025000X0*%
%TD*%
%TA.AperFunction,SMDPad,CuDef*%
%ADD19RoundRect,0.140000X0.170000X-0.140000X0.170000X0.140000X-0.170000X0.140000X-0.170000X-0.140000X0*%
%TD*%
%TA.AperFunction,SMDPad,CuDef*%
%ADD20RoundRect,0.225000X-2.025000X2.025000X-2.025000X-2.025000X2.025000X-2.025000X2.025000X2.025000X0*%
%TD*%
%TA.AperFunction,SMDPad,CuDef*%
%ADD21RoundRect,0.140000X-0.140000X-0.170000X0.140000X-0.170000X0.140000X0.170000X-0.140000X0.170000X0*%
%TD*%
%TA.AperFunction,SMDPad,CuDef*%
%ADD22RoundRect,0.135000X-0.185000X0.135000X-0.185000X-0.135000X0.185000X-0.135000X0.185000X0.135000X0*%
%TD*%
%TA.AperFunction,SMDPad,CuDef*%
%ADD23RoundRect,0.250000X2.250000X2.250000X-2.250000X2.250000X-2.250000X-2.250000X2.250000X-2.250000X0*%
%TD*%
%TA.AperFunction,SMDPad,CuDef*%
%ADD24R,0.660000X0.320000*%
%TD*%
%TA.AperFunction,SMDPad,CuDef*%
%ADD25R,1.500000X1.500000*%
%TD*%
%TA.AperFunction,SMDPad,CuDef*%
%ADD26RoundRect,0.140000X0.140000X0.170000X-0.140000X0.170000X-0.140000X-0.170000X0.140000X-0.170000X0*%
%TD*%
%TA.AperFunction,SMDPad,CuDef*%
%ADD27RoundRect,0.135000X0.185000X-0.135000X0.185000X0.135000X-0.185000X0.135000X-0.185000X-0.135000X0*%
%TD*%
%TA.AperFunction,ViaPad*%
%ADD28C,0.700000*%
%TD*%
%TA.AperFunction,ViaPad*%
%ADD29C,0.500000*%
%TD*%
%TA.AperFunction,ViaPad*%
%ADD30C,0.600000*%
%TD*%
%TA.AperFunction,Conductor*%
%ADD31C,0.200000*%
%TD*%
%TA.AperFunction,Conductor*%
%ADD32C,0.300000*%
%TD*%
G04 APERTURE END LIST*
D10*
%TO.P,C2,2*%
%TO.N,GND*%
X163880000Y-104440000D03*
%TO.P,C2,1*%
%TO.N,+VBAT*%
X163880000Y-107390000D03*
%TD*%
%TO.P,C9,1*%
%TO.N,+9V*%
X174430000Y-106012500D03*
%TO.P,C9,2*%
%TO.N,GND*%
X174430000Y-103062500D03*
%TD*%
D11*
%TO.P,C7,1*%
%TO.N,+VBAT*%
X163922500Y-98037500D03*
%TO.P,C7,2*%
%TO.N,GND*%
X163922500Y-100987500D03*
%TD*%
D12*
%TO.P,C4,1*%
%TO.N,+5V*%
X159975000Y-95125000D03*
%TO.P,C4,2*%
%TO.N,GND*%
X162925000Y-95125000D03*
%TD*%
D13*
%TO.P,PAD1,1,1*%
%TO.N,+9V*%
X179500000Y-105700000D03*
%TD*%
D14*
%TO.P,L1,1,1*%
%TO.N,/BUCK_SW*%
X157937500Y-103712500D03*
%TO.P,L1,2,2*%
%TO.N,+5V*%
X157937500Y-97712500D03*
%TD*%
D15*
%TO.P,C8,1*%
%TO.N,+VBAT*%
X165712500Y-98572500D03*
%TO.P,C8,2*%
%TO.N,GND*%
X165712500Y-99532500D03*
%TD*%
D16*
%TO.P,J1,*%
%TO.N,*%
X144862500Y-96400000D03*
X144862500Y-106000000D03*
D17*
%TO.P,J1,1,Pin_1*%
%TO.N,M1*%
X148737500Y-97700000D03*
%TO.P,J1,2,Pin_2*%
%TO.N,M2*%
X148737500Y-98700000D03*
%TO.P,J1,3,Pin_3*%
%TO.N,M3*%
X148737500Y-99700000D03*
%TO.P,J1,4,Pin_4*%
%TO.N,M4*%
X148737500Y-100700000D03*
%TO.P,J1,5,Pin_5*%
%TO.N,unconnected-(J1-Pin_5-Pad5)*%
X148737500Y-101700000D03*
%TO.P,J1,6,Pin_6*%
%TO.N,unconnected-(J1-Pin_6-Pad6)*%
X148737500Y-102700000D03*
%TO.P,J1,7,Pin_7*%
%TO.N,/ADC_VBAT*%
X148737500Y-103700000D03*
%TO.P,J1,8,Pin_8*%
%TO.N,GND*%
X148737500Y-104700000D03*
%TD*%
D18*
%TO.P,PAD20,1,1*%
%TO.N,GND*%
X171550000Y-82950000D03*
%TD*%
D19*
%TO.P,C3,1*%
%TO.N,+VBAT*%
X162170000Y-106865000D03*
%TO.P,C3,2*%
%TO.N,GND*%
X162170000Y-105905000D03*
%TD*%
D20*
%TO.P,PAD17,1,1*%
%TO.N,+VBAT*%
X171575000Y-119150000D03*
%TD*%
D21*
%TO.P,C10,1*%
%TO.N,/BUCK2_SS*%
X172602500Y-98072500D03*
%TO.P,C10,2*%
%TO.N,GND*%
X173562500Y-98072500D03*
%TD*%
D22*
%TO.P,R5,1*%
%TO.N,+9V*%
X170672500Y-95092500D03*
%TO.P,R5,2*%
%TO.N,/BUCK2_FB*%
X170672500Y-96112500D03*
%TD*%
D23*
%TO.P,PAD15,1,1*%
%TO.N,+VBAT*%
X165350000Y-118900000D03*
%TD*%
D18*
%TO.P,PAD23,1,1*%
%TO.N,+VBAT*%
X152575000Y-82950000D03*
%TD*%
D24*
%TO.P,U2,1,RT*%
%TO.N,unconnected-(U2-RT-Pad1)*%
X168067500Y-97572500D03*
%TO.P,U2,2,EN*%
%TO.N,unconnected-(U2-EN-Pad2)*%
X168067500Y-98072500D03*
%TO.P,U2,3,VIN*%
%TO.N,+VBAT*%
X168067500Y-98572500D03*
%TO.P,U2,4,GND*%
%TO.N,GND*%
X168067500Y-99072500D03*
%TO.P,U2,5,SW*%
%TO.N,/BUCK2_SW*%
X169537500Y-99072500D03*
%TO.P,U2,6,BST*%
%TO.N,/BUCK2_BST*%
X169537500Y-98572500D03*
%TO.P,U2,7,SS*%
%TO.N,/BUCK2_SS*%
X169537500Y-98072500D03*
%TO.P,U2,8,FB*%
%TO.N,/BUCK2_FB*%
X169537500Y-97572500D03*
%TD*%
D25*
%TO.P,PAD4,1,1*%
%TO.N,GND*%
X171600000Y-88900000D03*
%TD*%
%TO.P,PAD10,1,1*%
%TO.N,GND*%
X155400000Y-113000000D03*
%TD*%
D14*
%TO.P,L2,1,1*%
%TO.N,/BUCK2_SW*%
X169562500Y-101787500D03*
%TO.P,L2,2,2*%
%TO.N,+9V*%
X169562500Y-107787500D03*
%TD*%
D25*
%TO.P,PAD11,1,1*%
%TO.N,M4*%
X152550000Y-91600000D03*
%TD*%
D22*
%TO.P,R3,1*%
%TO.N,/ADC_VBAT*%
X150790000Y-103705000D03*
%TO.P,R3,2*%
%TO.N,GND*%
X150790000Y-104725000D03*
%TD*%
D26*
%TO.P,C1,1*%
%TO.N,/BUCK_BST*%
X155700000Y-106335000D03*
%TO.P,C1,2*%
%TO.N,/BUCK_SW*%
X154740000Y-106335000D03*
%TD*%
D13*
%TO.P,PAD8,1,1*%
%TO.N,GND*%
X179500000Y-99550000D03*
%TD*%
D25*
%TO.P,PAD13,1,1*%
%TO.N,+5V*%
X160000000Y-85000000D03*
%TD*%
D22*
%TO.P,R4,1*%
%TO.N,/BUCK_FB*%
X158050000Y-109385000D03*
%TO.P,R4,2*%
%TO.N,GND*%
X158050000Y-110405000D03*
%TD*%
D23*
%TO.P,PAD16,1,1*%
%TO.N,GND*%
X158825000Y-118900000D03*
%TD*%
D18*
%TO.P,PAD24,1,1*%
%TO.N,GND*%
X146075000Y-91850000D03*
%TD*%
%TO.P,PAD22,1,1*%
%TO.N,GND*%
X152575000Y-119150000D03*
%TD*%
%TO.P,PAD21,1,1*%
%TO.N,+VBAT*%
X146075000Y-110400000D03*
%TD*%
D25*
%TO.P,PAD12,1,1*%
%TO.N,GND*%
X170300000Y-113000000D03*
%TD*%
D18*
%TO.P,PAD19,1,1*%
%TO.N,+VBAT*%
X178550000Y-91850000D03*
%TD*%
D21*
%TO.P,C6,1*%
%TO.N,/BUCK2_BST*%
X172602500Y-99082500D03*
%TO.P,C6,2*%
%TO.N,/BUCK2_SW*%
X173562500Y-99082500D03*
%TD*%
D25*
%TO.P,PAD9,1,1*%
%TO.N,M3*%
X152700000Y-113000000D03*
%TD*%
D20*
%TO.P,PAD18,1,1*%
%TO.N,GND*%
X178575000Y-110400000D03*
%TD*%
D22*
%TO.P,R1,1*%
%TO.N,+VBAT*%
X150800000Y-101640000D03*
%TO.P,R1,2*%
%TO.N,/ADC_VBAT*%
X150800000Y-102660000D03*
%TD*%
D25*
%TO.P,PAD6,1,1*%
%TO.N,GND*%
X152550000Y-88900000D03*
%TD*%
D27*
%TO.P,R6,1*%
%TO.N,/BUCK2_FB*%
X169542500Y-96112500D03*
%TO.P,R6,2*%
%TO.N,GND*%
X169542500Y-95092500D03*
%TD*%
D25*
%TO.P,PAD5,1,1*%
%TO.N,M2*%
X173000000Y-113000000D03*
%TD*%
%TO.P,PAD14,1,1*%
%TO.N,GND*%
X163500000Y-85000000D03*
%TD*%
%TO.P,PAD3,1,1*%
%TO.N,M1*%
X171600000Y-91600000D03*
%TD*%
D13*
%TO.P,PAD7,1,1*%
%TO.N,+9V*%
X179500000Y-102675000D03*
%TD*%
D24*
%TO.P,U1,1,RT*%
%TO.N,unconnected-(U1-RT-Pad1)*%
X159515000Y-107865000D03*
%TO.P,U1,2,EN*%
%TO.N,unconnected-(U1-EN-Pad2)*%
X159515000Y-107365000D03*
%TO.P,U1,3,VIN*%
%TO.N,+VBAT*%
X159515000Y-106865000D03*
%TO.P,U1,4,GND*%
%TO.N,GND*%
X159515000Y-106365000D03*
%TO.P,U1,5,SW*%
%TO.N,/BUCK_SW*%
X158045000Y-106365000D03*
%TO.P,U1,6,BST*%
%TO.N,/BUCK_BST*%
X158045000Y-106865000D03*
%TO.P,U1,7,SS*%
%TO.N,/BUCK_SS*%
X158045000Y-107365000D03*
%TO.P,U1,8,FB*%
%TO.N,/BUCK_FB*%
X158045000Y-107865000D03*
%TD*%
D26*
%TO.P,C5,1*%
%TO.N,/BUCK_SS*%
X155700000Y-107375000D03*
%TO.P,C5,2*%
%TO.N,GND*%
X154740000Y-107375000D03*
%TD*%
D13*
%TO.P,PAD2,1,1*%
%TO.N,GND*%
X179500000Y-96500000D03*
%TD*%
D27*
%TO.P,R2,1*%
%TO.N,+5V*%
X156880000Y-110405000D03*
%TO.P,R2,2*%
%TO.N,/BUCK_FB*%
X156880000Y-109385000D03*
%TD*%
D28*
%TO.N,+VBAT*%
X145200000Y-110000000D03*
X152150000Y-84750000D03*
X166250000Y-118000000D03*
X153050000Y-81150000D03*
X176750000Y-93200000D03*
X165350000Y-118000000D03*
X163550000Y-118900000D03*
X167150000Y-118900000D03*
X144300000Y-110000000D03*
X151250000Y-83850000D03*
X173000000Y-117350000D03*
X147000000Y-110000000D03*
X179450000Y-90500000D03*
X147900000Y-110900000D03*
X180350000Y-90500000D03*
X153050000Y-83850000D03*
X171200000Y-119150000D03*
X180350000Y-93200000D03*
X170300000Y-118250000D03*
X170300000Y-120050000D03*
X164450000Y-120700000D03*
X177650000Y-91400000D03*
X147000000Y-111800000D03*
X177650000Y-90500000D03*
X151250000Y-82950000D03*
X151250000Y-82050000D03*
D29*
X162150000Y-98610000D03*
D28*
X147900000Y-109100000D03*
X172100000Y-120950000D03*
X146100000Y-111800000D03*
X179450000Y-93200000D03*
X151250000Y-84750000D03*
X145200000Y-111800000D03*
X172100000Y-120050000D03*
X151250000Y-81150000D03*
X180350000Y-91400000D03*
D29*
X150800000Y-100900000D03*
D28*
X147000000Y-109100000D03*
X165350000Y-119800000D03*
X146100000Y-110000000D03*
X166250000Y-117100000D03*
X153950000Y-81150000D03*
X171200000Y-118250000D03*
X177650000Y-92300000D03*
X166250000Y-118900000D03*
X167150000Y-120700000D03*
X153950000Y-82950000D03*
X178550000Y-90500000D03*
X170300000Y-119150000D03*
X164450000Y-119800000D03*
X170300000Y-120950000D03*
X172100000Y-117350000D03*
X153050000Y-82050000D03*
X144300000Y-111800000D03*
X144300000Y-110900000D03*
X176750000Y-91400000D03*
X145200000Y-110900000D03*
X173000000Y-119150000D03*
X165350000Y-117100000D03*
X178550000Y-93200000D03*
X153050000Y-84750000D03*
X144300000Y-109100000D03*
X167150000Y-117100000D03*
X153950000Y-83850000D03*
X173000000Y-120050000D03*
D29*
X162700000Y-98350000D03*
D28*
X147900000Y-111800000D03*
X167150000Y-119800000D03*
X176750000Y-92300000D03*
X172100000Y-118250000D03*
X145200000Y-109100000D03*
X172100000Y-119150000D03*
X171200000Y-120950000D03*
X163550000Y-120700000D03*
X173000000Y-118250000D03*
X152150000Y-82950000D03*
X166250000Y-119800000D03*
X178550000Y-91400000D03*
X153950000Y-84750000D03*
X147900000Y-110000000D03*
X152150000Y-83850000D03*
X177650000Y-93200000D03*
X165350000Y-118900000D03*
X163550000Y-119800000D03*
X164450000Y-117100000D03*
X152150000Y-81150000D03*
X153950000Y-82050000D03*
X153050000Y-82950000D03*
X171200000Y-117350000D03*
X165350000Y-120700000D03*
X152150000Y-82050000D03*
X179450000Y-91400000D03*
D29*
X162700000Y-98900000D03*
D28*
X170300000Y-117350000D03*
X164450000Y-118900000D03*
X163550000Y-118000000D03*
X167150000Y-118000000D03*
D29*
X165150000Y-106575000D03*
X165700000Y-106850000D03*
D28*
X173000000Y-120950000D03*
X179450000Y-92300000D03*
X147000000Y-110900000D03*
X166250000Y-120700000D03*
X180350000Y-92300000D03*
X163550000Y-117100000D03*
X176750000Y-90500000D03*
D29*
X165150000Y-107150000D03*
D28*
X164450000Y-118000000D03*
X178550000Y-92300000D03*
X146100000Y-109100000D03*
X146100000Y-110900000D03*
X171200000Y-120050000D03*
D29*
%TO.N,GND*%
X174700000Y-101790000D03*
D28*
X147000000Y-92300000D03*
D29*
X163620000Y-101280000D03*
D28*
X158825000Y-118000000D03*
X152150000Y-119150000D03*
X159725000Y-119800000D03*
X180400000Y-110850000D03*
X151250000Y-118250000D03*
X151250000Y-117350000D03*
X145200000Y-91400000D03*
X180400000Y-111750000D03*
X170250000Y-84750000D03*
X158825000Y-117100000D03*
D29*
X159525000Y-105775000D03*
X165730000Y-100770000D03*
D28*
X144300000Y-91400000D03*
X153950000Y-120950000D03*
X178600000Y-109050000D03*
X146100000Y-92300000D03*
D29*
X167370000Y-99560000D03*
X149225000Y-105475000D03*
D28*
X146100000Y-93200000D03*
X178600000Y-111750000D03*
X147000000Y-91400000D03*
X172950000Y-83850000D03*
X145200000Y-92300000D03*
X178600000Y-109950000D03*
X172950000Y-82950000D03*
X170250000Y-82950000D03*
X153950000Y-120050000D03*
X163200000Y-87800000D03*
X172050000Y-81150000D03*
X172050000Y-82950000D03*
D29*
X154740000Y-108040000D03*
D28*
X172050000Y-82050000D03*
X180400000Y-109050000D03*
X179500000Y-111750000D03*
X179500000Y-109050000D03*
D29*
X177750000Y-99200000D03*
X162160000Y-104680000D03*
D28*
X172050000Y-83850000D03*
X152150000Y-120950000D03*
X144300000Y-92300000D03*
D29*
X152550000Y-87500000D03*
D28*
X177700000Y-110850000D03*
X145200000Y-90500000D03*
X172950000Y-81150000D03*
X147000000Y-93200000D03*
X176800000Y-109050000D03*
X157925000Y-119800000D03*
D29*
X169540000Y-94360000D03*
X150790000Y-105460000D03*
D28*
X176800000Y-109950000D03*
D29*
X174120000Y-101800000D03*
D28*
X158825000Y-120700000D03*
X171150000Y-81150000D03*
X160625000Y-120700000D03*
X171150000Y-82950000D03*
X163200000Y-87000000D03*
X157025000Y-119800000D03*
X147000000Y-90500000D03*
X144300000Y-90500000D03*
D29*
X166800000Y-99560000D03*
X164010000Y-95390000D03*
D28*
X171150000Y-82050000D03*
X151250000Y-120950000D03*
X180400000Y-109950000D03*
X157025000Y-118900000D03*
D29*
X177700000Y-96250000D03*
D28*
X158825000Y-118900000D03*
X172950000Y-84750000D03*
X152150000Y-117350000D03*
D29*
X171600000Y-87350000D03*
D28*
X177700000Y-109050000D03*
X164000000Y-87800000D03*
X147900000Y-91400000D03*
X178600000Y-110850000D03*
D29*
X164250000Y-101270000D03*
D28*
X159725000Y-118900000D03*
X177700000Y-109950000D03*
X171150000Y-84750000D03*
X160625000Y-118900000D03*
D29*
X163570000Y-103210000D03*
D28*
X170250000Y-82050000D03*
X144300000Y-93200000D03*
X170250000Y-81150000D03*
D29*
X177750000Y-99850000D03*
D28*
X157925000Y-117100000D03*
X146100000Y-91400000D03*
X170250000Y-83850000D03*
D29*
X168950000Y-113000000D03*
D28*
X147900000Y-90500000D03*
X157025000Y-118000000D03*
X176800000Y-111750000D03*
X147900000Y-92300000D03*
X160625000Y-119800000D03*
D29*
X164200000Y-103200000D03*
X149225000Y-106025000D03*
D28*
X157025000Y-120700000D03*
X153950000Y-118250000D03*
D29*
X165720000Y-100140000D03*
X160675000Y-105775000D03*
D28*
X153050000Y-118250000D03*
D29*
X160100000Y-105775000D03*
X158900000Y-110400000D03*
D28*
X160625000Y-117100000D03*
D29*
X156800000Y-113000000D03*
D28*
X153950000Y-119150000D03*
X152150000Y-120050000D03*
X159725000Y-118000000D03*
X177700000Y-111750000D03*
X153950000Y-117350000D03*
X160625000Y-118000000D03*
X157925000Y-118000000D03*
X153050000Y-120050000D03*
X176800000Y-110850000D03*
X159725000Y-120700000D03*
D29*
X164000000Y-94760000D03*
D28*
X146100000Y-90500000D03*
X179500000Y-109950000D03*
D29*
X167950000Y-99570000D03*
D28*
X157025000Y-117100000D03*
X151250000Y-119150000D03*
X172950000Y-82050000D03*
X153050000Y-120950000D03*
X157925000Y-120700000D03*
D29*
X174292500Y-98072500D03*
D28*
X171150000Y-83850000D03*
X152150000Y-118250000D03*
X164000000Y-87000000D03*
X159725000Y-117100000D03*
X153050000Y-119150000D03*
X172050000Y-84750000D03*
X157925000Y-118900000D03*
X147900000Y-93200000D03*
X158825000Y-119800000D03*
X151250000Y-120050000D03*
D29*
X177700000Y-96900000D03*
X162170000Y-105310000D03*
D28*
X179500000Y-110850000D03*
X153050000Y-117350000D03*
X145200000Y-93200000D03*
D30*
%TO.N,M1*%
X157110384Y-91889616D03*
X162600000Y-91600000D03*
%TD*%
D31*
%TO.N,/BUCK_SW*%
X155087500Y-105362500D02*
X156762500Y-105362500D01*
X154740000Y-106335000D02*
X154740000Y-105710000D01*
X154740000Y-105710000D02*
X155087500Y-105362500D01*
%TO.N,/BUCK_BST*%
X155700000Y-106335000D02*
X156585000Y-106335000D01*
X157115000Y-106865000D02*
X158045000Y-106865000D01*
X156585000Y-106335000D02*
X157115000Y-106865000D01*
D32*
%TO.N,+VBAT*%
X150800000Y-100900000D02*
X150800000Y-101640000D01*
%TO.N,GND*%
X171600000Y-87350000D02*
X171600000Y-88900000D01*
X152550000Y-87500000D02*
X152550000Y-88900000D01*
X169540000Y-95090000D02*
X169542500Y-95092500D01*
X168950000Y-113000000D02*
X170300000Y-113000000D01*
D31*
X174292500Y-98072500D02*
X173562500Y-98072500D01*
D32*
X150790000Y-105460000D02*
X150790000Y-104725000D01*
X169540000Y-94360000D02*
X169540000Y-95090000D01*
X158900000Y-110400000D02*
X158055000Y-110400000D01*
X154740000Y-108040000D02*
X154740000Y-107375000D01*
X156800000Y-113000000D02*
X155400000Y-113000000D01*
X158055000Y-110400000D02*
X158050000Y-110405000D01*
D31*
%TO.N,+5V*%
X156055000Y-110405000D02*
X153950000Y-108300000D01*
X153950000Y-108300000D02*
X153950000Y-99000000D01*
X156880000Y-110405000D02*
X156055000Y-110405000D01*
X155237500Y-97712500D02*
X157937500Y-97712500D01*
X153950000Y-99000000D02*
X155237500Y-97712500D01*
%TO.N,/BUCK_SS*%
X155710000Y-107365000D02*
X155700000Y-107375000D01*
X158045000Y-107365000D02*
X155710000Y-107365000D01*
%TO.N,/BUCK2_BST*%
X172052500Y-99082500D02*
X172602500Y-99082500D01*
X171542500Y-98572500D02*
X172052500Y-99082500D01*
X169537500Y-98572500D02*
X171542500Y-98572500D01*
%TO.N,/BUCK2_SW*%
X173130000Y-100220000D02*
X170890000Y-100220000D01*
X173562500Y-99082500D02*
X173562500Y-99787500D01*
X173562500Y-99787500D02*
X173130000Y-100220000D01*
%TO.N,+9V*%
X170672500Y-95092500D02*
X173642500Y-95092500D01*
X176000000Y-97450000D02*
X176000000Y-105150000D01*
X175400000Y-96850000D02*
X176000000Y-97450000D01*
X173642500Y-95092500D02*
X175400000Y-96850000D01*
%TO.N,/BUCK2_SS*%
X169537500Y-98072500D02*
X172602500Y-98072500D01*
%TO.N,M2*%
X154700000Y-111250000D02*
X172450000Y-111250000D01*
X172450000Y-111250000D02*
X173000000Y-111800000D01*
X153000000Y-109550000D02*
X154700000Y-111250000D01*
X153000000Y-100400000D02*
X153000000Y-109550000D01*
X151300000Y-98700000D02*
X153000000Y-100400000D01*
X148800000Y-98700000D02*
X151300000Y-98700000D01*
X173000000Y-111800000D02*
X173000000Y-113000000D01*
%TO.N,M1*%
X151300000Y-97700000D02*
X157110384Y-91889616D01*
X171600000Y-91600000D02*
X166800000Y-91600000D01*
X166800000Y-91600000D02*
X162600000Y-91600000D01*
X148800000Y-97700000D02*
X150900000Y-97700000D01*
X150900000Y-97700000D02*
X151300000Y-97700000D01*
%TO.N,M3*%
X148800000Y-99700000D02*
X150600000Y-99700000D01*
X152700000Y-111350000D02*
X152700000Y-113000000D01*
X152000000Y-110650000D02*
X152700000Y-111350000D01*
X150600000Y-99700000D02*
X152000000Y-101100000D01*
X152000000Y-101100000D02*
X152000000Y-110650000D01*
%TO.N,M4*%
X150400000Y-95500000D02*
X152550000Y-93350000D01*
X147050000Y-96050000D02*
X147600000Y-95500000D01*
X148800000Y-100700000D02*
X147650000Y-100700000D01*
X147650000Y-100700000D02*
X147050000Y-100100000D01*
X152550000Y-93350000D02*
X152550000Y-91600000D01*
X147050000Y-100100000D02*
X147050000Y-96050000D01*
X147600000Y-95500000D02*
X150400000Y-95500000D01*
D32*
%TO.N,/ADC_VBAT*%
X150800000Y-102660000D02*
X150800000Y-103695000D01*
X150800000Y-103695000D02*
X150790000Y-103705000D01*
X148805000Y-103705000D02*
X148800000Y-103700000D01*
X150790000Y-103705000D02*
X148805000Y-103705000D01*
D31*
%TO.N,/BUCK_FB*%
X158045000Y-107865000D02*
X158045000Y-109380000D01*
X158045000Y-109380000D02*
X158050000Y-109385000D01*
X158050000Y-109385000D02*
X156880000Y-109385000D01*
%TO.N,/BUCK2_FB*%
X169537500Y-97572500D02*
X169537500Y-96117500D01*
X169537500Y-96117500D02*
X169542500Y-96112500D01*
X169542500Y-96112500D02*
X170672500Y-96112500D01*
%TD*%
%TA.AperFunction,Conductor*%
%TO.N,GND*%
G36*
X160765677Y-105494685D02*
G01*
X160786319Y-105511319D01*
X160913681Y-105638681D01*
X160928384Y-105665608D01*
X160944977Y-105691427D01*
X160945868Y-105697627D01*
X160947166Y-105700004D01*
X160950000Y-105726362D01*
X160950000Y-105848638D01*
X160930315Y-105915677D01*
X160913681Y-105936319D01*
X160366819Y-106483181D01*
X160305496Y-106516666D01*
X160279138Y-106519500D01*
X159870988Y-106519500D01*
X159863358Y-106519687D01*
X159863348Y-106519687D01*
X159863327Y-106519688D01*
X159860012Y-106519851D01*
X159853941Y-106520000D01*
X159274000Y-106520000D01*
X159206961Y-106500315D01*
X159161206Y-106447511D01*
X159150000Y-106396000D01*
X159150000Y-105801362D01*
X159169685Y-105734323D01*
X159186319Y-105713681D01*
X159388681Y-105511319D01*
X159450004Y-105477834D01*
X159476362Y-105475000D01*
X160698638Y-105475000D01*
X160765677Y-105494685D01*
G37*
%TD.AperFunction*%
%TD*%
%TA.AperFunction,Conductor*%
%TO.N,GND*%
G36*
X180453177Y-98469685D02*
G01*
X180473819Y-98486319D01*
X180563681Y-98576181D01*
X180597166Y-98637504D01*
X180600000Y-98663862D01*
X180600000Y-100448638D01*
X180591355Y-100478078D01*
X180584832Y-100508065D01*
X180581077Y-100513080D01*
X180580315Y-100515677D01*
X180563681Y-100536319D01*
X180486319Y-100613681D01*
X180424996Y-100647166D01*
X180398638Y-100650000D01*
X177951362Y-100650000D01*
X177884323Y-100630315D01*
X177863681Y-100613681D01*
X177436319Y-100186319D01*
X177402834Y-100124996D01*
X177400000Y-100098638D01*
X177400000Y-99001362D01*
X177419685Y-98934323D01*
X177436319Y-98913681D01*
X177863681Y-98486319D01*
X177925004Y-98452834D01*
X177951362Y-98450000D01*
X180386138Y-98450000D01*
X180453177Y-98469685D01*
G37*
%TD.AperFunction*%
%TD*%
%TA.AperFunction,Conductor*%
%TO.N,GND*%
G36*
X164475677Y-99939685D02*
G01*
X164496319Y-99956319D01*
X164633681Y-100093681D01*
X164667166Y-100155004D01*
X164670000Y-100181362D01*
X164670000Y-101235513D01*
X164650315Y-101302552D01*
X164633681Y-101323194D01*
X164423194Y-101533681D01*
X164361871Y-101567166D01*
X164335513Y-101570000D01*
X163488862Y-101570000D01*
X163421823Y-101550315D01*
X163401181Y-101533681D01*
X163216319Y-101348819D01*
X163182834Y-101287496D01*
X163180000Y-101261138D01*
X163180000Y-100191362D01*
X163188644Y-100161921D01*
X163195168Y-100131935D01*
X163198922Y-100126919D01*
X163199685Y-100124323D01*
X163216319Y-100103681D01*
X163363681Y-99956319D01*
X163425004Y-99922834D01*
X163451362Y-99920000D01*
X164408638Y-99920000D01*
X164475677Y-99939685D01*
G37*
%TD.AperFunction*%
%TD*%
%TA.AperFunction,Conductor*%
%TO.N,/BUCK_SW*%
G36*
X159468177Y-102499685D02*
G01*
X159488819Y-102516319D01*
X159533681Y-102561181D01*
X159567166Y-102622504D01*
X159570000Y-102648862D01*
X159570000Y-105028638D01*
X159550315Y-105095677D01*
X159533681Y-105116319D01*
X158400000Y-106249999D01*
X158400000Y-106426000D01*
X158380315Y-106493039D01*
X158327511Y-106538794D01*
X158276000Y-106550000D01*
X157741362Y-106550000D01*
X157674323Y-106530315D01*
X157653681Y-106513681D01*
X156346319Y-105206319D01*
X156312834Y-105144996D01*
X156310000Y-105118638D01*
X156310000Y-102643862D01*
X156318644Y-102614421D01*
X156325168Y-102584435D01*
X156328922Y-102579419D01*
X156329685Y-102576823D01*
X156346319Y-102556181D01*
X156386181Y-102516319D01*
X156447504Y-102482834D01*
X156473862Y-102480000D01*
X159401138Y-102480000D01*
X159468177Y-102499685D01*
G37*
%TD.AperFunction*%
%TD*%
%TA.AperFunction,Conductor*%
%TO.N,GND*%
G36*
X164281814Y-102629685D02*
G01*
X164327569Y-102682489D01*
X164330540Y-102689565D01*
X164671635Y-103578208D01*
X164671765Y-103578545D01*
X164680000Y-103622980D01*
X164680000Y-104757936D01*
X164660315Y-104824975D01*
X164654407Y-104833381D01*
X164487225Y-105051445D01*
X164430815Y-105092672D01*
X164388818Y-105100000D01*
X163387522Y-105100000D01*
X163320483Y-105080315D01*
X163288421Y-105050532D01*
X163124899Y-104833106D01*
X163100336Y-104767696D01*
X163100000Y-104758574D01*
X163100000Y-103623404D01*
X163108530Y-103578208D01*
X163456655Y-102688804D01*
X163499421Y-102633551D01*
X163565269Y-102610190D01*
X163572125Y-102610000D01*
X164214775Y-102610000D01*
X164281814Y-102629685D01*
G37*
%TD.AperFunction*%
%TD*%
%TA.AperFunction,Conductor*%
%TO.N,+9V*%
G36*
X180421927Y-101563435D02*
G01*
X180442569Y-101580069D01*
X180663681Y-101801181D01*
X180697166Y-101862504D01*
X180700000Y-101888862D01*
X180700000Y-106548638D01*
X180680315Y-106615677D01*
X180663681Y-106636319D01*
X180486319Y-106813681D01*
X180424996Y-106847166D01*
X180398638Y-106850000D01*
X176699999Y-106850000D01*
X174536319Y-109013681D01*
X174474996Y-109047166D01*
X174448638Y-109050000D01*
X168113862Y-109050000D01*
X168084421Y-109041355D01*
X168054435Y-109034832D01*
X168049419Y-109031077D01*
X168046823Y-109030315D01*
X168026181Y-109013681D01*
X167936319Y-108923819D01*
X167902834Y-108862496D01*
X167900000Y-108836138D01*
X167900000Y-106601362D01*
X167919685Y-106534323D01*
X167936319Y-106513681D01*
X169963681Y-104486319D01*
X170025004Y-104452834D01*
X170051362Y-104450000D01*
X175550000Y-104450000D01*
X178419931Y-101580069D01*
X178481254Y-101546584D01*
X178507612Y-101543750D01*
X180354888Y-101543750D01*
X180421927Y-101563435D01*
G37*
%TD.AperFunction*%
%TD*%
%TA.AperFunction,Conductor*%
%TO.N,+5V*%
G36*
X160865643Y-83814965D02*
G01*
X160886407Y-83831645D01*
X161588593Y-84532417D01*
X161622140Y-84593707D01*
X161625000Y-84620187D01*
X161625000Y-95098638D01*
X161605315Y-95165677D01*
X161588681Y-95186319D01*
X159575000Y-97199999D01*
X159575000Y-98779888D01*
X159566355Y-98809328D01*
X159559832Y-98839315D01*
X159556077Y-98844330D01*
X159555315Y-98846927D01*
X159538681Y-98867569D01*
X159467569Y-98938681D01*
X159406246Y-98972166D01*
X159379888Y-98975000D01*
X156470424Y-98975000D01*
X156403385Y-98955315D01*
X156382743Y-98938681D01*
X156311319Y-98867257D01*
X156277834Y-98805934D01*
X156275000Y-98779576D01*
X156275000Y-95830799D01*
X156289410Y-95772781D01*
X156646309Y-95098638D01*
X158525000Y-91550000D01*
X158525000Y-84432540D01*
X158544685Y-84365501D01*
X158561226Y-84344951D01*
X159070021Y-83835129D01*
X159131309Y-83801584D01*
X159157533Y-83798724D01*
X160798566Y-83795415D01*
X160865643Y-83814965D01*
G37*
%TD.AperFunction*%
%TD*%
%TA.AperFunction,Conductor*%
%TO.N,GND*%
G36*
X165931927Y-99259685D02*
G01*
X165952569Y-99276319D01*
X166003681Y-99327431D01*
X166037166Y-99388754D01*
X166040000Y-99415112D01*
X166040000Y-100798638D01*
X166031355Y-100828078D01*
X166024832Y-100858065D01*
X166021077Y-100863080D01*
X166020315Y-100865677D01*
X166003681Y-100886319D01*
X165866319Y-101023681D01*
X165804996Y-101057166D01*
X165778638Y-101060000D01*
X165651362Y-101060000D01*
X165584323Y-101040315D01*
X165563681Y-101023681D01*
X165416319Y-100876319D01*
X165382834Y-100814996D01*
X165380000Y-100788638D01*
X165380000Y-99406362D01*
X165388644Y-99376921D01*
X165395168Y-99346935D01*
X165398922Y-99341919D01*
X165399685Y-99339323D01*
X165416319Y-99318681D01*
X165458681Y-99276319D01*
X165520004Y-99242834D01*
X165546362Y-99240000D01*
X165864888Y-99240000D01*
X165931927Y-99259685D01*
G37*
%TD.AperFunction*%
%TD*%
%TA.AperFunction,Conductor*%
%TO.N,GND*%
G36*
X163674496Y-94183435D02*
G01*
X163679056Y-94186509D01*
X164191289Y-94548775D01*
X164277600Y-94609816D01*
X164320968Y-94664597D01*
X164330000Y-94711056D01*
X164330000Y-95512384D01*
X164310315Y-95579423D01*
X164278005Y-95613336D01*
X163664814Y-96050702D01*
X163598805Y-96073605D01*
X163592809Y-96073750D01*
X162499259Y-96073750D01*
X162432220Y-96054065D01*
X162389648Y-96007727D01*
X162214389Y-95676383D01*
X162200000Y-95618406D01*
X162200000Y-94605481D01*
X162213726Y-94548775D01*
X162377113Y-94231044D01*
X162425276Y-94180427D01*
X162487387Y-94163750D01*
X163607457Y-94163750D01*
X163674496Y-94183435D01*
G37*
%TD.AperFunction*%
%TD*%
%TA.AperFunction,Conductor*%
%TO.N,GND*%
G36*
X162275677Y-104409685D02*
G01*
X162296319Y-104426319D01*
X162453681Y-104583681D01*
X162487166Y-104645004D01*
X162490000Y-104671362D01*
X162490000Y-106028638D01*
X162481355Y-106058078D01*
X162474832Y-106088065D01*
X162471077Y-106093080D01*
X162470315Y-106095677D01*
X162453681Y-106116319D01*
X162416319Y-106153681D01*
X162354996Y-106187166D01*
X162328638Y-106190000D01*
X161993862Y-106190000D01*
X161926823Y-106170315D01*
X161906181Y-106153681D01*
X161866319Y-106113819D01*
X161832834Y-106052496D01*
X161830000Y-106026138D01*
X161830000Y-104648862D01*
X161838644Y-104619421D01*
X161845168Y-104589435D01*
X161848922Y-104584419D01*
X161849685Y-104581823D01*
X161866319Y-104561181D01*
X162001181Y-104426319D01*
X162062504Y-104392834D01*
X162088862Y-104390000D01*
X162208638Y-104390000D01*
X162275677Y-104409685D01*
G37*
%TD.AperFunction*%
%TD*%
%TA.AperFunction,Conductor*%
%TO.N,/BUCK2_SW*%
G36*
X169875677Y-98909685D02*
G01*
X169896319Y-98926319D01*
X171213681Y-100243681D01*
X171247166Y-100305004D01*
X171250000Y-100331362D01*
X171250000Y-102866138D01*
X171241355Y-102895578D01*
X171234832Y-102925565D01*
X171231077Y-102930580D01*
X171230315Y-102933177D01*
X171213681Y-102953819D01*
X171113819Y-103053681D01*
X171052496Y-103087166D01*
X171026138Y-103090000D01*
X168103862Y-103090000D01*
X168036823Y-103070315D01*
X168016181Y-103053681D01*
X167906319Y-102943819D01*
X167872834Y-102882496D01*
X167870000Y-102856138D01*
X167870000Y-100291362D01*
X167889685Y-100224323D01*
X167906319Y-100203681D01*
X169183681Y-98926319D01*
X169245004Y-98892834D01*
X169271362Y-98890000D01*
X169808638Y-98890000D01*
X169875677Y-98909685D01*
G37*
%TD.AperFunction*%
%TD*%
%TA.AperFunction,Conductor*%
%TO.N,GND*%
G36*
X164487748Y-83719685D02*
G01*
X164508390Y-83736319D01*
X164963681Y-84191610D01*
X164997166Y-84252933D01*
X165000000Y-84279291D01*
X165000000Y-87798745D01*
X164980315Y-87865784D01*
X164962833Y-87887266D01*
X164386655Y-88452454D01*
X164325012Y-88485347D01*
X164300883Y-88487928D01*
X162944398Y-88499538D01*
X162877193Y-88480428D01*
X162853413Y-88460922D01*
X162413063Y-87997129D01*
X162381178Y-87934959D01*
X162379120Y-87917481D01*
X162219290Y-84456144D01*
X162235861Y-84388271D01*
X162253472Y-84364798D01*
X162851647Y-83738365D01*
X162912182Y-83703474D01*
X162941328Y-83700000D01*
X164420709Y-83700000D01*
X164487748Y-83719685D01*
G37*
%TD.AperFunction*%
%TD*%
%TA.AperFunction,Conductor*%
%TO.N,+VBAT*%
G36*
X165201295Y-97429685D02*
G01*
X165236892Y-97464416D01*
X165250600Y-97484636D01*
X165600000Y-98000000D01*
X167344558Y-98000000D01*
X167377174Y-98009577D01*
X167409930Y-98018632D01*
X167410963Y-98019498D01*
X167411597Y-98019685D01*
X167436968Y-98041317D01*
X167555738Y-98174060D01*
X167585770Y-98237147D01*
X167586731Y-98244591D01*
X167586999Y-98247322D01*
X167595731Y-98291217D01*
X167595732Y-98291221D01*
X167595733Y-98291222D01*
X167628996Y-98341004D01*
X167678778Y-98374267D01*
X167678781Y-98374267D01*
X167678782Y-98374268D01*
X167722677Y-98383000D01*
X168306000Y-98383000D01*
X168314685Y-98385550D01*
X168323647Y-98384262D01*
X168347687Y-98395240D01*
X168373039Y-98402685D01*
X168378966Y-98409525D01*
X168387203Y-98413287D01*
X168401492Y-98435521D01*
X168418794Y-98455489D01*
X168421081Y-98466003D01*
X168424977Y-98472065D01*
X168430000Y-98507000D01*
X168430000Y-98613638D01*
X168410315Y-98680677D01*
X168393681Y-98701319D01*
X168371319Y-98723681D01*
X168309996Y-98757166D01*
X168283638Y-98760000D01*
X167009999Y-98760000D01*
X166636319Y-99133681D01*
X166574996Y-99167166D01*
X166548638Y-99170000D01*
X166119028Y-99170000D01*
X166105153Y-99166545D01*
X166094095Y-99167467D01*
X166073168Y-99158581D01*
X166060883Y-99155523D01*
X166051224Y-99150395D01*
X166049516Y-99148687D01*
X166040548Y-99144727D01*
X166036590Y-99142626D01*
X166035507Y-99141568D01*
X166034974Y-99141278D01*
X166034896Y-99141429D01*
X165975736Y-99110483D01*
X165908704Y-99090800D01*
X165908690Y-99090797D01*
X165864891Y-99084500D01*
X165864888Y-99084500D01*
X165546362Y-99084500D01*
X165529754Y-99085390D01*
X165529745Y-99085390D01*
X165529739Y-99085391D01*
X165529733Y-99085391D01*
X165529702Y-99085394D01*
X165503380Y-99088224D01*
X165503378Y-99088225D01*
X165445483Y-99106354D01*
X165445473Y-99106358D01*
X165384163Y-99139836D01*
X165384155Y-99139841D01*
X165376908Y-99145267D01*
X165311444Y-99169684D01*
X165302598Y-99170000D01*
X162341362Y-99170000D01*
X162274323Y-99150315D01*
X162253681Y-99133681D01*
X161916319Y-98796319D01*
X161901615Y-98769391D01*
X161885023Y-98743573D01*
X161884131Y-98737372D01*
X161882834Y-98734996D01*
X161880000Y-98708638D01*
X161880000Y-98495746D01*
X161890249Y-98446382D01*
X161894963Y-98435521D01*
X162307611Y-97484636D01*
X162352357Y-97430974D01*
X162419011Y-97410022D01*
X162421362Y-97410000D01*
X165134256Y-97410000D01*
X165201295Y-97429685D01*
G37*
%TD.AperFunction*%
%TD*%
%TA.AperFunction,Conductor*%
%TO.N,GND*%
G36*
X180453177Y-95419685D02*
G01*
X180473819Y-95436319D01*
X180563681Y-95526181D01*
X180597166Y-95587504D01*
X180600000Y-95613862D01*
X180600000Y-97398638D01*
X180591355Y-97428078D01*
X180584832Y-97458065D01*
X180581077Y-97463080D01*
X180580315Y-97465677D01*
X180563681Y-97486319D01*
X180486319Y-97563681D01*
X180424996Y-97597166D01*
X180398638Y-97600000D01*
X177951362Y-97600000D01*
X177884323Y-97580315D01*
X177863681Y-97563681D01*
X177436319Y-97136319D01*
X177402834Y-97074996D01*
X177400000Y-97048638D01*
X177400000Y-95951362D01*
X177419685Y-95884323D01*
X177436319Y-95863681D01*
X177863681Y-95436319D01*
X177925004Y-95402834D01*
X177951362Y-95400000D01*
X180386138Y-95400000D01*
X180453177Y-95419685D01*
G37*
%TD.AperFunction*%
%TD*%
%TA.AperFunction,Conductor*%
%TO.N,GND*%
G36*
X168285298Y-98916227D02*
G01*
X168350193Y-98933390D01*
X168397359Y-98984937D01*
X168410000Y-99039481D01*
X168410000Y-99428728D01*
X168390315Y-99495767D01*
X168373681Y-99516409D01*
X168086409Y-99803681D01*
X168025086Y-99837166D01*
X167998728Y-99840000D01*
X166743862Y-99840000D01*
X166714421Y-99831355D01*
X166684435Y-99824832D01*
X166679419Y-99821077D01*
X166676823Y-99820315D01*
X166656181Y-99803681D01*
X166566319Y-99713819D01*
X166532834Y-99652496D01*
X166530000Y-99626138D01*
X166530000Y-99521362D01*
X166549685Y-99454323D01*
X166566319Y-99433681D01*
X167048181Y-98951819D01*
X167109504Y-98918334D01*
X167135862Y-98915500D01*
X168285298Y-98915500D01*
X168285298Y-98916227D01*
G37*
%TD.AperFunction*%
%TD*%
%TA.AperFunction,Conductor*%
%TO.N,GND*%
G36*
X174797363Y-101219685D02*
G01*
X174841654Y-101269395D01*
X175187330Y-101974168D01*
X175200000Y-102028773D01*
X175200000Y-103364436D01*
X175195197Y-103381181D01*
X175195408Y-103397869D01*
X175181152Y-103430156D01*
X175048925Y-103641720D01*
X174996702Y-103688136D01*
X174943773Y-103700000D01*
X173898711Y-103700000D01*
X173831672Y-103680315D01*
X173792089Y-103639307D01*
X173667378Y-103429268D01*
X173650000Y-103365961D01*
X173650000Y-102027983D01*
X173662018Y-101974729D01*
X173996824Y-101270741D01*
X174043392Y-101218656D01*
X174108804Y-101200000D01*
X174730324Y-101200000D01*
X174797363Y-101219685D01*
G37*
%TD.AperFunction*%
%TD*%
%TA.AperFunction,Conductor*%
%TO.N,GND*%
G36*
X149553676Y-104520184D02*
G01*
X149574318Y-104536818D01*
X149588681Y-104551181D01*
X149622166Y-104612504D01*
X149625000Y-104638862D01*
X149625000Y-106076763D01*
X149616355Y-106106203D01*
X149609832Y-106136190D01*
X149606077Y-106141205D01*
X149605315Y-106143802D01*
X149588681Y-106164444D01*
X149464444Y-106288681D01*
X149403121Y-106322166D01*
X149376763Y-106325000D01*
X149088862Y-106325000D01*
X149021823Y-106305315D01*
X149001181Y-106288681D01*
X148011319Y-105298819D01*
X147977834Y-105237496D01*
X147975000Y-105211138D01*
X147975000Y-104648237D01*
X147983644Y-104618796D01*
X147990168Y-104588810D01*
X147993922Y-104583794D01*
X147994685Y-104581198D01*
X148011319Y-104560556D01*
X148035057Y-104536818D01*
X148096380Y-104503333D01*
X148122729Y-104500499D01*
X149486637Y-104500499D01*
X149553676Y-104520184D01*
G37*
%TD.AperFunction*%
%TD*%
%TA.AperFunction,Conductor*%
%TO.N,+VBAT*%
G36*
X161945570Y-106338976D02*
G01*
X161945726Y-106338260D01*
X161950041Y-106339198D01*
X161950051Y-106339201D01*
X161993862Y-106345500D01*
X161993865Y-106345500D01*
X162328638Y-106345500D01*
X162345261Y-106344609D01*
X162371619Y-106341775D01*
X162372394Y-106341532D01*
X162375162Y-106340666D01*
X162412217Y-106335000D01*
X165583638Y-106335000D01*
X165650677Y-106354685D01*
X165671319Y-106371319D01*
X165938681Y-106638681D01*
X165972166Y-106700004D01*
X165975000Y-106726362D01*
X165975000Y-107026120D01*
X165966131Y-107072173D01*
X165606787Y-107970531D01*
X165563613Y-108025464D01*
X165497592Y-108048336D01*
X165489422Y-108048458D01*
X162840089Y-108000722D01*
X162773415Y-107979833D01*
X162767923Y-107975942D01*
X162575942Y-107831956D01*
X162000000Y-107400000D01*
X161999999Y-107400000D01*
X160440751Y-107400000D01*
X160373712Y-107380315D01*
X160367194Y-107375827D01*
X159925000Y-107050000D01*
X159295112Y-107050000D01*
X159265671Y-107041355D01*
X159235685Y-107034832D01*
X159230669Y-107031077D01*
X159228073Y-107030315D01*
X159207431Y-107013681D01*
X159186319Y-106992569D01*
X159152834Y-106931246D01*
X159150000Y-106904888D01*
X159150000Y-106799500D01*
X159169685Y-106732461D01*
X159222489Y-106686706D01*
X159274000Y-106675500D01*
X159860810Y-106675500D01*
X159870988Y-106675000D01*
X160400000Y-106675000D01*
X160703681Y-106371319D01*
X160765004Y-106337834D01*
X160791362Y-106335000D01*
X161917914Y-106335000D01*
X161945570Y-106338976D01*
G37*
%TD.AperFunction*%
%TD*%
M02*
